<svg width="430" height="298" viewBox="0 0 430 298" fill="none" xmlns="http://www.w3.org/2000/svg">
<path d="M160.1 187C160.1 187 154.8 181.8 154.3 180.3C153.8 178.8 152.8 169 150.8 170.3C148.8 171.6 149.2 179.4 149.2 179.4C149.2 179.4 141.8 168.2 139.7 169.2C137.6 170.2 134.6 176 134.9 178C135.2 180 148.5 194.8 153 197.6L160.1 187Z" fill="white"/>
<path d="M153.1 198.3C153 198.3 152.9 198.3 152.8 198.2C148.5 195.6 134.7 180.5 134.4 178.1C134.1 175.7 137.4 169.7 139.5 168.6C141.4 167.6 145.6 172.9 148.6 177.2C148.6 174.6 148.9 170.7 150.5 169.7C150.8 169.5 151.3 169.4 151.7 169.6C153.1 170.2 153.8 173.5 154.5 177.8C154.7 178.8 154.8 179.7 154.9 180C155.2 181 158.5 184.5 160.5 186.5C160.7 186.7 160.7 187 160.6 187.3L153.6 198C153.5 198.1 153.3 198.3 153.1 198.3ZM140.1 169.7C138.2 170.7 135.4 176.3 135.6 177.9C135.8 179.5 148 193.3 152.9 196.7L159.3 187C157.9 185.6 154.2 181.8 153.7 180.4C153.5 179.6 153.3 178.8 153.2 178C152.9 176.3 152 171 151.1 170.7C149.9 171.5 149.7 176.2 149.8 179.3C149.8 179.7 149.5 180 149.2 180C149 180 148.8 179.9 148.6 179.7C145.1 174.3 141.1 169.7 140.1 169.7Z" fill="#231F20"/>
<path d="M216.5 152.1C216.5 152.1 180.7 199.8 175.7 194.9C170.7 190 157.9 182 157.9 182L147.5 196.5C147.5 196.5 178.6 225.5 189 221.3C199.4 217.1 229.5 178 229.5 178L216.5 152.1Z" fill="#68E1FD"/>
<path d="M195 178.8C192.5 177.2 189.1 175.6 187 173.5C183.6 170.2 181.4 165.3 178.2 161.7C177.4 162.3 177 163.4 177.2 164.4C177.4 165.4 177.8 166.3 178.4 167.2C179.4 169.1 180.1 171.1 180.5 173.2C174.6 171.5 168.4 170.5 162.3 170.3C161.7 172.2 162 174.2 163.2 175.8C164.3 177.3 165.7 178.7 167.3 179.8C169.2 181.4 171.2 182.7 173.3 183.9C178.1 186.3 183.9 186.4 187.9 190.3C189.7 192 193.2 193.7 195.1 191.5C195.7 190.6 195.3 179 195 178.8Z" fill="white"/>
<path d="M192.8 193.1C190.8 192.9 188.9 192.1 187.5 190.6C185.1 188.3 182 187.4 178.8 186.4C174.4 185.3 170.3 183.2 166.9 180.2C165.3 179.1 163.8 177.7 162.7 176.1C161.4 174.4 161.1 172.1 161.8 170.1C161.9 169.9 162.1 169.7 162.4 169.7C168.3 169.9 174.1 170.8 179.8 172.3C179.4 170.6 178.8 169 178 167.5L177.8 167.1C177.3 166.3 177 165.4 176.8 164.5C176.5 163.2 177 161.9 178 161.1C178.3 160.9 178.6 161 178.8 161.2C180.2 162.9 181.5 164.7 182.7 166.6C184.1 168.9 185.7 171 187.6 173C189.3 174.5 191.2 175.8 193.2 176.8C194 177.3 194.8 177.7 195.4 178.1C195.7 178.3 195.8 178.6 195.8 179.1C196 180.7 196.6 190.6 195.6 191.8C194.9 192.6 194 193 193 193L192.8 193.1ZM162.8 171C162.5 172.6 162.8 174.2 163.7 175.5C164.8 177 166.2 178.3 167.7 179.3C169.5 180.8 171.5 182.2 173.6 183.3C175.4 184.1 177.3 184.8 179.2 185.3C182.4 186.3 185.8 187.3 188.4 189.8C189.6 191 191.2 191.8 192.9 191.9C193.6 191.9 194.2 191.6 194.6 191.1C195.1 190.2 194.9 180.9 194.5 179.3C193.9 178.9 193.2 178.5 192.5 178.1C190.4 177 188.4 175.7 186.6 174.1C184.7 172.1 183 169.9 181.6 167.5C180.6 165.9 179.4 164.3 178.2 162.7C177.9 163.2 177.8 163.8 177.9 164.4C178.1 165.2 178.4 165.9 178.8 166.6L179 167C180 169 180.7 171 181.1 173.2C181.2 173.5 181 173.9 180.6 173.9C180.5 173.9 180.4 173.9 180.3 173.9C174.6 172.2 168.7 171.3 162.7 171.1L162.8 171Z" fill="#231F20"/>
<path d="M253.6 75.1002C260 76.1002 265.3 80.8002 267 87.1002C268.3 92.0002 267.4 97.9002 270.8 101.7C272.9 103.9 276 105 279 104.5C282 104 284.7 102.4 286.6 100C287.6 106.3 284.7 112.5 279.3 115.9C274.6 118.7 268.7 118.8 263.5 117.1C258.3 115.4 253.9 112.1 249.9 108.4C243.4 102.3 239.4 95.2002 238.3 86.3002C237.5 78.1002 246.4 74.0002 253.6 75.1002Z" fill="white"/>
<path d="M270.5 118.8C268.1 118.8 265.8 118.4 263.5 117.7C258.9 116.2 254.4 113.3 249.7 108.8C242.8 102.3 239 95.0001 237.9 86.3001C237.5 83.3001 238.5 80.2001 240.7 78.1001C243.7 75.1001 248.8 73.7 253.7 74.4C260.4 75.5 265.9 80.3 267.7 86.9C268.1 88.6 268.4 90.4001 268.5 92.1001C268.9 95.5001 269.2 98.8 271.3 101.2C273.3 103.3 276.1 104.2 279 103.8C281.9 103.3 284.4 101.8 286.2 99.5C286.4 99.3 286.6 99.2001 286.8 99.3001C287 99.4001 287.2 99.6001 287.3 99.8001C288.4 106.3 285.4 112.9 279.7 116.4C277 118 273.8 118.8 270.5 118.8ZM251.3 75.5C247.7 75.4 244.3 76.7 241.6 79C239.7 80.8 238.8 83.5001 239.2 86.1001C240.2 94.5001 244 101.5 250.6 107.8C255.2 112.1 259.6 114.9 264 116.4C269.4 118.2 275.1 117.7 279.2 115.3C283.9 112.3 286.7 107 286.3 101.4C284.4 103.3 281.9 104.6 279.2 105.1C276 105.6 272.7 104.5 270.4 102.1C268 99.4001 267.6 95.8001 267.2 92.3001C267.1 90.6001 266.8 88.9 266.4 87.2C264.7 81.2 259.7 76.7 253.5 75.7C252.8 75.6 252 75.5 251.3 75.5Z" fill="#231F20"/>
<path d="M246.5 87.8999C244.9 85.5999 242.8 83.8999 240.2 82.8999C238.2 82.2999 236.1 82.2999 234.1 82.7999C232.6 82.9999 231.3 83.7999 230.5 84.9999C229.7 86.3999 230.1 87.9999 230.6 89.4999C232.3 94.4999 238.1 105.7 244.5 105.5C253.6 105 249.6 91.9999 246.5 87.8999Z" fill="#231F20"/>
<path d="M244.3 106C237.6 106 231.8 95.0002 230 89.6002C229.5 88.1002 229 86.2002 230 84.6002C230.7 83.4002 232 82.6002 234 82.1002C236.1 81.6002 238.3 81.6002 240.4 82.2002C242.8 83.0002 244.9 84.7002 247 87.4002C249.2 90.3002 252.1 98.0002 250 102.6C249 104.7 246.9 105.9 244.6 105.9H244.3V106ZM237.1 83.0002C236.2 83.0002 235.2 83.1002 234.3 83.3002C233 83.4002 231.9 84.1002 231.1 85.2002C230.4 86.4002 230.8 88.0002 231.2 89.2002C232.9 94.2002 238.5 105 244.5 104.7C246.3 104.8 248 103.8 248.8 102.2C250.6 98.3002 248 90.9002 246 88.3002C244.1 85.8002 242.1 84.2002 240 83.5002C239.1 83.2002 238.1 83.0002 237.1 83.0002Z" fill="#231F20"/>
<path d="M278.2 249.1L284.8 287.4L214.1 282.1L213.2 235.6L278.2 249.1Z" fill="#231F20"/>
<path d="M284.8 288L214 282.7C213.7 282.7 213.4 282.4 213.4 282.1L212.5 235.5C212.5 235.2 212.8 234.9 213.1 234.9H213.2L278.3 248.4C278.6 248.5 278.8 248.7 278.8 248.9L285.4 287.2C285.4 287.4 285.4 287.6 285.2 287.7C285.2 287.9 285 288 284.8 288ZM214.7 281.5L284 286.6L277.6 249.5L213.7 236.3L214.7 281.5Z" fill="#231F20"/>
<path d="M249.6 145.8C249.6 145.8 265.9 153.5 275.1 175.6C280 187.4 281.6 253.2 281.6 253.2C281.6 253.2 233.9 263.8 211.1 251.2C211.1 251.2 212 220.5 209.5 199.7C208.3 189 208 166.5 213.1 156.7C220.2 143.4 236.9 146.4 249.6 145.8Z" fill="#68E1FD"/>
<path d="M211.2 220.9C210.9 220.9 210.6 220.6 210.6 220.3C210.6 220 209.6 190 208.6 182.2C207.6 174.2 212.4 162 212.6 161.5C212.7 161.2 213.1 161 213.4 161.1C213.7 161.2 213.9 161.6 213.8 161.9C213.7 162 208.9 174.3 209.9 182C210.9 189.9 211.9 219.9 211.9 220.2C211.8 220.6 211.6 220.9 211.2 220.9Z" fill="#231F20"/>
<path d="M244.9 92.9999C244.5 92.1999 244 91.4999 243.5 90.7999C239.2 84.0999 231.3 83.3999 224.3 85.9999C222.9 86.4999 221.4 87.3999 221.2 88.8999C218.4 87.5999 215 88.8999 212.9 91.1999C206.1 98.4999 206.4 110 208.6 119C209 121.1 209.8 123.1 211 124.9C212.3 126.5 213.9 127.8 215.8 128.7C228.4 135.2 247.2 130.1 250 114.8C251.5 107.4 248.6 99.3999 244.9 92.9999Z" fill="white"/>
<path d="M227.7 132C223.5 132 219.4 131.1 215.6 129.2C213.7 128.3 211.9 126.9 210.6 125.3C209.4 123.5 208.5 121.4 208 119.2C206.6 113.6 204.2 99.6002 212.4 90.8002C214.3 88.7002 217.7 87.1002 220.8 88.1002C221.5 86.8002 222.7 85.9002 224.1 85.5002C230.6 83.0002 239.2 83.1002 244.1 90.5002C244.6 91.2002 245 92.0002 245.5 92.8002C248.2 97.4002 252.4 106.4 250.8 114.9C249.6 121.3 245.4 126.8 239.4 129.5C235.7 131.1 231.7 132 227.7 132ZM218.9 89.0002C216.8 89.1002 214.8 90.0002 213.4 91.6002C205.6 100 207.9 113.4 209.3 118.8C209.7 120.8 210.5 122.7 211.6 124.4C212.8 125.9 214.4 127.1 216.2 128C223.3 131.5 231.7 131.6 238.8 128.2C244.4 125.6 248.4 120.5 249.5 114.5C251 106.4 246.9 97.7002 244.3 93.3002C243.9 92.5002 243.4 91.8002 242.9 91.1002C238.5 84.3002 230.5 84.3002 224.5 86.6002C223.4 87.0002 222 87.8002 221.8 89.0002C221.8 89.2002 221.7 89.4002 221.5 89.5002C221.3 89.6002 221.1 89.6002 220.9 89.5002C220.3 89.1002 219.6 89.0002 218.9 89.0002Z" fill="#231F20"/>
<path d="M223.6 132.7L224.6 145.2C224.6 145.2 228.3 148 236.3 145.3C244.3 142.6 244.7 140.4 244.7 140.4L242.4 117.3C242.3 116.3 238.5 113.1 237.7 112.4C235.5 110.5 233.1 108.9 230.6 107.7C229.4 107.2 228.2 106.6 227.1 105.9C224.3 103.9 222.6 100.6 222.8 97.2002C223.1 100 222.1 102.8 220.2 104.8C218.9 106.2 217.2 107.2 216 108.7C213.8 111.4 214.7 113.8 215 116.8C215.4 120.3 214.9 123.7 215.7 127.2C217 133.2 223.5 132.6 223.6 132.7Z" fill="white"/>
<path d="M229.8 147.1C227.9 147.2 225.9 146.7 224.3 145.7C224.2 145.6 224.1 145.4 224.1 145.3L223.1 133.4C218.8 133.3 215.9 131.1 215.1 127.4C214.7 125.4 214.6 123.3 214.6 121.2C214.6 119.8 214.5 118.3 214.4 116.9C214.3 116.4 214.3 116 214.2 115.6C213.8 113.2 213.5 110.8 215.5 108.3C216.2 107.5 217 106.7 217.9 106C218.5 105.5 219.2 105 219.7 104.4C221.2 102.8 222 100.8 222.2 98.7001C222.2 98.2001 222.2 97.7001 222.2 97.2001C222.2 96.9001 222.5 96.6001 222.8 96.6001C223.1 96.6001 223.4 96.8001 223.4 97.2001C223.4 97.7001 223.4 98.2001 223.4 98.7001C223.7 101.4 225.2 103.9 227.4 105.4C228.2 105.9 229.1 106.4 230 106.8L230.8 107.2C233.4 108.5 235.9 110.1 238.1 112L238.3 112.2C242.1 115.5 242.9 116.6 243 117.3L245.3 140.4V140.6C245.2 141 244.5 143.2 236.5 146C234.4 146.6 232.1 147.1 229.8 147.1ZM225.3 144.8C226.2 145.3 229.7 146.8 236.2 144.6C242.7 142.4 243.9 140.6 244.1 140.2C243.9 138.2 241.9 117.3 241.9 117.2C241.9 117.1 241.3 116.1 237.6 112.9L237.4 112.7C235.3 110.9 232.9 109.3 230.4 108.1L229.6 107.7C228.6 107.3 227.7 106.8 226.8 106.2C225.1 105 223.7 103.3 222.9 101.3C222.4 102.7 221.7 103.9 220.7 105C220.1 105.6 219.4 106.2 218.8 106.7C218 107.3 217.2 108 216.6 108.8C214.9 110.9 215.2 112.7 215.6 115.1C215.7 115.5 215.7 116 215.8 116.5C216 118 216 119.5 216 120.9C216 122.9 216.1 124.9 216.5 126.8C217.2 130.1 219.7 131.8 223.6 131.8C223.8 131.8 224 131.8 224.2 131.9C224.4 132 224.5 132.2 224.5 132.4L225.3 144.8Z" fill="#231F20"/>
<path d="M237.6 117.3C237.8 116.2 238.3 115.1 239.1 114.3C239.9 113.6 240.8 113 241.8 112.6C242.3 112.3 242.9 112.2 243.5 112.1C243.9 112.1 244.3 112.2 244.7 112.4C245.6 112.7 246.4 113.4 246.9 114.3C247.2 115 247.3 115.8 247.2 116.6C247.2 117.5 247 118.3 246.8 119.2C245.7 122.6 242 124.5 238.6 123.4H238.5" fill="white"/>
<path d="M240.7 124.3C239.9 124.3 239.2 124.2 238.4 123.9C238.1 123.8 237.9 123.4 238 123.1C238.1 122.8 238.5 122.6 238.8 122.7C241.9 123.7 245.2 122.1 246.3 119C246.5 118.2 246.7 117.4 246.7 116.6C246.8 115.9 246.7 115.2 246.4 114.6C246 113.9 245.3 113.3 244.5 113C244.2 112.8 243.8 112.8 243.5 112.7C243 112.7 242.5 112.9 242.1 113.1C241.2 113.5 240.3 114 239.5 114.7C238.8 115.4 238.3 116.4 238.1 117.4C238.1 117.7 237.7 118 237.4 117.9C237.1 117.9 236.8 117.5 236.9 117.2C237.1 115.9 237.7 114.7 238.6 113.8C239.5 113 240.4 112.4 241.5 112C242.1 111.7 242.8 111.5 243.5 111.5C244 111.5 244.5 111.6 244.9 111.9C246 112.3 246.9 113.1 247.4 114.1C247.7 114.9 247.9 115.8 247.8 116.7C247.8 117.6 247.6 118.5 247.4 119.4C246.5 122.3 243.8 124.4 240.7 124.3Z" fill="#231F20"/>
<path d="M225 112.1C225 112.1 221.1 118.8 222.2 119.8C223.3 120.8 226.1 119.9 226.1 119.9" fill="white"/>
<path d="M223.9 121C223.1 121.1 222.3 120.8 221.8 120.3C220.6 119.1 222.6 115 224.5 111.8C224.7 111.5 225.1 111.4 225.4 111.6C225.7 111.8 225.8 112.2 225.6 112.5C223.8 115.6 222.4 118.9 222.7 119.5C223.3 120.1 225.2 119.7 225.9 119.5C226.2 119.4 226.6 119.5 226.7 119.8C226.8 120.1 226.7 120.5 226.4 120.6H226.3C225.5 120.9 224.7 121 223.9 121Z" fill="#231F20"/>
<path d="M230.523 111.6C231.125 111.513 231.516 110.778 231.398 109.958C231.28 109.138 230.696 108.544 230.095 108.631C229.494 108.717 229.102 109.452 229.22 110.272C229.339 111.092 229.922 111.687 230.523 111.6Z" fill="#231F20"/>
<path d="M220.4 109.7C221 109.7 221.5 110.4 221.5 111.2C221.5 112 221 112.7 220.4 112.7C219.8 112.7 219.3 112 219.3 111.2C219.3 110.4 219.8 109.7 220.4 109.7Z" fill="#231F20"/>
<path d="M223.6 132.7C223.6 132.7 231.5 133.9 235.9 130.9C235.9 130.9 231.7 141.8 224.3 141.3L223.6 132.7Z" fill="#231F20"/>
<path d="M224.8 141.9C224.6 141.9 224.4 141.9 224.3 141.9C224 141.9 223.7 141.6 223.7 141.3L223 132.7C223 132.5 223.1 132.3 223.2 132.2C223.3 132.1 223.5 132 223.7 132C223.8 132 231.4 133.1 235.6 130.3C235.8 130.1 236.1 130.1 236.4 130.3C236.6 130.5 236.7 130.8 236.6 131C236.4 131.5 232.3 141.9 224.8 141.9ZM224.3 133.4L224.9 140.6C229.7 140.5 233.1 135.1 234.5 132.3C230.9 133.8 226.2 133.6 224.3 133.4Z" fill="#231F20"/>
<path d="M219.1 145.2L217.9 150.9L249.6 145.8L247.1 139.5L219.1 145.2Z" fill="white"/>
<path d="M217.9 151.6C217.7 151.6 217.6 151.5 217.4 151.4C217.3 151.2 217.2 151 217.2 150.8L218.4 145.1C218.5 144.9 218.6 144.7 218.9 144.6L246.9 138.9C247.2 138.8 247.5 139 247.6 139.3L250.1 145.6C250.2 145.8 250.2 146 250.1 146.2C250 146.4 249.8 146.5 249.6 146.5L217.9 151.6ZM219.6 145.8L218.7 150.2L248.7 145.3L246.7 140.3L219.6 145.8Z" fill="#231F20"/>
<path d="M223.2 129.8C223 129.8 222.7 129.8 222.5 129.7C219.7 128.6 220.9 123.6 221.1 123C221.2 122.7 221.4 122.5 221.7 122.5C226.9 122.7 227 122.9 227.2 123.3C227.4 123.9 226.2 127.7 224.8 129C224.4 129.5 223.8 129.7 223.2 129.8ZM222.2 123.8C221.9 125.2 221.7 128 223 128.5C223.2 128.6 223.4 128.5 223.6 128.4C224.7 127.7 225.6 125.2 225.9 124C225.1 123.9 223.6 123.8 222.2 123.8Z" fill="#231F20"/>
<path d="M260.8 173.6C260.8 173.6 248.2 192.3 245.7 196.1C243.2 199.9 193 174 193 174L185.3 191C185.3 191 256.8 238.7 260.3 230.4C263.8 222.1 271.2 188.5 271.2 188.5" fill="#68E1FD"/>
<path d="M240.6 195.6C232.6 195.6 201.4 180.1 197.7 178.2C197.4 178 197.3 177.7 197.4 177.3C197.5 176.9 197.9 176.9 198.3 177C213.5 184.6 237.5 195.5 241.3 194.2C245.6 192.7 255 172.8 258.3 165.3C258.5 165 258.9 164.9 259.2 165C259.5 165.1 259.6 165.5 259.5 165.8C258.3 168.6 247.4 193.5 241.8 195.4C241.4 195.5 241 195.6 240.6 195.6Z" fill="#231F20"/>
<path d="M247.4 224.8C230.9 224.8 188.2 193.8 186.2 192.3C185.9 192.1 185.9 191.7 186.1 191.4C186.3 191.1 186.7 191.1 187 191.3C187.5 191.7 237.9 228.3 250.3 223C254.5 221.2 269 198.3 274.2 189.6C274.4 189.3 274.8 189.2 275.1 189.4C275.4 189.6 275.5 190 275.3 190.3C274.5 191.6 256.3 221.9 250.8 224.2C249.6 224.6 248.5 224.8 247.4 224.8Z" fill="#231F20"/>
<path d="M149.2 187.6C148.9 187.6 148.7 187.4 148.6 187.2C146.6 182.4 148.6 179.2 148.6 179C148.8 178.7 149.2 178.7 149.5 178.9C149.7 179.1 149.8 179.4 149.7 179.7C149.6 179.8 148 182.5 149.8 186.7C149.9 187 149.8 187.4 149.5 187.5C149.3 187.6 149.2 187.6 149.2 187.6Z" fill="#231F20"/>
<path d="M63.2 148.3H33.2C19.8 148.3 8.80005 159.2 8.80005 172.6C8.80005 174.1 8.90005 175.5 9.20005 177L30.7 296.4H110.2L87.2 168.3C85.1 156.7 75 148.3 63.2 148.3Z" fill="white"/>
<path d="M110.2 297H30.7001C30.4001 297 30.1001 296.8 30.1001 296.5L8.50007 177.1C6.10007 163.5 15.1001 150.5 28.7001 148.1C30.2001 147.8 31.6001 147.7 33.1001 147.7H63.1001C75.2001 147.7 85.6001 156.4 87.7001 168.3L110.7 296.4C110.7 296.6 110.7 296.8 110.6 296.9C110.5 297 110.3 297.1 110.2 297ZM31.2001 295.8H109.4L86.5001 168.5C84.5001 157.2 74.6001 149 63.2001 149H33.2001C20.1001 149 9.50007 159.6 9.50007 172.7C9.50007 174.1 9.60007 175.5 9.90007 176.9L31.2001 295.8Z" fill="#231F20"/>
<path d="M121.2 223.9C121.2 223.9 123.6 257.1 126 257.9C128.4 258.7 152.8 261.1 152.8 261.1L150.2 273.9C150.2 273.9 103.3 276.3 100.9 267.7C98.4999 259.1 95.7 217.6 95.7 217.6L121.2 223.9Z" fill="white"/>
<path d="M135.8 274.9C121.5 274.9 101.8 273.8 100.2 267.9C97.8 259.4 95.1 219.3 95 217.6C95 217.4 95.1 217.2 95.2 217.1C95.4 217 95.6 216.9 95.8 217L121.4 223.3C121.7 223.4 121.9 223.6 121.9 223.9C123 239.5 125 256.3 126.3 257.4C128.1 258 146.1 259.9 152.9 260.5C153.1 260.5 153.2 260.6 153.3 260.8C153.4 260.9 153.4 261.1 153.4 261.3L150.8 274.1C150.7 274.4 150.5 274.6 150.2 274.6C148.5 274.6 142.8 274.9 135.8 274.9ZM96.3 218.4C96.7 224.4 99.2 259.8 101.4 267.5C103.2 274.1 136.3 273.9 149.6 273.3L152 261.7C147.9 261.3 128 259.3 125.8 258.5C123.4 257.7 121.5 237 120.6 224.4L96.3 218.4Z" fill="#231F20"/>
<path d="M99.1 175.5C99.5 176.3 114.1 183.5 120.7 201.5C127.3 219.5 127.6 229.4 127.6 229.4H90.2L99.1 175.5Z" fill="#68E1FD"/>
<path d="M67.3001 172.9C67.3001 172.9 53.6001 176.8 50.8001 183.2C48.0001 189.6 53.7001 275.6 53.7001 275.6L118 277.6C118 277.6 108 236.5 111.2 225.7C114.4 214.9 111.6 192.9 110.4 187C109.2 181.1 97.2001 175.4 93.2001 173C89.2001 170.6 67.3001 172.8 67.3001 172.9Z" fill="#68E1FD"/>
<path d="M88.1999 277.2C87.7999 277.1 87.4999 276.8 87.5999 276.5C96.0999 224 91.6999 186.7 91.6999 186.3C91.6999 186 91.9 185.6 92.3 185.6C92.6 185.5 92.9999 185.8 92.9999 186.1C92.9999 186.5 97.5 223.9 88.9 276.7C88.8 277 88.5999 277.2 88.1999 277.2Z" fill="#231F20"/>
<path d="M71.3 151.3C71.2 151 71 150.6 70.8 150.1C70.2 148.5 68.9 147.5 68.1 146C66.7 143.2 67.2 140.5 67 137.4C66.8 133.6 67.5 129.8 69.2 126.4C69.8 124.9 70.9 123.6 72.2 122.7C73.6 121.8 75.4 122 76.7 123C76.1 121.4 76.4 119.6 77.6 118.4C78.8 117.2 80.2 116.3 81.8 115.8C84.2 114.7 86.8 114.1 89.5 114C92.2 113.9 94.8 114.9 96.7 116.8C98.5 118.7 99.2 121.3 100.6 123.5C102 125.7 104.4 127.7 106.9 127C108.9 126.4 110 124.4 110.8 122.4C111.8 125.9 111 129.6 108.7 132.4C110.4 131.8 112 130.7 113.2 129.4C113.2 131.5 112.4 133.6 110.9 135.1C109.2 136.7 107.2 137.9 105 138.7C103.8 139.2 102.7 139.4 102.2 140.5C101.7 141.6 102.3 143.3 101.8 144.6C101 146.7 99.8 148.7 98.3 150.3C95.9 152.8 92.7 154.4 89.2 155C85.8 155.5 82.3 155.4 78.9 154.7C77.1 154.4 75.3 153.9 73.8 152.9C72 152 71.8 152.4 71.3 151.3Z" fill="white"/>
<path d="M85.0002 156.1C82.9002 156.1 80.8002 155.9 78.7002 155.5C76.8002 155.2 75.0002 154.6 73.3002 153.7C72.9002 153.4 72.5002 153.2 72.1002 153C71.5002 152.8 71.0002 152.3 70.7002 151.7C70.5002 151.4 70.4002 151 70.2002 150.4C69.9002 149.6 69.4002 148.9 68.9002 148.3C68.4002 147.7 68.0002 147.1 67.6002 146.4C66.7002 144.3 66.3002 142.1 66.5002 139.8C66.5002 139.1 66.5002 138.3 66.5002 137.6C66.3002 133.7 67.0002 129.8 68.7002 126.3C69.4002 124.7 70.5002 123.3 72.0002 122.3C73.2002 121.6 74.5002 121.5 75.8002 121.8C75.8002 120.4 76.3002 119.1 77.2002 118.1C78.4002 116.8 80.0002 115.9 81.6002 115.3C84.1002 114.2 86.8002 113.6 89.5002 113.4C92.3002 113.3 95.1002 114.4 97.1002 116.4C98.2002 117.7 99.2002 119.2 99.8002 120.8C100.2 121.6 100.6 122.4 101 123.2C102.2 125.2 104.4 127 106.5 126.4C107.9 126 109 124.7 110 122.2C110.1 121.9 110.5 121.7 110.8 121.8C111 121.9 111.2 122 111.2 122.2C112 125.1 111.7 128.1 110.3 130.8C111.1 130.3 111.8 129.7 112.4 129C112.6 128.8 112.9 128.7 113.1 128.8C113.4 128.9 113.5 129.1 113.5 129.4C113.5 131.7 112.6 133.9 111 135.6C109.2 137.2 107.2 138.5 104.9 139.3C104.7 139.4 104.4 139.5 104.2 139.6C103.3 140 102.7 140.2 102.5 140.8C102.3 141.4 102.3 142 102.4 142.5C102.5 143.3 102.4 144.1 102.2 144.8C101.4 147 100.2 149 98.6002 150.7C96.1002 153.3 92.8002 155 89.2002 155.6C87.9002 155.9 86.4002 156.1 85.0002 156.1ZM71.8002 151.1C72.0002 151.6 72.1002 151.6 72.6002 151.8C73.1002 152 73.5002 152.3 74.0002 152.5C75.5002 153.4 77.2002 153.9 78.9002 154.2C82.2002 154.9 85.6002 155 89.0002 154.5C92.3002 154 95.4002 152.4 97.7002 150C99.2002 148.4 100.3 146.5 101.1 144.5C101.3 143.9 101.3 143.3 101.2 142.7C101.1 141.9 101.2 141.1 101.4 140.4C101.9 139.4 102.8 138.7 103.9 138.5L104.6 138.2C106.7 137.5 108.6 136.3 110.2 134.8C111.1 133.8 111.8 132.6 112.1 131.2C111.1 132 109.9 132.7 108.7 133.1C108.4 133.2 108 133 107.9 132.7C107.8 132.5 107.9 132.3 108 132.1C109.7 130 110.6 127.3 110.4 124.6C109.7 126.1 108.5 127.2 106.9 127.7C104.1 128.5 101.3 126.3 99.9002 123.9C99.4002 123.1 99.0002 122.2 98.6002 121.4C98.0002 119.9 97.2002 118.5 96.1002 117.3C94.3002 115.6 91.9002 114.7 89.4002 114.7C86.8002 114.8 84.3002 115.4 82.0002 116.5C80.5002 117 79.1002 117.9 78.0002 119C77.0002 120 76.7002 121.6 77.2002 122.9C77.3002 123.2 77.3002 123.5 77.0002 123.7C76.7002 123.9 76.4002 123.8 76.2002 123.6C75.2002 122.7 73.7002 122.6 72.5002 123.4C71.3002 124.2 70.3002 125.4 69.7002 126.8C68.1002 130.1 67.4002 133.8 67.6002 137.5C67.6002 138.3 67.6002 139.1 67.6002 139.8C67.4002 141.9 67.8002 143.9 68.6002 145.8C68.9002 146.4 69.3002 147 69.7002 147.5C70.3002 148.2 70.8002 149.1 71.2002 150C71.5002 150.4 71.6002 150.8 71.8002 151.1Z" fill="#231F20"/>
<path d="M97.1001 167.8L98.4 176C98.4 176 97.1 188 88.1 185.9C79.1 183.8 75.5 175.7 75.5 175.7L74.3 154C74.3 154 81 150.4 78.9 135.9C86.3 139 94.4 140 102.4 138.9C102.4 138.9 105.6 153.8 104.6 160.8C104.2 164.6 101 167.6 97.1001 167.8Z" fill="white"/>
<path d="M90.1001 186.8C89.4001 186.8 88.6001 186.7 87.9001 186.5C82.2001 185.1 77.4001 181.2 74.8001 175.9C74.8001 175.8 74.8001 175.7 74.8001 175.7L73.6001 153.9C73.6001 153.6 73.7001 153.4 73.9001 153.3C74.0001 153.3 80.1001 149.6 78.1001 135.8C78.1001 135.6 78.2001 135.3 78.4001 135.2C78.6001 135.1 78.9001 135 79.1001 135.1C86.4001 138.1 94.4001 139.2 102.2 138.1C102.5 138.1 102.9 138.3 102.9 138.6C103 139.2 106.1 153.7 105.1 160.8C104.8 164.7 101.7 167.8 97.8001 168.3L99.0001 175.8V176C99.0001 176.3 98.2001 182.6 94.3001 185.4C93.1001 186.4 91.6001 186.9 90.1001 186.8ZM76.1001 175.5C76.5001 176.4 80.2001 183.4 88.2001 185.3C90.0001 185.8 92.0001 185.5 93.6001 184.4C96.9001 182.1 97.7001 176.8 97.8001 176L96.6001 167.9C96.6001 167.7 96.6001 167.5 96.7001 167.4C96.8001 167.3 97.0001 167.2 97.2001 167.2C100.8 167.1 103.7 164.3 103.9 160.7C104.8 154.7 102.4 142.4 101.8 139.6C94.3001 140.5 86.7001 139.6 79.6001 136.9C81.0001 149 76.3001 153.3 74.9001 154.3L76.1001 175.5Z" fill="#231F20"/>
<path d="M92.5 147.6C92.5 147.6 96.8 155.5 95.5 156.7C94.2 157.9 91 156.7 91 156.7" fill="white"/>
<path d="M93.7 157.8C92.7 157.8 91.7 157.6 90.8 157.3C90.5 157.2 90.3 156.8 90.4 156.5C90.5 156.2 90.9 156 91.2 156.1C92.3 156.5 94.4 156.9 95.1 156.2C95.5 155.6 94 151.7 92 147.9C91.8 147.6 91.9 147.2 92.2 147C92.5 146.8 92.9 146.9 93.1 147.2C94.8 150.3 97.4 155.7 96 157C95.3 157.6 94.5 157.9 93.7 157.8Z" fill="#231F20"/>
<path d="M88.3836 148.192C88.8802 148.172 89.2451 147.26 89.1986 146.156C89.1522 145.053 88.712 144.175 88.2154 144.196C87.7187 144.217 87.3538 145.129 87.4003 146.232C87.4467 147.336 87.8869 148.213 88.3836 148.192Z" fill="#231F20"/>
<path d="M99.9834 148.193C100.48 148.172 100.845 147.26 100.798 146.157C100.752 145.053 100.312 144.176 99.8152 144.197C99.3186 144.217 98.9537 145.129 99.0001 146.233C99.0466 147.336 99.4868 148.214 99.9834 148.193Z" fill="#231F20"/>
<path d="M80.1002 150.2C79.3002 148.8 78.2002 147.6 77.0002 146.7C76.3002 146.1 75.5002 145.8 74.7002 145.7C74.0002 145.7 73.3002 145.9 72.7002 146.3C70.9002 147.4 69.6002 149.1 69.2002 151.2C69.0002 152.1 69.0002 153.1 69.3002 154C69.8002 155.4 70.8002 156.6 72.1002 157.4C73.4002 158.1 74.8002 158.7 76.2002 159.2" fill="white"/>
<path d="M76.2001 159.8H76.0001C74.5001 159.4 73.1001 158.7 71.8001 157.9C70.4001 157.1 69.3001 155.7 68.7001 154.2C68.4001 153.2 68.4001 152.1 68.6001 151.1C69.1001 148.9 70.4001 146.9 72.4001 145.8C73.1001 145.4 73.9001 145.1 74.7001 145.1C75.7001 145.2 76.6001 145.6 77.4001 146.3C78.7001 147.3 79.8001 148.6 80.7001 150C80.9001 150.3 80.7001 150.7 80.4001 150.9C80.1001 151 79.8001 150.9 79.6001 150.7C78.8001 149.4 77.8001 148.3 76.7001 147.4C76.2001 146.9 75.5001 146.6 74.8001 146.5C74.2001 146.5 73.7001 146.7 73.2001 147C71.6001 148 70.4001 149.6 70.0001 151.4C69.8001 152.2 69.9001 153.1 70.1001 153.9C70.6001 155.2 71.5001 156.2 72.6001 156.9C73.9001 157.6 75.2001 158.2 76.6001 158.6C76.9001 158.7 77.1001 159.1 77.0001 159.4C76.8001 159.6 76.6001 159.8 76.2001 159.8Z" fill="#231F20"/>
<path d="M97.1002 167.8C91.9002 168.6 86.6001 167.7 81.9001 165.3C81.9001 165.3 89.6001 177.2 98.3001 175.5L97.1002 167.8Z" fill="#231F20"/>
<path d="M96.6 176.3C88.4 176.3 81.7 166.1 81.4 165.6C81.2 165.4 81.3 165 81.5 164.8C81.7 164.6 82 164.5 82.3 164.7C86.8 167 92 167.9 97 167.2C97.2 167.2 97.3 167.2 97.5 167.3C97.6 167.4 97.7 167.6 97.8 167.7L99 175.4C99 175.7 98.8 176.1 98.5 176.1C97.8 176.3 97.2 176.4 96.6 176.3ZM84 166.9C86.5 170 91.9 175.7 97.7 175L96.7 168.5C92.4 169.1 88 168.5 84 166.9Z" fill="#231F20"/>
<path d="M85.7001 153.5C81.7001 153.5 78.4001 150.2 78.4001 146.2C78.4001 142.2 81.7001 138.9 85.7001 138.9C89.7001 138.9 93.0001 142.2 93.0001 146.2C93.0001 150.2 89.7001 153.5 85.7001 153.5ZM85.7001 140.2C82.4001 140.2 79.7001 142.9 79.7001 146.2C79.7001 149.5 82.4001 152.2 85.7001 152.2C89.0001 152.2 91.7001 149.5 91.7001 146.2C91.7001 142.9 89.0001 140.2 85.7001 140.2Z" fill="#231F20"/>
<path d="M100 153.5C96 153.5 92.7 150.2 92.7 146.2C92.7 142.2 96 138.9 100 138.9C104 138.9 107.3 142.2 107.3 146.2C107.3 150.2 104 153.5 100 153.5ZM100 140.2C96.7 140.2 94 142.9 94 146.2C94 149.5 96.7 152.2 100 152.2C103.3 152.2 106 149.5 106 146.2C106 142.9 103.3 140.2 100 140.2Z" fill="#231F20"/>
<path d="M93.4 161L89.5 159.1C89.5 159.1 88.5 162.3 90.1 162.9C91.7 163.5 93.4 161 93.4 161Z" fill="#231F20"/>
<path d="M90.7001 163.7C90.4001 163.7 90.2001 163.6 89.9001 163.5C87.8001 162.6 88.8001 159.3 89.0001 158.9C89.1001 158.7 89.2001 158.6 89.3001 158.5C89.5001 158.4 89.7001 158.4 89.8001 158.5L93.7001 160.4C93.9001 160.5 94.0001 160.6 94.0001 160.8C94.0001 161 94.0001 161.2 93.9001 161.3C93.7001 161.6 92.3001 163.7 90.7001 163.7ZM89.9001 160C89.7001 160.9 89.7001 162.1 90.3001 162.3C90.9001 162.5 91.8001 161.8 92.3001 161.2L89.9001 160Z" fill="#231F20"/>
<path d="M180.8 270.3H94V275.8H180.8V270.3Z" fill="white"/>
<path d="M180.9 276.4H94.0002C93.7002 276.4 93.4001 276.1 93.4001 275.8V270.3C93.4001 270 93.7002 269.7 94.0002 269.7H180.9C181.2 269.7 181.5 270 181.5 270.3V275.8C181.5 276.1 181.2 276.4 180.9 276.4ZM94.7001 275.2H180.3V271H94.7001V275.2Z" fill="#231F20"/>
<path d="M42.5 223.1C42.5 223.1 36.5 270 39.8 273.9C43.1 277.8 102.6 269.2 108.9 268.9C115.2 268.6 127.6 272.4 127.3 265.8C127 259.2 111 258.7 106.8 260.8C102.6 262.9 61.7 259.5 61.7 259.5L62.9 223L42.5 223.1Z" fill="white"/>
<path d="M46.8001 275.6C42.5001 275.6 40.0001 275.2 39.3001 274.4C35.9001 270.4 41.2001 227.9 41.9001 223.1C41.9001 222.8 42.2001 222.5 42.5001 222.6H62.9001C63.1001 222.6 63.2001 222.7 63.4001 222.8C63.5001 222.9 63.6001 223.1 63.6001 223.3L62.3001 259C74.1001 260 103.2 261.9 106.5 260.3C109.8 258.7 119.8 258.5 124.9 261.5C126.8 262.6 127.9 264.1 127.9 265.9C128 267 127.6 268.2 126.8 269C124.6 271 119.7 270.5 115 270C113 269.7 110.9 269.6 108.9 269.6C107.4 269.7 102.4 270.3 96.2001 271C72.8001 273.8 55.9001 275.6 46.8001 275.6ZM43.0001 223.8C40.6001 242.6 38.0001 270.9 40.2001 273.6C42.4001 276.3 80.0001 271.7 96.0001 269.8C102.5 269 107.2 268.4 108.8 268.4C110.9 268.4 113 268.5 115.1 268.8C119.3 269.2 124.1 269.8 125.9 268.1C126.4 267.5 126.7 266.8 126.6 266C126.4 264.5 125.5 263.3 124.2 262.7C119.7 260.1 110.1 260.1 107.1 261.6C102.9 263.7 65.8001 260.7 61.6001 260.4C61.3001 260.4 61.0001 260.1 61.0001 259.8L62.2001 224L43.0001 223.8Z" fill="#231F20"/>
<path d="M139.6 219.8H193.1L180.6 270.4H127.1L139.6 219.8Z" fill="white"/>
<path d="M180.6 271.1H127.1C126.9 271.1 126.7 271 126.6 270.9C126.5 270.7 126.4 270.5 126.5 270.4L139 219.8C139.1 219.5 139.3 219.3 139.6 219.3H193.1C193.3 219.3 193.5 219.4 193.6 219.5C193.7 219.7 193.8 219.9 193.7 220L181.1 270.6C181.1 270.9 180.8 271.1 180.6 271.1ZM127.9 269.8H180.1L192.4 220.4H140.2L127.9 269.8Z" fill="#231F20"/>
<path d="M57.8 179.2C57.5 179.4 52.4 180.8 52.1 181.1C47.2 186.4 44.5 190.1 42.5 196.9C39.9 206.4 38.4 216.1 38 226C38 226 58.1 233.2 66.8 229C66.8 229 71.9 193 66.8 183.2C64.9 179.7 62.1 176.5 57.8 179.2Z" fill="#68E1FD"/>
<path d="M67.4 224.5H67.3C67 224.4 66.7 224.1 66.8 223.8C66.9 223.4 74.3 188.8 65.1 181.7C64.9 181.4 64.9 181 65.1 180.8C65.3 180.6 65.6 180.6 65.8 180.7C75.6 188.2 68.3 222.6 68 224.1C67.9 224.3 67.7 224.5 67.4 224.5Z" fill="#231F20"/>
<path d="M110.6 230H110.5C110.2 229.9 109.9 229.6 110 229.3C110.1 229 114.7 201.8 110.1 191.3C110 191 110.1 190.6 110.4 190.5C110.7 190.4 111.1 190.5 111.2 190.8C116 201.6 111.4 228.4 111.2 229.5C111.1 229.8 110.9 230 110.6 230Z" fill="#231F20"/>
<path d="M346.2 275.8H1.2002V283.8H346.2V275.8Z" fill="white"/>
<path d="M346.2 284.5H1.2001C0.9001 284.5 0.600098 284.2 0.600098 283.9V275.8C0.600098 275.5 0.9001 275.2 1.2001 275.2H346.2C346.5 275.2 346.8 275.5 346.8 275.8V283.8C346.8 284.2 346.5 284.5 346.2 284.5ZM1.8001 283.2H345.6V276.4H1.8001V283.2Z" fill="#231F20"/>
<path d="M338.6 283.8H8.80005V296.5H338.6V283.8Z" fill="white"/>
<path d="M338.6 297.1H8.80019C8.50019 297.1 8.2002 296.8 8.2002 296.5V283.8C8.2002 283.5 8.50019 283.2 8.80019 283.2H338.6C338.9 283.2 339.2 283.5 339.2 283.8V296.5C339.2 296.9 338.9 297.1 338.6 297.1ZM9.4002 295.9H338V284.5H9.4002V295.9Z" fill="#231F20"/>
<path d="M167.7 72.6997C167.7 89.3997 156.6 104 140.5 108.4C140.1 122.8 127.2 132.9 126.4 133.5C133.7 124.7 134.4 116 133.4 109.6C132.5 109.7 131.6 109.7 130.8 109.7H102.3C81.9 109.7 65.3 93.0997 65.3 72.6997C65.3 52.2997 81.9 35.6997 102.3 35.6997H130.8C151.1 35.6997 167.7 52.2997 167.7 72.6997Z" fill="white"/>
<path d="M126.4 134.1C126.2 134.1 126.1 134 125.9 133.9C125.7 133.7 125.7 133.3 125.9 133.1C133 124.5 133.6 116.1 132.8 110.3C132.1 110.3 131.4 110.4 130.7 110.4H102.2C81.4 110.4 64.5 93.6001 64.5 72.8001C64.5 52.0001 81.3 35.1001 102.1 35.1001H130.6C151.4 35.1001 168.3 52.0001 168.3 72.8001C168.3 89.6001 157.2 104.3 141.1 109C140.4 123.6 127.3 133.7 126.8 134.1C126.7 134.1 126.5 134.1 126.4 134.1ZM133.4 108.9C133.7 108.9 134 109.1 134 109.4C135.1 116.1 133.8 123.1 130.3 128.9C134.3 124.7 139.6 117.3 139.9 108.3C139.9 108 140.1 107.8 140.4 107.7C159.8 102.4 171.2 82.4001 165.9 63.0001C161.6 47.2001 147.2 36.2001 130.8 36.2001H102.3C82.2 36.2001 65.9 52.5001 65.9 72.6001C65.9 92.7001 82.2 109 102.3 109H130.8C131.6 109.1 132.4 109.1 133.4 108.9Z" fill="#231F20"/>
<path d="M292.5 82C292.5 94.8 301.1 106.1 313.5 109.5C313.8 120.5 323.7 128.3 324.4 128.8C318.8 122 318.3 115.3 319 110.4C319.7 110.4 320.4 110.5 321 110.5H342.9C358.6 110.5 371.4 97.8 371.4 82C371.4 66.2 358.7 53.5 342.9 53.5H321C305.3 53.5 292.5 66.2 292.5 82Z" fill="white"/>
<path d="M324.3 129.3C324.2 129.3 324 129.3 323.9 129.2C323.5 128.9 313.4 121.1 312.8 109.9C297.4 105.3 288.6 89.0997 293.2 73.6997C296.9 61.3997 308.1 52.9997 320.9 52.8997H342.8C358.9 52.5997 372.1 65.3997 372.4 81.4997C372.7 97.5997 359.9 110.8 343.8 111.1C343.4 111.1 343.1 111.1 342.7 111.1H321C320.5 111.1 320 111.1 319.5 111.1C318.9 115.5 319.5 121.9 324.8 128.4C325 128.6 325 129 324.8 129.2C324.7 129.3 324.5 129.4 324.3 129.4V129.3ZM321 54.0997C305.6 54.0997 293.2 66.5997 293.2 81.9997C293.2 94.4997 301.6 105.5 313.6 108.8C313.9 108.9 314.1 109.1 314.1 109.4C314.3 115.7 317.7 120.9 320.6 124.2C318.4 119.9 317.6 115 318.3 110.2C318.4 109.9 318.7 109.6 319 109.7C319.7 109.8 320.3 109.8 321 109.8H342.9C358.3 110.1 371 97.8997 371.3 82.4997C371.6 67.0997 359.4 54.3997 344 54.0997C343.6 54.0997 343.3 54.0997 342.9 54.0997H321Z" fill="#231F20"/>
<path d="M209.6 1.5H163.4C142.5 1.5 125.5 18.4 125.5 39.4C125.5 60.3 142.4 77.3 163.4 77.3H174.4C174.1 86.2 182 100.5 200.4 123.1C200.4 123.1 180.2 97.9 183.6 77.3H209.6C230.5 77.3 247.5 60.4 247.5 39.4C247.6 18.4 230.6 1.5 209.6 1.5C209.7 1.5 209.7 1.5 209.6 1.5Z" fill="white"/>
<path d="M200.4 123.7C200.2 123.7 200 123.6 199.9 123.5C182.2 101.7 173.9 87.0999 173.8 77.8999H163.5C142.2 77.8999 125 60.5999 125 39.3999C125 18.1999 142.3 0.899902 163.5 0.899902H209.7C231 0.899902 248.2 18.1999 248.2 39.3999C248.2 60.5999 230.9 77.8999 209.7 77.8999H184.3C181.4 97.7999 200.7 122.3 201 122.7C201.2 123 201.2 123.4 200.9 123.6C200.7 123.6 200.6 123.7 200.4 123.7ZM163.5 2.0999C142.9 2.0999 126.2 18.7999 126.2 39.3999C126.2 59.9999 142.9 76.6999 163.5 76.6999H174.5C174.7 76.6999 174.8 76.7999 175 76.8999C175.1 76.9999 175.2 77.1999 175.2 77.3999C175 84.4999 180.2 95.0999 191.4 110.4C191 109.7 190.6 109 190.3 108.3C186 100.1 181.3 88.0999 183.2 77.2999C183.2 76.9999 183.5 76.7999 183.8 76.7999H209.8C230.4 76.7999 247.1 60.0999 247.1 39.4999C247.1 18.8999 230.4 2.1999 209.8 2.1999L163.5 2.0999Z" fill="#231F20"/>
<path d="M374.5 148.3H404.5C417.9 148.3 428.9 159.2 428.9 172.6C428.9 174.1 428.8 175.5 428.5 177L407 296.4H327.4L350.4 168.3C352.6 156.7 362.7 148.3 374.5 148.3Z" fill="white"/>
<path d="M407 297H327.4C327.2 297 327 296.9 326.9 296.8C326.8 296.7 326.7 296.5 326.8 296.3L349.8 168.2C351.9 156.3 362.3 147.6 374.4 147.6H404.4C418.2 147.6 429.4 158.8 429.4 172.6C429.4 174.1 429.3 175.6 429 177L407.5 296.4C407.5 296.8 407.2 297 407 297ZM328.2 295.8H406.4L427.8 176.9C430.1 164 421.5 151.7 408.6 149.3C407.2 149.1 405.8 148.9 404.4 148.9H374.4C362.9 148.9 353.1 157.1 351 168.4L328.2 295.8Z" fill="#231F20"/>
<path d="M387.1 279.2C387.1 279.2 385.4 291.4 379.6 296.4H303.2C303.2 296.4 326.4 273.6 334.4 270.3C342.4 267 387.1 279.2 387.1 279.2Z" fill="#231F20"/>
<path d="M379.6 297H303.2C302.9 297 302.7 296.8 302.6 296.6C302.5 296.4 302.6 296.1 302.7 295.9C303.7 295 326.1 272.9 334.2 269.7C342.3 266.5 385.4 278 387.3 278.5C387.6 278.6 387.8 278.9 387.8 279.2C387.7 279.7 386 291.7 380.1 296.8C379.9 297 379.8 297 379.6 297ZM304.8 295.8H379.4C384.1 291.5 386 282 386.4 279.7C381.3 278.3 342 268 334.7 271C327.9 273.7 309.5 291.2 304.8 295.8Z" fill="#231F20"/>
<path d="M281.9 259.1C281.8 259.2 274.6 258.7 270.4 261C266.2 263.3 259.3 267.2 261.7 269C264.1 270.8 284.8 269.3 286.5 268C288.2 266.7 281.9 259.1 281.9 259.1Z" fill="white"/>
<path d="M269.1 270.5C265.3 270.5 262.2 270.2 261.3 269.5C260.8 269.1 260.5 268.5 260.6 267.9C260.8 266.1 263.7 263.8 270.1 260.4C273.7 258.5 279.1 258.5 281.2 258.5H281.8C281.9 258.5 281.9 258.5 282 258.5C282.2 258.5 282.4 258.6 282.5 258.7C283.4 259.8 287.7 265.3 287.5 267.6C287.5 268 287.3 268.3 287 268.6C285.6 269.6 276.2 270.6 269.1 270.5ZM281.6 259.7H281.1C279.1 259.7 273.9 259.7 270.6 261.5C263.1 265.5 261.8 267.3 261.8 268C261.8 268.2 261.9 268.4 262 268.5C262.7 269.1 266.8 269.5 274.2 269C281 268.6 285.5 267.8 286 267.5C286.5 267.2 284.7 263.6 281.6 259.7Z" fill="#231F20"/>
<path d="M338.8 178.3C338.8 178.3 328.9 182.6 313.8 240.4C312.6 245.1 275.9 259 275.9 259L286.1 266.8C286.1 266.8 332.1 272.3 342.7 260.3C353.3 248.3 338.8 178.3 338.8 178.3Z" fill="#68E1FD"/>
<path d="M338.8 178.3C338.8 178.3 333.4 199 337.5 221.2C341.6 243.4 327.4 273.1 327.4 273.1C327.4 273.1 360.3 293.9 389.8 277.9C389.8 277.9 391.5 200.4 380.8 186.7C370.1 173 354.9 161.9 338.8 178.3Z" fill="#68E1FD"/>
<path d="M343.4 176.8L346.2 223.1L362.7 173.9L343.4 176.8Z" fill="#231F20"/>
<path d="M346.2 223.8C345.8 223.8 345.6 223.5 345.6 223.2L342.8 176.9C342.8 176.6 343 176.3 343.3 176.2L362.6 173.3C362.8 173.3 363 173.4 363.2 173.5C363.3 173.7 363.4 173.9 363.3 174.1L346.8 223.3C346.7 223.6 346.5 223.8 346.2 223.8ZM344.1 177.4L346.7 219.9L361.9 174.8L344.1 177.4Z" fill="#231F20"/>
<path d="M310.5 258.7C310.5 258.7 296.3 255 293.2 256.2C290.1 257.4 279 261.8 280 266.1C281 270.4 280.5 269.8 288.2 269.5C295.9 269.2 312.2 269.2 312.2 269.2L310.5 258.7Z" fill="white"/>
<path d="M283.2 270.3C280.5 270.3 280.1 269.7 279.5 266.8L279.4 266.3C278.6 263.1 283.2 259.5 293 255.7C296.1 254.5 309.2 257.8 310.7 258.2C310.9 258.3 311.1 258.5 311.2 258.7L312.9 269.1C312.9 269.3 312.9 269.5 312.8 269.6C312.7 269.7 312.5 269.8 312.3 269.8C312.1 269.8 296 269.8 288.4 270.1L285.9 270.2C284.8 270.2 283.9 270.3 283.2 270.3ZM295 256.6C294.5 256.6 293.9 256.6 293.4 256.8C284.7 260.2 280 263.5 280.5 265.9L280.6 266.4C281 268.2 282.7 269 285.6 268.8L288.1 268.7C294.8 268.4 308.1 268.4 311.3 268.4L309.8 259.1C305.2 258 298.4 256.6 295 256.6Z" fill="#231F20"/>
<path d="M364 188.9C364 188.9 368.4 241.5 364 242.5C359.6 243.5 305.8 255.8 305.8 255.8L309.2 270.3C309.2 270.3 348.9 276.4 372.4 266.4C395.9 256.4 396.9 199.3 384.8 185.3C372.7 171.3 365 181.6 364 188.9Z" fill="#68E1FD"/>
<path d="M307.6 270.3H244.2V275.8H307.6V270.3Z" fill="white"/>
<path d="M307.6 276.4H244.2C243.9 276.4 243.6 276.1 243.6 275.8V270.3C243.6 270 243.9 269.7 244.2 269.7H307.6C307.9 269.7 308.2 270 308.2 270.3V275.8C308.3 276.1 308 276.4 307.6 276.4ZM244.8 275.2H307V271H244.8V275.2Z" fill="#231F20"/>
<path d="M215.962 213.763L211.039 216.214L239.29 272.97L244.213 270.519L215.962 213.763Z" fill="white"/>
<path d="M239.3 273.7C239.1 273.7 238.8 273.6 238.7 273.3L210.4 216.5C210.3 216.3 210.3 216.2 210.4 216C210.5 215.8 210.6 215.7 210.7 215.6L215.6 213.2C215.9 213 216.3 213.2 216.4 213.5L244.7 270.3C244.9 270.6 244.7 271 244.4 271.1L239.5 273.5C239.5 273.7 239.4 273.7 239.3 273.7ZM211.9 216.5L239.6 272.1L243.4 270.2L215.7 214.6L211.9 216.5Z" fill="#231F20"/>
<path d="M307.6 256.1C307.2 256.1 307 255.8 307 255.4C307 255.1 307.2 254.9 307.5 254.8C326.9 250.5 356.3 243 358.1 240.4C359.9 237.8 362.4 210.4 363.6 192.6C363.6 192.3 363.9 192 364.3 192C364.6 192 364.9 192.3 364.9 192.7C364.6 197.3 361.8 237.3 359.2 241.1C356.6 244.9 312.8 254.9 307.8 256L307.6 256.1Z" fill="#231F20"/>
<path d="M327.9 271.8C318.4 271.8 311.3 271.2 311.2 271.2C310.9 271.2 310.6 270.9 310.6 270.5C310.6 270.1 310.9 269.9 311.3 269.9C311.8 269.9 364.1 274.1 375.9 259.2C387.7 244.3 387.6 220.1 387.6 219.9C387.6 219.5 388 219.3 388.3 219.3C388.6 219.3 388.8 219.6 388.9 219.9C388.9 220.1 389.1 244.7 376.9 260C371.7 266.5 359.1 270.3 339.3 271.4C335.2 271.8 331.4 271.8 327.9 271.8Z" fill="#231F20"/>
<path d="M334.6 246.8C334.2 246.8 333.9 246.5 334 246.1C334.6 238.2 334.7 230.2 334.3 222.3C333.6 207.8 333.8 187.3 333.8 187.1C333.8 186.8 334.1 186.5 334.4 186.5C334.7 186.5 335 186.8 335 187.1C335 187.3 334.8 207.8 335.5 222.2C335.9 230.2 335.8 238.2 335.2 246.2C335.2 246.5 334.9 246.8 334.6 246.8Z" fill="#231F20"/>
<path d="M355.6 296.5C359.8 286.3 367.9 278.2 378.2 274.1C391.5 268.7 411.7 269.8 411.7 269.8L406.9 296.6L355.6 296.5Z" fill="white"/>
<path d="M406.8 297.1H355.5C355.1 297.1 354.9 296.8 354.9 296.5C354.9 296.4 354.9 296.4 354.9 296.3C359.2 286 367.5 277.8 377.8 273.5C391 268.1 411.4 269.1 411.6 269.1C411.8 269.1 412 269.2 412.1 269.3C412.2 269.4 412.3 269.6 412.2 269.8L407.4 296.6C407.4 296.9 407.1 297.1 406.8 297.1ZM356.5 295.9H406.3L410.9 270.4C407.2 270.3 390 270 378.4 274.7C368.6 278.7 360.8 286.3 356.5 295.9Z" fill="#231F20"/>
<path d="M341.4 130.5C341 130.6 339.6 135.6 339.4 136C338.2 139.1 336.3 142 334.8 145C331.4 152 327.2 158.6 322.4 164.6C326.8 164.5 330.9 162.7 333.9 159.5L330.3 169.5C335.2 171.2 340.6 170.8 345.2 168.2C353.1 163.7 354.5 155.1 355.4 146.9C356.1 140.8 356.7 134.7 357.3 128.7L341.4 130.5Z" fill="white"/>
<path d="M336.2 171.2C334.1 171.2 332 170.8 330 170.1C329.8 170 329.7 169.9 329.6 169.8C329.5 169.6 329.5 169.5 329.6 169.3L332.3 161.8C329.4 164 325.9 165.3 322.3 165.3C322.1 165.3 321.8 165.2 321.7 164.9C321.6 164.7 321.6 164.4 321.8 164.2C326.6 158.2 330.7 151.6 334.2 144.7C334.8 143.5 335.4 142.4 336 141.3C337.1 139.5 338 137.6 338.8 135.7C338.8 135.6 338.9 135.3 339.1 134.8C340.5 130.1 340.8 129.8 341.3 129.7L357.2 127.9C357.4 127.9 357.6 127.9 357.7 128.1C357.8 128.2 357.9 128.4 357.9 128.6L356 146.8C355.1 155.3 353.5 164 345.5 168.6C342.6 170.4 339.4 171.2 336.2 171.2ZM331 169.2C335.6 170.6 340.6 170.1 344.7 167.7C352.2 163.4 353.7 155 354.6 146.9L356.5 129.5L341.7 131.2C341.2 132.6 340.7 134 340.3 135.4C340.2 135.9 340.1 136.2 340 136.3C339.2 138.3 338.2 140.2 337.2 142.1C336.6 143.2 336 144.3 335.4 145.4C332.2 152 328.3 158.2 323.8 164C327.5 163.6 330.9 161.9 333.5 159.1C333.7 158.9 334 158.8 334.3 159C334.6 159.2 334.7 159.5 334.6 159.8L331 169.2Z" fill="#231F20"/>
<path d="M346.2 164.4L343.4 176.8C343.4 176.8 341.9 184.6 350.2 183.8C355.1 183.3 359.6 180.7 362.4 176.5L365.7 154C365.8 153.1 367.2 143.8 368.9 135.6C359.4 133.6 351 131.2 351 131.2C351.8 132.3 348.3 131.8 348.3 131.8C346.8 131.5 345.2 131.4 343.7 131.6C342.1 137 339.5 142.7 338.6 148.2C338 151.5 337.7 154.8 337.7 158.1C337.8 164.5 346.2 164.4 346.2 164.4Z" fill="white"/>
<path d="M349.1 184.5C347.3 184.6 345.5 184 344.2 182.6C342.1 180.3 342.8 176.8 342.8 176.7L345.5 165C342.3 164.8 337.2 163.3 337.1 158.2C337.1 154.8 337.4 151.5 338 148.2C338.7 144.5 339.8 140.9 341.1 137.4C341.8 135.5 342.5 133.5 343.1 131.6C343.2 131.4 343.3 131.2 343.6 131.2C345.2 131 346.8 131.1 348.4 131.4C349.1 131.5 349.7 131.5 350.4 131.5C350.4 131.3 350.4 131.2 350.5 131.1C350.6 130.9 350.9 130.8 351.1 130.9C351.2 130.9 359.6 133.3 368.9 135.3C369.1 135.3 369.2 135.4 369.3 135.5C369.4 135.6 369.4 135.8 369.4 135.9C367.9 143 366.7 151 366.2 154.2L362.8 176.8C362.8 176.9 362.8 176.9 362.7 177C359.9 181.3 355.2 184.1 350.1 184.6C349.8 184.4 349.5 184.5 349.1 184.5ZM346.2 163.9C346.4 163.9 346.5 164 346.7 164.1C346.8 164.2 346.8 164.4 346.8 164.6L344 177C344 177 343.4 180.1 345.1 181.9C346.1 183 347.8 183.5 350.1 183.3C354.8 182.8 359.1 180.3 361.8 176.4C362.1 174.6 365.1 154.1 365.1 154C365.6 150.8 366.7 143.1 368.2 136.1C360.6 134.5 353.7 132.6 351.6 132L351.5 132.1C350.9 132.7 349 132.5 348.3 132.4C346.9 132.1 345.6 132.1 344.2 132.2C343.7 134 343 135.9 342.3 137.7C341 141.1 339.9 144.7 339.2 148.3C338.6 151.5 338.3 154.8 338.3 158.1C338.4 163.9 345.9 163.8 346.2 163.9Z" fill="#231F20"/>
<path d="M350.9 145.2C350.9 145.2 345.6 150.6 346.4 151.9C347.2 153.2 350.1 153 350.1 153" fill="white"/>
<path d="M349.6 153.6C348.6 153.6 346.6 153.5 345.8 152.2C344.9 150.8 347.8 147.4 350.4 144.7C350.7 144.5 351.1 144.5 351.3 144.8C351.5 145 351.5 145.4 351.3 145.6C348.8 148.1 346.8 150.9 346.9 151.5C347.3 152.2 349.2 152.3 350 152.2C350.4 152.2 350.7 152.4 350.7 152.8C350.7 153.2 350.5 153.5 350.1 153.5L349.6 153.6Z" fill="#231F20"/>
<path d="M346.912 143.097C347.085 142.343 346.92 141.662 346.543 141.576C346.166 141.489 345.72 142.03 345.547 142.783C345.374 143.537 345.539 144.218 345.916 144.305C346.293 144.391 346.739 143.851 346.912 143.097Z" fill="#231F20"/>
<path d="M357.008 145.858C357.181 145.104 357.016 144.423 356.639 144.337C356.263 144.25 355.817 144.791 355.644 145.544C355.471 146.298 355.636 146.979 356.013 147.065C356.389 147.152 356.835 146.611 357.008 145.858Z" fill="#231F20"/>
<path d="M348.6 139.8L349.9 137.2L350.9 140.2L358.9 142.6L361.1 139.3L360.9 143.8L365.1 144.2C364 144.1 359.1 163.9 358.6 165.6C357.7 168.6 356.7 171.8 354.1 173.5C356.9 174.5 359.9 173 362.3 171.3C365.4 169 368.1 166.3 370.3 163.1C369.5 167.2 368.8 171.3 368 175.5C370.2 175.8 372.4 175 374.1 173.5C375.7 172 377 170.1 377.8 168.1C381.5 160.2 380.6 152.9 380.9 144.6C381.2 134.9 380.6 126.6 369.1 122.2C357.6 117.8 349.2 119.1 343.2 124.4C339.6 127.7 337.5 132.4 337.4 137.3C337.3 137.1 346.2 139.5 348.6 139.8Z" fill="white"/>
<path d="M368.9 176.1C368.6 176.1 368.2 176.1 367.9 176C367.7 176 367.6 175.9 367.5 175.7C367.4 175.6 367.4 175.4 367.4 175.2L369.2 165.5C367.3 167.8 365.1 169.9 362.6 171.7C359.2 174.2 356.3 174.9 353.8 174C353.6 173.9 353.4 173.7 353.4 173.5C353.4 173.3 353.5 173 353.7 172.9C356 171.4 357 168.4 357.9 165.3C358 165 358.2 164.1 358.5 162.9C361.6 151.2 363 146.5 363.9 144.7L360.8 144.4C360.5 144.4 360.2 144.1 360.2 143.7L360.3 141.5L359.4 142.9C359.2 143.1 359 143.2 358.7 143.2L350.7 140.8C350.5 140.7 350.3 140.6 350.3 140.4L349.8 138.8L349.2 140C349.1 140.2 348.8 140.4 348.6 140.3C346.2 140.1 337.6 137.8 337.2 137.7C336.9 137.6 336.7 137.4 336.7 137.1C336.8 132 339 127.1 342.7 123.7C349.3 117.9 358.3 117.1 369.3 121.4C381.1 126 381.8 134.5 381.5 144.4C381.5 146 381.4 147.6 381.4 149.2C381.4 155.6 381.3 161.7 378.4 168.2C377.5 170.3 376.2 172.2 374.5 173.8C373 175.3 371 176.1 368.9 176.1ZM368.7 174.9C370.5 174.9 372.3 174.2 373.6 173C375.1 171.5 376.4 169.8 377.2 167.8C380.1 161.6 380.1 155.7 380.1 149.4C380.1 147.8 380.1 146.2 380.2 144.5C380.5 134.8 379.9 127 368.8 122.7C358.2 118.6 349.9 119.3 343.5 124.8C340.1 127.9 338.1 132.2 337.9 136.7C339.7 137.2 345.8 138.7 348.2 139.1L349.3 136.9C349.5 136.6 349.9 136.5 350.2 136.6C350.3 136.7 350.5 136.8 350.5 137L351.4 139.7L358.6 141.8L360.6 138.9C360.8 138.7 361.1 138.6 361.3 138.7C361.6 138.8 361.7 139.1 361.7 139.3L361.5 143.2L365 143.6C365.3 143.6 365.6 143.9 365.6 144.3C365.6 144.5 365.4 144.7 365.2 144.8C364.2 146.2 360.8 159 359.7 163.3C359.4 164.6 359.1 165.5 359.1 165.8C358.2 168.7 357.3 171.4 355.4 173.2C357.2 173.4 359.4 172.6 361.9 170.8C365 168.6 367.6 165.9 369.8 162.8C370 162.6 370.3 162.5 370.6 162.6C370.9 162.7 371 163 371 163.3L368.7 174.9Z" fill="#231F20"/>
<path d="M346.2 164.4C346.2 164.4 352.8 164.2 355.7 162.5C355.7 162.5 351.6 171.2 344.1 173.9L346.2 164.4Z" fill="#231F20"/>
<path d="M344.1 174.5C343.9 174.5 343.8 174.4 343.7 174.3C343.5 174.1 343.5 173.9 343.5 173.7L345.7 164.2C345.8 163.9 346 163.7 346.3 163.7C346.4 163.7 352.8 163.5 355.4 161.9C355.7 161.7 356.1 161.8 356.3 162.1C356.4 162.3 356.4 162.5 356.3 162.7C356.1 163.1 352 171.6 344.3 174.4C344.2 174.5 344.1 174.5 344.1 174.5ZM346.8 165L345 172.8C349.7 170.7 352.9 166.2 354.3 163.8C351.8 164.6 349.3 165 346.8 165Z" fill="#231F20"/>
<path d="M345.7 161H345.5C344.9 160.9 344.4 160.4 344.2 159.4L343.4 155.9C343.3 155.7 343.4 155.5 343.6 155.3C343.7 155.1 344 155.1 344.2 155.1L349.2 156.1C349.4 156.1 349.6 156.3 349.7 156.5C349.8 156.7 349.8 156.9 349.7 157.1C348.9 158.3 347.2 161 345.7 161ZM344.9 156.6L345.5 159.2C345.6 159.7 345.8 159.8 345.8 159.8C346.2 159.8 347.2 158.8 348.1 157.3L344.9 156.6Z" fill="#231F20"/>
</svg>
