<svg width="306" height="326" viewBox="0 0 306 326" fill="none" xmlns="http://www.w3.org/2000/svg">
<path d="M160.3 36.8C160.8 36.5 161.5 36.2 161.9 36.6C162.3 37 162.1 37.7 161.7 38.2C160.8 39.6 159.7 40.8 158.4 41.8C160.6 40.8 162.9 40.1 165.3 39.8C165.8 39.7 166.4 39.8 166.5 40.2C166.6 40.6 166.2 40.9 165.9 41.1C163.9 42.5 161.6 43.6 159.1 44.2C160.5 44 162 44.1 163.4 44.6C163.7 44.7 163.9 44.8 164 45C164.2 45.5 163.7 46 163.2 46.3C158.2 49.1 152.3 49.8 146.6 50.2C146.4 50.2 146.1 50.2 145.9 50.1C145.5 49.8 145.6 49.2 145.8 48.8C148.1 42.8 155 40.3 160.3 36.8Z" fill="white"/>
<path d="M146.5 51.2001C146.2 51.2001 145.9 51.1001 145.7 51.0001C145.1 50.6001 144.9 49.8001 145.3 48.9001C147.1 43.8001 151.8 41.1001 156.3 38.5001C157.5 37.8001 158.8 37.1001 159.9 36.3001C161.3 35.4001 162 35.8001 162.4 36.1001C163 36.7001 163 37.6001 162.3 38.6001C162 39.1001 161.6 39.5001 161.3 40.0001C162.6 39.6001 163.9 39.3001 165.3 39.2001C166.3 39.1001 167.1 39.4001 167.3 40.2001C167.4 40.6001 167.3 41.2001 166.5 41.8001C165.4 42.6001 164.2 43.2001 162.9 43.8001C163.2 43.9001 163.5 44.0001 163.8 44.1001C164.2 44.2001 164.6 44.5001 164.8 44.9001C165.2 45.7001 164.8 46.5001 163.7 47.1001C158.5 50.0001 152.5 50.7001 146.8 51.1001L146.5 51.2001ZM161.4 37.2001C161.1 37.2001 160.9 37.3001 160.7 37.5001C159.5 38.3001 158.2 39.0001 157 39.7001C152.7 42.2001 148.3 44.7001 146.6 49.3001C146.5 49.5001 146.5 49.7001 146.5 49.9001C146.5 49.9001 146.6 49.8001 146.7 49.8001C152.2 49.4001 158 48.7001 163 46.0001C163.2 45.9001 163.4 45.8001 163.5 45.6001C163.4 45.6001 163.4 45.6001 163.3 45.5001C162.1 45.0001 160.7 44.9001 159.4 45.1001C159 45.2001 158.7 44.9001 158.6 44.5001C158.5 44.1001 158.8 43.8001 159.1 43.7001C161.4 43.1001 163.7 42.1001 165.6 40.7001L165.7 40.6001C165.6 40.6001 165.5 40.6001 165.4 40.6001C163.1 40.9001 160.8 41.5001 158.7 42.5001C158.3 42.6001 157.9 42.5001 157.8 42.1001C157.7 41.8001 157.8 41.5001 158 41.3001C159.2 40.3001 160.3 39.2001 161.2 37.9001C161.3 37.7001 161.4 37.4001 161.4 37.2001Z" fill="#231F20"/>
<path d="M84.5999 45.0002C84.5999 45.0002 152.9 40.0002 152.9 40.4002C152.9 40.8002 150.5 51.5002 150.5 51.5002C150.5 51.5002 91.7999 70.9002 84.5999 64.3002C77.3999 57.7002 84.5999 45.0002 84.5999 45.0002Z" fill="#68E1FD"/>
<path d="M304.8 306.8H1.2C0.799997 306.8 0.5 306.5 0.5 306.1C0.5 305.7 0.799997 305.4 1.2 305.4H304.7C305.1 305.4 305.4 305.7 305.4 306.1C305.4 306.5 305.1 306.8 304.8 306.8Z" fill="#D1D3D4"/>
<path d="M63.3999 317.6C63.2999 317.6 63.0999 317.6 62.9999 317.6C61.4999 317.4 60.3999 316 60.5999 314.4L96.6999 61.6999C96.9999 60.1999 98.3999 59.1999 99.9999 59.3999C101.4 59.6999 102.4 60.9999 102.3 62.3999L66.1999 315.1C65.9999 316.5 64.7999 317.6 63.3999 317.6Z" fill="#231F20"/>
<path d="M16 317.6C15.9 317.6 15.7 317.6 15.6 317.6C14.1 317.4 13 316 13.2 314.4L49.3 61.6999C49.5 60.1999 50.9 59.0999 52.5 59.2999C54.1 59.4999 55.1 60.8999 54.9 62.4999L18.8 315.2C18.6 316.6 17.4 317.6 16 317.6Z" fill="#231F20"/>
<path d="M65.9 285.3H20.6C19.1 285.3 17.8 284 17.8 282.5C17.8 281 19.1 279.7 20.6 279.7H65.9C67.4 279.7 68.7 281 68.7 282.5C68.7 284.1 67.4 285.3 65.9 285.3Z" fill="#231F20"/>
<path d="M71.1001 249H25.9001C24.4001 249 23.1001 247.7 23.1001 246.2C23.1001 244.7 24.4001 243.4 25.9001 243.4H71.1001C72.6001 243.4 73.9001 244.7 73.9001 246.2C73.9001 247.7 72.6001 249 71.1001 249Z" fill="#231F20"/>
<path d="M76.3 212.6H31C29.5 212.6 28.2 211.3 28.2 209.8C28.2 208.3 29.5 207 31 207H76.2C77.7 207 79 208.3 79 209.8C79.1 211.3 77.8 212.6 76.3 212.6Z" fill="#231F20"/>
<path d="M81.5 176.2H36.3C34.8 176.2 33.5 174.9 33.5 173.4C33.5 171.9 34.8 170.6 36.3 170.6H81.5C83 170.6 84.3 171.9 84.3 173.4C84.3 175 83 176.2 81.5 176.2Z" fill="#231F20"/>
<path d="M86.7001 139.9H41.4001C39.9001 139.9 38.6001 138.6 38.6001 137.1C38.6001 135.6 39.9001 134.3 41.4001 134.3H86.7001C88.2001 134.3 89.5001 135.6 89.5001 137.1C89.5001 138.6 88.2001 139.9 86.7001 139.9Z" fill="#231F20"/>
<path d="M91.8999 103.5H46.6999C45.1999 103.5 43.8999 102.2 43.8999 100.7C43.8999 99.1999 45.1999 97.8999 46.6999 97.8999H91.8999C93.3999 97.8999 94.6999 99.1999 94.6999 100.7C94.6999 102.2 93.3999 103.5 91.8999 103.5Z" fill="#231F20"/>
<path d="M112.3 87.8C113.7 83.7 115.1 79.6 116.5 75.5C117.3 73.4 118.1 71.3 119 69.2C119.9 66.5 122.7 64.8 125.5 65.2C128.8 65.6 132.1 66.3 135.4 66.8C137.2 67.2 138.9 67.4 140.8 67.5C142.1 67.5 143.4 67.1 144.5 66.3C148.3 62.7 151.9 58.9 155.6 55C156.8 53.6 157.3 51.6 156.7 49.8C155.8 45.8 154.9 41.8 154.1 37.8C153.7 36.2 153.6 34.6 153.7 33C153.8 31.8 154.4 30.8 155.3 30C161.4 26 168.1 22.9 175.2 20.9C177.3 20.2 179.7 21 180.9 22.9C183.4 26.4 186.1 29.8 188.5 33.3C190.4 36.1 192.9 37.5 196.3 37.3C200.7 37 205.1 36.9 209.5 36.7C211.1 36.6 212.6 35.7 213.5 34.3C215.1 32 216.5 29.6 218.1 27.2C219.4 25.2 220.7 23.2 222.1 21.2C223.3 19.1 225.9 18.2 228.2 19.1C234.3 21.2 240.4 23.4 246.4 25.7C248.9 26.7 249.9 29 249.7 31.6C249.4 35 248.6 38.3 248.1 41.7C247.8 43.3 247.6 44.9 247.5 46.5C247.2 48.6 248 50.6 249.5 52.1C252.7 55.1 256 58.1 259.1 61.3C260.9 63.2 263.7 64 266.2 63.3C270.6 62.4 274.9 61.3 279.2 60.4C282.6 59.7 285 60.7 286.5 63.9C289 69.1 291.4 74.3 293.7 79.6C295.4 83.4 294.8 85.7 291.5 88.3C289.3 90.1 286.9 91.6 284.6 93.3C283 94.5 281.3 95.8 279.8 97.1C278.5 98.2 277.7 99.9 277.8 101.6C277.9 106.2 278 110.7 278.2 115.3C278.3 117.8 279.7 120.1 281.8 121.4C284.3 122.9 286.8 124.3 289.3 125.8C290.8 126.7 292.3 127.7 293.8 128.8C295.9 130.2 296.8 133 295.8 135.3C293.8 140.8 291.8 146.3 289.7 151.7C289.4 152.5 288.9 153.3 288.4 154.1C287.4 155.9 285.3 156.9 283.3 156.5C279.3 155.9 275.4 155.2 271.4 154.5C271.1 154.4 270.8 154.4 270.5 154.4C266.8 153.5 263.9 154.7 261.4 157.6C259.2 160.2 256.6 162.6 254.3 165.1C252 167.3 251.2 170.6 252.1 173.7C253.1 177.5 254 181.4 254.8 185.3C255.6 189.4 254.8 191.2 251.1 193C245.7 195.6 240.3 198 234.8 200.3C231.8 201.6 229.6 201 227.6 198.4C225.6 195.8 223.6 192.9 221.6 190.2C217.4 184.2 216.3 183.7 209 184.1C206.1 184.2 203.3 184.4 200.4 184.6C197.6 184.6 195.1 186.1 193.7 188.5C192 191.4 190.3 194.3 188.5 197.1C187.5 198.6 186.4 199.9 185.2 201.2C184.1 202.5 182.3 203 180.7 202.4C174.9 200.3 169.2 198.1 163.4 195.9C162.6 195.6 161.9 195.1 161.2 194.6C159.4 193.6 158.4 191.5 158.8 189.5C159.4 185.6 160.1 181.7 160.7 177.8C160.9 176.6 161 175.4 161.1 174.2C161.3 172.2 160.6 170.3 159.1 168.9C156 166 152.9 163.1 149.7 160.2C147.9 158.4 145.3 157.8 142.9 158.5C139.1 159.5 135.2 160.3 131.3 161.2L130.9 161.3C125.9 162.2 124.2 161.6 122 156.9C119.6 151.8 117.4 146.5 115.2 141.2C113.9 138 114.4 136.1 117.3 134C120.4 131.7 123.5 129.4 126.7 127.3C129.9 125.5 131.8 121.9 131.4 118.2C131.1 114.1 131 110 130.8 105.9C130.8 104.2 129.9 102.5 128.4 101.6C125 99.4 121.5 97.3 118.1 95.1C115.9 93.7 113.6 92.2 112.7 89.5L112.3 87.8ZM242.9 110.7C242.9 89 225.5 71.8 203.6 71.7C185.6 71.6 165.2 87.4 165.2 110.8C165.3 132.1 182.5 149.4 203.8 149.6C228.9 149.6 244 127.9 242.9 110.7Z" fill="white"/>
<path d="M181.7 203.1C181.1 203.1 180.5 203 180 202.8L175.3 201C171.1 199.4 166.9 197.9 162.7 196.3C162 196 161.3 195.6 160.7 195.2L160.4 195C158.3 193.9 157.2 191.5 157.7 189.2L158.5 184C158.9 181.8 159.2 179.6 159.6 177.4C159.8 176.2 159.9 175.1 159.9 173.9C160.1 172.1 159.5 170.4 158.1 169.2C155.4 166.7 152.7 164.2 150 161.6L148.8 160.5C147.2 158.9 144.8 158.3 142.6 159C139.9 159.7 137.2 160.3 134.5 160.9L130.9 161.7L130.6 161.8C125.1 162.8 123.2 161.9 121 157C118.3 151.3 115.9 145.6 114.2 141.3C112.8 137.8 113.4 135.6 116.5 133.3C120.1 130.6 123.1 128.4 126 126.6C129 124.9 130.7 121.6 130.3 118.1C130.1 115.5 130 113 129.9 110.4C129.8 108.8 129.8 107.3 129.7 105.7C129.7 104.2 128.9 102.8 127.6 102L123.4 99.2998C121.4 97.9998 119.4 96.6998 117.4 95.4998C115.1 93.9998 112.7 92.3998 111.7 89.4998C111.7 89.3998 111.7 89.3998 111.7 89.2998V87.7998C111.7 87.6998 111.7 87.5998 111.7 87.5998L112.9 84.0998C113.9 81.1998 114.9 78.1998 115.9 75.2998C116.7 73.0998 117.6 70.8998 118.4 68.9998C119.4 65.9998 122.5 64.0998 125.6 64.5998C127.8 64.7998 130 65.1998 132.2 65.5998C133.3 65.7998 134.4 65.9998 135.6 66.1998L136.9 66.3998C138.2 66.6998 139.5 66.7998 140.8 66.8998C142 66.8998 143.1 66.5998 144 65.8998C148.1 61.9998 151.9 57.9998 155 54.6998C156.1 53.3998 156.5 51.6998 156 50.0998C155.6 48.2998 155.2 46.4998 154.8 44.7998C154.3 42.5998 153.8 40.2998 153.3 38.0998C152.9 36.4998 152.7 34.7998 152.9 33.0998C153 31.6998 153.7 30.3998 154.8 29.4998C161 25.4998 167.7 22.3998 174.9 20.3998C177.3 19.5998 179.9 20.5998 181.3 22.6998L184 26.3998C185.6 28.5998 187.4 30.8998 188.9 33.1998C190.8 35.9998 193 37.0998 196.1 36.8998C199 36.6998 201.9 36.5998 204.7 36.4998L209.4 36.2998C210.8 36.1998 212.1 35.3998 212.8 34.1998C213.7 32.7998 214.6 31.3998 215.5 29.9998C216.1 28.9998 216.7 28.0998 217.4 27.0998L218.1 26.0998C219.2 24.3998 220.3 22.6998 221.5 21.0998C222.9 18.7998 225.8 17.7998 228.4 18.7998C235.7 21.2998 241.3 23.3998 246.6 25.3998C249.2 26.3998 250.6 28.8998 250.3 31.9998C250.1 34.2998 249.7 36.4998 249.3 38.6998C249.1 39.7998 248.9 40.9998 248.7 42.0998C248.5 43.5998 248.2 45.1998 248.1 46.7998C247.9 48.6998 248.6 50.4998 249.9 51.7998L252.2 53.8998C254.6 56.1998 257.1 58.4998 259.5 60.8998C261.1 62.6998 263.7 63.3998 266 62.6998C268.1 62.1998 270.2 61.6998 272.4 61.2998C274.6 60.8998 276.8 60.2998 279 59.7998C282.8 58.9998 285.5 60.1998 287.1 63.6998C289.6 68.8998 292 74.1998 294.3 79.3998C296.1 83.4998 295.4 86.0998 291.8 88.8998C290.5 89.9998 289.1 90.8998 287.7 91.8998C286.7 92.5998 285.8 93.1998 284.8 93.8998C283 95.1998 281.5 96.3998 280 97.6998C278.8 98.6998 278.1 100.2 278.2 101.7L278.3 104.5C278.4 108.1 278.5 111.7 278.6 115.3C278.7 117.6 279.9 119.7 281.9 120.8C282.9 121.4 284 122 285.1 122.7C286.6 123.6 288 124.4 289.4 125.3C291 126.2 292.5 127.3 293.9 128.4C296.3 130 297.3 133.1 296.1 135.7C294.2 140.9 292.2 146.3 290 152.1C289.7 152.9 289.2 153.7 288.7 154.4L288.6 154.6C287.4 156.6 285.1 157.7 282.8 157.3L274.8 156L270.7 155.3H270C266.6 154.5 264 155.5 261.6 158.2C260 160.1 258.3 161.8 256.6 163.5C255.9 164.2 255.1 165 254.4 165.7C252.3 167.8 251.5 170.8 252.4 173.6C253.3 177.3 254.3 181.2 255.1 185.2C256 189.7 255 191.7 251 193.6C246.1 196 240.8 198.4 234.7 201C231.5 202.4 228.9 201.7 226.7 198.9C224.9 196.7 223.3 194.4 221.7 192.1L220.7 190.6C216.6 184.8 215.8 184.4 208.7 184.8L203.8 185.1L200.1 185.3C197.6 185.3 195.2 186.7 193.9 188.9C193.3 189.9 192.8 190.8 192.2 191.8C191.1 193.7 189.9 195.7 188.7 197.5C187.7 199 186.6 200.4 185.3 201.7C184.5 202.5 183.1 203.1 181.7 203.1ZM144.6 157.3C146.5 157.3 148.4 158.1 149.8 159.4L151 160.5C153.7 163 156.4 165.6 159.1 168.1C160.7 169.6 161.5 171.8 161.3 173.9C161.2 175.1 161.1 176.3 160.9 177.6C160.6 179.8 160.2 182 159.8 184.2C159.5 185.9 159.2 187.6 159 189.3C158.7 191.1 159.5 192.9 161.1 193.7L161.4 193.9C161.9 194.3 162.5 194.6 163.2 194.9C167.4 196.5 171.6 198 175.8 199.6L180.5 201.4C181.8 201.9 183.4 201.5 184.3 200.4C185.5 199.2 186.6 197.8 187.5 196.4C188.7 194.5 189.9 192.6 191 190.7C191.6 189.7 192.1 188.8 192.7 187.8C194.2 185.2 197 183.6 200 183.6L203.7 183.4L208.6 183.1C216.2 182.7 217.4 183.3 221.8 189.5L222.8 191C224.4 193.2 226 195.6 227.8 197.7C229.7 200 231.5 200.5 234.2 199.4C240.3 196.8 245.6 194.4 250.5 192.1C253.9 190.5 254.6 189 253.8 185.2C253 181.4 252 177.3 251.1 173.7C250.1 170.4 251 166.9 253.5 164.5C254.2 163.7 255 163 255.7 162.3C257.4 160.6 259.1 158.9 260.6 157.1C263.3 153.9 266.5 152.8 270.4 153.7C270.6 153.7 270.7 153.8 270.9 153.8L271.3 153.9L275.1 154.5L283.1 155.8C284.9 156.1 286.7 155.3 287.5 153.7L287.6 153.5C288.1 152.9 288.4 152.2 288.7 151.5C290.9 145.6 292.9 140.3 294.8 135.1C295.7 133 294.9 130.6 293 129.4C291.6 128.3 290.1 127.3 288.6 126.4C287.2 125.5 285.7 124.7 284.3 123.8C283.2 123.2 282.2 122.6 281.1 121.9C278.7 120.5 277.2 118 277.1 115.3C276.9 111.7 276.9 108 276.8 104.4L276.7 101.6C276.6 99.6998 277.5 97.7998 279 96.4998C280.5 95.1998 282.1 93.8998 283.9 92.5998C284.9 91.8998 285.8 91.1998 286.8 90.4998C288.2 89.5998 289.5 88.5998 290.8 87.5998C293.9 85.1998 294.4 83.1998 292.8 79.6998C290.5 74.4998 288.1 69.1998 285.6 63.9998C284.2 61.1998 282.2 60.1998 279.1 60.8998C276.9 61.3998 274.7 61.8998 272.5 62.3998C270.3 62.8998 268.2 63.3998 266.1 63.7998C263.3 64.5998 260.3 63.6998 258.3 61.5998C255.9 59.1998 253.4 56.8998 251 54.5998L248.7 52.4998C247 50.8998 246.2 48.5998 246.5 46.3998C246.6 44.7998 246.9 43.0998 247.1 41.5998C247.3 40.4998 247.5 39.2998 247.7 38.1998C248.1 35.9998 248.5 33.7998 248.7 31.5998C248.9 29.0998 247.9 27.1998 245.9 26.3998C240.6 24.3998 235 22.3998 227.7 19.7998C225.7 19.0998 223.5 19.7998 222.4 21.5998C221.2 23.1998 220.1 24.8998 219 26.5998L218.3 27.5998C217.7 28.4998 217.1 29.4998 216.4 30.3998C215.5 31.7998 214.6 33.1998 213.7 34.5998C212.7 36.1998 211 37.1998 209.2 37.2998C207.7 37.3998 206.1 37.3998 204.5 37.4998C201.7 37.5998 198.8 37.6998 196 37.8998C192.4 38.1998 189.7 36.7998 187.5 33.6998C185.9 31.3998 184.3 29.0998 182.6 26.8998C181.7 25.6998 180.8 24.4998 179.9 23.1998C178.9 21.4998 176.8 20.7998 175 21.3998C168 23.3998 161.4 26.3998 155.3 30.3998C154.6 31.0998 154.1 31.9998 154.1 32.8998C154 34.3998 154.2 35.9998 154.5 37.4998C155 39.6998 155.5 41.9998 156 44.1998C156.4 45.9998 156.8 47.7998 157.2 49.4998C157.8 51.5998 157.3 53.7998 155.9 55.3998C152.7 58.7998 148.9 62.7998 144.8 66.6998C143.6 67.5998 142.1 68.0998 140.6 68.0998C139.2 68.0998 137.8 67.8998 136.4 67.5998C136 67.4998 135.5 67.3998 135.1 67.3998L131.7 66.7998C129.6 66.3998 127.4 65.9998 125.2 65.7998C122.7 65.3998 120.2 66.8998 119.4 69.3998C118.6 71.2998 117.7 73.4998 116.9 75.5998C115.9 78.4998 114.9 81.4998 113.9 84.3998L112.8 87.7998V89.0998C113.6 91.4998 115.7 92.7998 117.8 94.1998C119.9 95.5998 121.9 96.7998 123.9 98.0998L128.2 100.8C129.9 101.9 130.9 103.7 130.9 105.6C131 107.2 131 108.7 131.1 110.3C131.2 112.8 131.3 115.4 131.5 117.9C131.9 121.9 130 125.7 126.5 127.6C123.6 129.5 120.6 131.6 117.1 134.2C114.5 136.2 114 137.7 115.2 140.6C117 144.9 119.3 150.6 122 156.3C124 160.5 125.3 161.2 130.1 160.3H130.3L130.5 160.2L134 159.4C136.7 158.8 139.4 158.2 142.1 157.5C143 157.5 143.8 157.4 144.6 157.3ZM204 150.2C182.2 150.2 164.5 132.5 164.6 110.7C164.6 100.2 168.8 90.0998 176.3 82.7998C183.8 75.3998 193.9 70.8998 203.5 70.8998H203.7C226.1 70.9998 243.7 88.3998 243.7 110.6C244.3 120 240.3 130.1 233.1 137.8C225.5 145.8 215 150.3 204 150.2ZM203.5 72.3998C194.3 72.3998 184.5 76.6998 177.2 83.8998C170 90.9998 165.9 100.7 166 110.8C166 131.8 183 148.8 203.9 148.9H204C214.6 149 224.7 144.6 232 136.9C239 129.5 242.8 119.7 242.2 110.8C242.2 89.3998 225.3 72.5998 203.6 72.4998L203.5 72.3998Z" fill="#231F20"/>
<path d="M249.8 205.8C250.2 204.6 250.6 203.3 251.1 202.1C251.3 201.5 251.6 200.8 251.8 200.2C252.1 199.4 252.9 198.9 253.8 199C254.8 199.1 255.8 199.3 256.8 199.5C257.3 199.6 257.9 199.7 258.4 199.7C258.8 199.7 259.2 199.6 259.5 199.3C260.6 198.2 261.7 197.1 262.8 195.9C263.2 195.5 263.3 194.9 263.1 194.3C262.8 193.1 262.6 191.9 262.3 190.7C262.2 190.2 262.1 189.8 262.2 189.3C262.2 188.9 262.4 188.6 262.7 188.4C264.5 187.2 266.5 186.3 268.7 185.7C269.3 185.5 270 185.8 270.4 186.3C271.2 187.3 271.9 188.3 272.7 189.4C273.2 190.2 274.1 190.7 275 190.6C276.3 190.5 277.6 190.5 279 190.4C279.5 190.4 279.9 190.1 280.2 189.7C280.7 189 281.1 188.3 281.6 187.6C282.1 186.9 282.4 186.4 282.8 185.8C283.2 185.2 283.9 184.9 284.6 185.2C286.4 185.8 288.2 186.5 290.1 187.2C290.8 187.5 291.2 188.2 291.1 189C291 190 290.8 191 290.6 192C290.5 192.5 290.5 193 290.4 193.4C290.3 194 290.6 194.6 291 195.1C292 196 292.9 196.9 293.9 197.8C294.4 198.4 295.3 198.6 296 198.4C297.3 198.1 298.6 197.8 299.9 197.5C300.8 197.2 301.7 197.6 302.1 198.5C302.8 200 303.6 201.6 304.2 203.2C304.7 204.1 304.5 205.2 303.6 205.7C303.6 205.7 303.5 205.7 303.5 205.8C302.8 206.3 302.1 206.8 301.4 207.3C300.9 207.7 300.4 208.1 300 208.4C299.6 208.7 299.4 209.2 299.4 209.8C299.4 211.2 299.4 212.5 299.5 213.9C299.5 214.7 299.9 215.3 300.6 215.7C301.3 216.2 302.1 216.6 302.8 217C303.3 217.3 303.7 217.6 304.1 217.9C304.8 218.3 305 219.2 304.7 219.9C304.1 221.5 303.5 223.2 302.9 224.8C302.8 225 302.7 225.3 302.5 225.5C302.2 226 301.6 226.3 301 226.2L297.5 225.6H297.2C296.2 225.3 295.1 225.7 294.5 226.6C293.8 227.4 293.1 228.1 292.4 228.8C291.7 229.5 291.5 230.5 291.7 231.4C292 232.5 292.3 233.7 292.5 234.9C292.9 235.8 292.4 236.8 291.6 237.1C291.5 237.1 291.5 237.1 291.4 237.2C289.8 238 288.2 238.7 286.5 239.4C285.7 239.8 284.8 239.6 284.3 238.8C283.7 238 283.1 237.2 282.5 236.3C281.2 234.5 280.9 234.3 278.7 234.5C277.8 234.5 277 234.6 276.1 234.6C275.3 234.6 274.5 235.1 274.1 235.8C273.6 236.7 273.1 237.5 272.5 238.4C272.2 238.8 271.9 239.2 271.5 239.6C271.2 240 270.6 240.1 270.1 240C268.4 239.4 266.6 238.7 264.9 238.1C264.7 238 264.4 237.9 264.2 237.7C263.7 237.4 263.4 236.8 263.5 236.2C263.7 235 263.9 233.9 264.1 232.7C264.1 232.3 264.2 232 264.2 231.6C264.3 231 264 230.4 263.6 230C262.7 229.1 261.7 228.3 260.8 227.4C260.3 226.9 259.5 226.7 258.8 226.9C257.7 227.2 256.5 227.4 255.3 227.7H255.2C253.7 228 253.2 227.8 252.6 226.4C252 225 251.2 223.3 250.6 221.7C250.2 221 250.4 220 251.2 219.6C251.2 219.6 251.2 219.6 251.3 219.6C252.2 218.9 253.2 218.2 254.1 217.6C255.1 217 255.6 216 255.5 214.9C255.4 213.7 255.4 212.4 255.3 211.2C255.3 210.7 255 210.2 254.6 209.9C253.6 209.3 252.5 208.6 251.5 207.9C250.8 207.5 250.2 207 249.9 206.2L249.8 205.8ZM288.9 212.6C288.9 206.2 283.7 200.9 277.3 200.9H277.2C270.9 201.1 265.8 206.2 265.7 212.6C265.7 219 270.9 224.2 277.3 224.2C283.7 224.3 288.9 219.2 289 212.8C288.9 212.8 288.9 212.7 288.9 212.6Z" fill="#D1D3D4"/>
<path d="M270.6 240.8C270.4 240.8 270.1 240.8 269.9 240.7L268.6 240.2C267.3 239.7 266 239.2 264.7 238.8C264.5 238.7 264.2 238.6 264 238.4C263.2 238 262.7 237 262.9 236.1L263.1 234.6C263.2 233.9 263.3 233.3 263.4 232.6C263.5 232.3 263.5 231.9 263.5 231.6C263.5 231.2 263.4 230.9 263.1 230.6C262.3 229.9 261.5 229.1 260.7 228.4L260.3 228C259.9 227.6 259.4 227.5 258.9 227.7L256.5 228.3L255.4 228.5H255.2C253.4 228.8 252.6 228.4 251.8 226.8C251 225.2 250.3 223.4 249.8 222.1C249.2 221 249.6 219.7 250.7 219.1C251.8 218.3 252.7 217.6 253.6 217.1C254.3 216.7 254.8 215.9 254.7 215C254.7 214.2 254.6 213.4 254.6 212.7L254.5 211.3C254.5 211 254.3 210.7 254.1 210.6L252.8 209.8L250.9 208.6C250 208.2 249.4 207.4 249 206.6C249 206.5 249 206.5 249 206.4V205.9C249 205.8 249 205.7 249 205.7L249.4 204.5C249.7 203.7 250 202.9 250.3 202C250.5 201.4 250.8 200.7 251.1 200.1C251.5 199 252.6 198.3 253.8 198.5C254.5 198.6 255.1 198.7 255.8 198.8L256.8 199L257.2 199.1C257.6 199.2 257.9 199.2 258.3 199.2C258.5 199.2 258.7 199.1 258.9 199C260.1 197.9 261.2 196.7 262.2 195.7C262.4 195.4 262.5 195.1 262.4 194.8C262.3 194.3 262.2 193.7 262 193.2C261.8 192.7 261.7 191.9 261.6 191.2C261.5 190.7 261.4 190.1 261.5 189.6C261.5 189 261.8 188.5 262.3 188.2C264.2 187 266.3 186 268.4 185.4C269.3 185.1 270.3 185.5 270.8 186.3L271.6 187.4C272.1 188.1 272.6 188.7 273.1 189.4C273.4 190 274.1 190.4 274.8 190.3C275.7 190.2 276.5 190.2 277.4 190.2L278.8 190.1C279.1 190.1 279.3 189.9 279.4 189.7C279.7 189.3 279.9 188.9 280.2 188.5L281 187.4C281.3 186.9 281.7 186.4 282 185.9C282.6 185 283.6 184.7 284.6 185C286.8 185.8 288.5 186.4 290.1 187C291.1 187.4 291.7 188.4 291.5 189.5C291.4 190.2 291.3 190.9 291.2 191.5C291.1 191.8 291.1 192.2 291 192.5C290.9 193 290.9 193.4 290.8 193.9C290.7 194.3 290.9 194.7 291.2 195L291.9 195.6C292.6 196.3 293.4 197 294.1 197.7C294.5 198.1 295.1 198.3 295.6 198.1L297.5 197.7C298.2 197.5 298.8 197.4 299.5 197.2C300.7 196.8 302 197.4 302.5 198.6C303.3 200.2 304 201.7 304.7 203.3C305.4 204.5 305 206 303.8 206.7C303.4 207 303 207.3 302.5 207.6L301.7 208.2C301.2 208.6 300.7 208.9 300.3 209.3C300.1 209.5 299.9 209.8 299.9 210.1V210.9C299.9 212 299.9 213.1 300 214.2C300 214.7 300.3 215.2 300.8 215.4L301.7 215.9L303 216.7C303.5 217 304 217.3 304.4 217.7C305.3 218.3 305.6 219.4 305.2 220.5C304.6 222.1 304 223.8 303.3 225.4C303.2 225.7 303 225.9 302.9 226.2C302.4 227 301.5 227.4 300.6 227.3L297.1 226.7L296.8 226.6C296 226.4 295.2 226.7 294.8 227.3C294.3 227.9 293.8 228.4 293.3 228.9L292.7 229.6C292.2 230.1 292 230.8 292.2 231.5C292.5 232.7 292.8 233.8 293 235C293.5 236.2 292.8 237.6 291.6 238H291.5C290 238.7 288.4 239.4 286.6 240.2C285.5 240.7 284.3 240.4 283.6 239.4C283.1 238.7 282.6 238 282.1 237.4L281.8 236.9C280.7 235.3 280.6 235.3 278.6 235.4L276 235.5C275.4 235.5 274.9 235.8 274.6 236.3L274.1 237.2C273.7 237.8 273.4 238.4 273 238.9C272.7 239.4 272.3 239.8 271.9 240.2C271.6 240.6 271.1 240.8 270.6 240.8ZM259.5 226.1C260.2 226.1 260.9 226.4 261.4 226.9L261.8 227.3C262.6 228.1 263.4 228.8 264.2 229.5C264.8 230 265.1 230.8 265 231.6C265 232 264.9 232.4 264.9 232.7L264.6 234.7L264.4 236.2C264.4 236.5 264.4 236.7 264.8 237C265 237.1 265.1 237.2 265.3 237.3C266.6 237.8 267.9 238.3 269.2 238.7L270.5 239.2C270.7 239.3 271 239.2 271.1 239C271.4 238.7 271.7 238.3 272 237.9C272.4 237.3 272.7 236.8 273 236.2L273.5 235.3C274 234.4 275 233.8 276.1 233.8L278.7 233.7C281.1 233.6 281.7 233.8 283.1 235.8L283.4 236.3C283.9 237 284.3 237.6 284.9 238.3C285.2 238.8 285.8 238.9 286.2 238.7C288 237.9 289.6 237.2 291 236.5C291.8 236.1 291.9 235.9 291.7 235C291.5 233.9 291.2 232.7 290.9 231.6C290.6 230.5 290.9 229.2 291.7 228.4L292.4 227.7C292.9 227.2 293.4 226.7 293.9 226.2C294.7 225.1 296 224.6 297.3 225H297.5L301 225.6C301.3 225.7 301.7 225.5 301.8 225.2C301.9 225 302 224.8 302.1 224.6C302.7 223 303.3 221.3 303.9 219.7C304.1 219.3 303.9 218.8 303.5 218.5C303.1 218.2 302.7 217.9 302.2 217.6L300.9 216.8L299.9 216.2C299 215.7 298.5 214.8 298.5 213.8C298.5 212.7 298.4 211.6 298.4 210.5V209.7C298.4 209 298.7 208.3 299.3 207.8C299.8 207.4 300.3 207 300.8 206.6L301.7 206C302.1 205.7 302.5 205.4 302.9 205.1C303.7 204.5 303.7 204.2 303.4 203.3C302.7 201.7 302 200.2 301.3 198.6C301.1 198 300.5 197.7 300 197.9H299.9L297.9 198.4L296 198.8C295 199.1 293.9 198.8 293.2 198C292.5 197.3 291.8 196.6 291 195.9L290.3 195.3C289.7 194.7 289.4 193.9 289.5 193.1C289.5 192.6 289.6 192.1 289.7 191.6C289.8 191.3 289.8 190.9 289.9 190.6C290 190 290.1 189.3 290.2 188.7C290.3 188.3 290.1 187.9 289.7 187.7C288.1 187.1 286.5 186.5 284.3 185.7C283.9 185.6 283.5 185.7 283.3 186.1C283 186.6 282.6 187.1 282.3 187.6L281.5 188.8C281.2 189.2 281 189.7 280.7 190.1C280.3 190.7 279.7 191.1 279 191.1L277.6 191.2C276.7 191.2 275.9 191.3 275.1 191.3C273.9 191.4 272.7 190.9 272.1 189.8C271.6 189.1 271.1 188.5 270.7 187.8L269.9 186.7C269.7 186.4 269.3 186.2 268.9 186.3C266.9 186.9 264.9 187.8 263.2 188.9C263.1 189 263.1 189.1 263.1 189.3C263.1 189.7 263.1 190.1 263.2 190.5C263.3 191.2 263.5 191.8 263.6 192.5C263.7 193.2 263.8 193.6 264 194.1C264.2 194.9 264 195.7 263.5 196.3C262.5 197.3 261.4 198.5 260.2 199.7C259.8 200.1 259.2 200.2 258.6 200.2C258.1 200.2 257.7 200.1 257.2 200.1L256.8 200L255.8 199.8C255.2 199.7 254.5 199.6 253.9 199.5C253.4 199.4 252.8 199.7 252.7 200.3C252.4 200.9 252.2 201.5 252 202.1C251.7 202.9 251.4 203.7 251.2 204.6L250.8 205.9C251.1 206.4 251.5 206.8 252.1 207.1L253.9 208.3L255.2 209.1C255.8 209.5 256.2 210.2 256.2 210.9L256.3 212.3C256.3 213.1 256.4 213.8 256.4 214.6C256.5 216 255.9 217.3 254.7 218C253.8 218.5 253 219.2 251.9 220C251.3 220.5 251.2 220.7 251.5 221.3C252 222.6 252.7 224.3 253.5 226C254 227.1 254.2 227.1 255.4 226.9L256.6 226.6L259 226.1C258.9 226.1 259.2 226.1 259.5 226.1ZM277.2 224.9C270.4 224.9 264.9 219.4 264.9 212.6C264.9 209.3 266.2 206.2 268.5 203.9C270.8 201.6 273.8 200.3 277 200.2C283.8 200.1 289.4 205.6 289.4 212.4C289.4 212.5 289.4 212.5 289.4 212.6C289.5 215.8 288.3 218.8 286.1 221.1C284 223.6 280.7 225 277.2 224.9ZM277.1 201.6C274.3 201.7 271.6 202.9 269.6 204.9C265.3 209.1 265.3 216 269.5 220.3C271.5 222.4 274.3 223.5 277.2 223.5C280.2 223.5 283.1 222.3 285.2 220.1C287.1 218.1 288.2 215.4 288.1 212.6C288.1 206.6 283.3 201.6 277.2 201.6C277.2 201.7 277.1 201.7 277.1 201.6Z" fill="#231F20"/>
<path d="M135 253.3C135.7 250.5 136.4 247.7 137.1 244.9C137.5 243.5 137.9 242 138.4 240.6C138.9 238.8 140.6 237.5 142.5 237.6C144.7 237.7 146.9 237.9 149.1 238.1C150.3 238.3 151.5 238.3 152.7 238.2C153.6 238.1 154.4 237.8 155.1 237.2C157.4 234.6 159.6 231.9 161.8 229.1C162.5 228.1 162.7 226.7 162.3 225.6C161.5 223 160.6 220.4 159.9 217.8C159.6 216.8 159.4 215.7 159.3 214.7C159.3 213.9 159.6 213.2 160.2 212.6C164 209.6 168.3 207.2 172.8 205.5C174.2 204.9 175.8 205.3 176.7 206.5C178.6 208.7 180.5 210.7 182.3 213C183.5 214.7 185.6 215.6 187.7 215.2C190.6 214.7 193.5 214.4 196.4 214.1C197.5 213.9 198.4 213.3 198.9 212.3C199.8 210.7 200.7 209 201.5 207.4C202.3 206 203 204.6 203.8 203.2C204.5 201.8 206.1 201 207.7 201.5C211.8 202.5 216 203.6 220.1 204.8C221.7 205.3 222.8 206.8 222.6 208.5C222.6 210.7 222.3 213 222.1 215.3C222 216.4 222 217.4 222 218.5C222 219.9 222.6 221.2 223.7 222.1C226 223.9 228.3 225.7 230.5 227.6C231.8 228.8 233.7 229.1 235.3 228.5C238.1 227.6 240.9 226.7 243.8 225.8C245.7 225 247.9 225.8 248.8 227.7C250.7 231 252.6 234.3 254.4 237.7C255.7 240.1 255.4 241.7 253.4 243.6C252 244.9 250.5 246.1 249.1 247.3C248.1 248.2 247.1 249.1 246.1 250.1C245.3 250.9 244.9 252.1 245 253.2C245.3 256.2 245.6 259.2 246 262.2C246.2 263.9 247.2 265.3 248.8 266C250.5 266.9 252.3 267.6 254 268.5C255.1 269 256.1 269.6 257.1 270.2C258.6 271 259.3 272.8 258.8 274.4C257.8 278.1 256.7 281.9 255.7 285.6C255.5 286.2 255.3 286.7 254.9 287.2C254.3 288.5 253 289.2 251.7 289.1C249.1 288.9 246.4 288.7 243.8 288.5C243.6 288.5 243.4 288.5 243.2 288.5C240.9 288.1 238.6 289.1 237.4 291.1C236.1 293 234.5 294.7 233.1 296.5C231.7 298.1 231.3 300.3 232.1 302.3C233 304.8 233.8 307.3 234.5 309.8C235.2 312.3 234.9 313.7 232.5 315.1C229.1 317.1 225.6 319 222.2 320.9C220.6 322 218.5 321.6 217.3 320.1C215.8 318.5 214.3 316.7 212.8 315C209.7 311.3 208.9 311 204.1 311.7C202.2 312 200.3 312.2 198.5 312.5C196.7 312.7 195.1 313.8 194.3 315.5C193.3 317.5 192.4 319.5 191.3 321.5C190.7 322.5 190.1 323.5 189.3 324.4C188.6 325.3 187.5 325.7 186.4 325.4C182.5 324.3 178.5 323.2 174.6 322.1C174.1 321.9 173.6 321.6 173.2 321.3C171.9 320.7 171.2 319.4 171.3 318.1C171.5 315.5 171.7 312.9 171.9 310.3C171.9 309.5 171.9 308.7 171.9 307.9C171.9 306.6 171.3 305.3 170.3 304.5C168.1 302.8 165.8 301 163.6 299.3C162.3 298.2 160.6 298 159 298.6C156.5 299.4 154 300.2 151.5 301C151.4 301 151.3 301.1 151.2 301.1C147.9 302 146.8 301.7 145.1 298.7C143.2 295.4 141.4 292.1 139.7 288.7C138.7 286.6 138.9 285.4 140.7 283.8C142.5 282.2 144.5 280.4 146.6 278.8C148.6 277.4 149.6 274.9 149.1 272.5C148.7 269.8 148.4 267.1 148 264.4C147.9 263.2 147.2 262.2 146.2 261.7C143.8 260.5 141.4 259.2 139 258C137.4 257.2 135.9 256.4 135.1 254.6V253.3H135ZM222.5 261C221.3 246.8 208.8 236.2 194.6 237.4C194.5 237.4 194.4 237.4 194.3 237.4C182.4 238.4 169.8 249.9 171.2 265.4C172.5 279.5 184.8 289.9 199 288.8C215.5 287.5 224.2 272.3 222.5 261Z" fill="#68E1FD"/>
<path d="M187.1 325.8C186.8 325.8 186.5 325.8 186.1 325.7L182.9 324.8C180 324 177.2 323.2 174.3 322.4C173.8 322.2 173.3 322 172.8 321.7L172.6 321.6C171.1 320.9 170.2 319.3 170.3 317.7L170.6 314.2C170.7 312.8 170.8 311.3 170.9 309.9C170.9 309.1 170.9 308.4 170.9 307.6C170.9 306.5 170.4 305.4 169.6 304.7C167.6 303.2 165.6 301.6 163.6 300L162.9 299.5C161.8 298.6 160.3 298.4 159 298.9C157.2 299.5 155.5 300.1 153.7 300.6L151.5 301.3L151.2 301.4C147.6 302.4 146.1 301.8 144.3 298.7C142.2 295.1 140.3 291.5 138.9 288.7C137.7 286.4 138 284.8 140 283C142.2 281 144.1 279.4 145.9 278C147.7 276.8 148.6 274.5 148.2 272.4C147.9 270.7 147.7 269 147.5 267.3C147.4 266.3 147.2 265.3 147.1 264.3C147 263.4 146.5 262.5 145.6 262.1C144.6 261.6 143.6 261.1 142.6 260.6C141.2 259.9 139.8 259.1 138.4 258.4C136.7 257.5 135 256.6 134.2 254.6C134.2 254.5 134.1 254.5 134.1 254.4L134 253.4C134 253.3 134 253.2 134 253.1L134.6 250.6C135.1 248.6 135.6 246.7 136.1 244.7C136.5 243.2 136.9 241.7 137.4 240.4C138 238.3 139.9 236.9 142 236.9H142.1C143.6 236.9 145.1 237.1 146.5 237.2C147.3 237.3 148 237.3 148.8 237.4L149.7 237.5C150.5 237.6 151.4 237.6 152.3 237.6C153 237.6 153.7 237.3 154.2 236.8C156.6 234 158.9 231.2 160.8 228.8C161.4 228 161.5 226.9 161.1 225.9C160.8 224.8 160.4 223.6 160 222.5C159.5 221 159.1 219.6 158.6 218.1C158.2 217 158 215.9 158 214.8C158 213.8 158.4 212.8 159.1 212.2C163 209.2 167.3 206.7 171.9 205C173.5 204.3 175.4 204.8 176.5 206.2C177.1 207 177.8 207.7 178.5 208.4C179.7 209.8 181 211.2 182.1 212.6C183.2 214.1 185 214.9 186.9 214.5C188.8 214.2 190.7 214 192.5 213.7C193.5 213.6 194.5 213.5 195.6 213.3C196.5 213.2 197.2 212.6 197.6 211.8C198.1 210.8 198.6 209.9 199.2 208.9C199.6 208.2 199.9 207.6 200.3 206.9L200.7 206.1C201.3 204.9 201.9 203.8 202.6 202.6C203.5 200.9 205.4 200.1 207.3 200.6C212.3 201.9 216.1 202.9 219.7 203.9C221.6 204.5 222.9 206.3 222.7 208.3C222.7 209.8 222.5 211.3 222.4 212.8C222.3 213.6 222.3 214.3 222.2 215.1C222.1 216.1 222.1 217.2 222.1 218.2C222.1 219.4 222.6 220.5 223.5 221.2L225.1 222.5C226.8 223.9 228.6 225.3 230.4 226.8C231.5 227.8 233.1 228.1 234.6 227.6C236 227.2 237.4 226.7 238.7 226.3C240 225.9 241.6 225.4 243 224.9C245.6 224.1 247.5 224.8 248.8 227.1C250.7 230.4 252.6 233.7 254.4 237.1C255.9 239.8 255.5 241.7 253.3 243.8C252.5 244.6 251.6 245.3 250.8 246C250.2 246.5 249.6 247 249 247.5C247.9 248.5 247 249.4 246.1 250.3C245.4 251 245.1 251.9 245.2 252.8L245.4 254.6C245.7 257 245.9 259.4 246.2 261.8C246.3 263.2 247.3 264.5 248.6 265C249.3 265.4 250.1 265.7 250.8 266C251.8 266.5 252.8 267 253.8 267.5C254.9 268 256 268.6 257 269.3C258.8 270.3 259.6 272.4 259 274.3C258 278.1 256.9 281.8 255.9 285.5C255.7 286.1 255.5 286.6 255.2 287.1L255.1 287.2C254.4 288.7 252.8 289.6 251.2 289.4L245.7 289L243 288.8H242.5C240.5 288.4 238.4 289.4 237.4 291.1C236.5 292.4 235.4 293.7 234.4 294.9C234 295.4 233.5 295.9 233.1 296.5C231.9 297.9 231.6 299.9 232.2 301.6C233 304 233.9 306.5 234.7 309.1C235.6 312.1 235 313.6 232.4 315.2C229.3 317 225.9 318.9 222 321C220.1 322.2 217.6 321.8 216.3 320C215 318.6 213.8 317.2 212.6 315.8L211.8 314.9C208.8 311.4 208.3 311.2 203.7 311.8L200.5 312.3L198.1 312.6C196.5 312.7 195.1 313.7 194.4 315.2L193.4 317.2C192.8 318.5 192.1 319.9 191.4 321.2C190.8 322.3 190.2 323.3 189.4 324.2C189.1 325.3 188.1 325.8 187.1 325.8ZM160.6 297.2C161.8 297.2 162.9 297.6 163.9 298.4L164.6 298.9C166.6 300.5 168.6 302 170.6 303.6C171.8 304.5 172.5 306 172.5 307.5C172.5 308.3 172.5 309.1 172.5 310C172.4 311.5 172.3 312.9 172.2 314.3C172.1 315.5 172 316.7 171.9 317.8C171.8 318.9 172.4 319.9 173.4 320.4L173.6 320.5C174 320.7 174.4 320.9 174.8 321C177.7 321.8 180.5 322.6 183.4 323.4L186.6 324.3C187.4 324.5 188.3 324.2 188.8 323.5C189.5 322.6 190.1 321.7 190.7 320.7C191.4 319.4 192 318.1 192.7 316.8C193 316.1 193.3 315.4 193.7 314.8C194.6 312.9 196.4 311.7 198.4 311.4L200.8 311L204 310.5C209 309.8 210 310.2 213.3 314.1L214.1 315C215.3 316.4 216.5 317.8 217.7 319.2C218.6 320.5 220.4 320.8 221.7 319.9C225.5 317.9 228.9 316 232 314.1C234.1 312.9 234.4 312 233.7 309.6C232.9 307 232.1 304.5 231.3 302.1C230.4 299.9 230.9 297.4 232.4 295.6C232.8 295.1 233.3 294.5 233.7 294C234.7 292.8 235.7 291.5 236.7 290.3C238.1 288.1 240.6 286.9 243.2 287.4C243.3 287.4 243.4 287.4 243.5 287.4L246.2 287.6L251.7 288C252.8 288.1 253.8 287.5 254.3 286.5L254.4 286.4C254.7 286 254.9 285.5 255 285.1C256.1 281.4 257.1 277.6 258.1 273.9C258.5 272.6 257.9 271.1 256.7 270.5C255.7 269.9 254.7 269.3 253.6 268.8C252.6 268.3 251.6 267.8 250.6 267.3L248.4 266.3C246.7 265.5 245.5 263.9 245.3 262C245 259.6 244.7 257.2 244.5 254.8L244.3 253C244.1 251.6 244.6 250.3 245.6 249.3C246.5 248.4 247.5 247.4 248.6 246.4C249.2 245.9 249.8 245.4 250.4 244.9C251.2 244.2 252.1 243.5 252.9 242.7C254.7 241 254.9 239.8 253.8 237.7C252 234.4 250.1 231 248.2 227.7C247.5 226.1 245.6 225.4 244 226.1C242.6 226.5 241.1 227 239.7 227.5L235.5 228.8C233.6 229.5 231.5 229.1 230 227.7C228.3 226.2 226.5 224.8 224.8 223.5L223.2 222.3C221.9 221.3 221.2 219.8 221.3 218.2C221.3 217.1 221.4 216 221.4 215C221.5 214.2 221.5 213.5 221.6 212.7C221.7 211.2 221.9 209.7 221.9 208.3C222 207 221.2 205.7 219.9 205.3C216.3 204.3 212.5 203.3 207.5 202C206.3 201.6 204.9 202.2 204.4 203.4C203.7 204.5 203.1 205.6 202.5 206.8L202.1 207.6C201.7 208.3 201.4 208.9 201 209.6C200.5 210.6 200 211.6 199.4 212.5C198.8 213.7 197.7 214.5 196.4 214.7C195.4 214.8 194.4 215 193.3 215.1C191.5 215.3 189.6 215.6 187.7 215.9C185.4 216.3 183.1 215.4 181.7 213.5C180.5 212.1 179.3 210.7 178.1 209.3C177.4 208.5 176.8 207.8 176.1 207C175.4 206 174.1 205.7 173 206.2C168.5 207.9 164.3 210.2 160.6 213.2C160.2 213.6 160 214.2 160 214.7C160 215.7 160.2 216.7 160.5 217.6C160.9 219.1 161.4 220.5 161.8 221.9C162.2 223.1 162.5 224.2 162.9 225.4C163.4 226.8 163.2 228.4 162.3 229.6C160.4 232 158.1 234.9 155.6 237.7C154.8 238.4 153.8 238.9 152.8 238.9C151.9 239 150.9 238.9 150 238.8L149.1 238.7L146.8 238.5C145.4 238.4 143.9 238.2 142.5 238.2C140.9 238.1 139.5 239.2 139.1 240.7C138.7 242 138.2 243.5 137.8 245C137.3 247 136.8 248.9 136.3 250.9L135.7 253.3L135.8 254.1C136.5 255.5 137.8 256.3 139.3 257C140.8 257.7 142.1 258.5 143.5 259.2L146.5 260.7C147.7 261.3 148.6 262.5 148.7 263.9C148.8 264.9 149 265.9 149.1 267C149.3 268.7 149.5 270.4 149.8 272C150.3 274.7 149.2 277.4 147 278.9C145.2 280.3 143.4 281.9 141.2 283.8C139.7 285.2 139.5 286.1 140.4 287.8C141.8 290.6 143.7 294.2 145.8 297.8C147.3 300.4 148.1 300.7 151.1 299.9L151.3 299.8L153.5 299.1C155.3 298.5 157 298 158.8 297.4C159.4 297.3 160 297.2 160.6 297.2ZM196.9 289.7C183.2 289.6 171.8 279.2 170.6 265.5C170 258.5 172.2 251.6 176.8 246.2C186 235 202.5 233.3 213.8 242.5C219.4 247.1 222.8 253.7 223.3 260.9C224.2 267.1 222.2 274.1 217.8 279.6C213.2 285.4 206.4 289 199 289.5C198.3 289.7 197.6 289.7 196.9 289.7ZM196.7 238.1C196 238.1 195.2 238.1 194.5 238.2C188 238.9 182 242.2 177.9 247.2C173.6 252.2 171.5 258.8 172.1 265.4C173.3 279.2 185.5 289.4 199.4 288.2C206.2 287.6 212.5 284.2 216.8 278.8C220.9 273.6 222.9 266.9 222 261.1C220.9 248 209.8 237.9 196.7 238.1Z" fill="#231F20"/>
<path d="M155.8 76.3997L156.4 76.9997C156.8 77.3997 156.9 78.0997 156.5 78.4997L147.3 88.8997C146.9 89.2997 146.2 89.3997 145.8 88.9997L145.2 88.3997C144.8 87.9997 144.7 87.2997 145.1 86.8997L154.3 76.4997C154.7 76.0997 155.4 75.9997 155.8 76.3997Z" fill="#231F20"/>
<path d="M146.5 89.7997C146 89.7997 145.4 89.5997 145 89.1997C144.1 88.3997 144 86.9997 144.8 86.0997L153.4 76.3997C154.2 75.4997 155.6 75.3997 156.5 76.1997C156.9 76.5997 157.2 77.0997 157.2 77.6997C157.2 78.2997 157 78.8997 156.6 79.2997L147.9 88.9997C147.5 89.3997 147 89.6997 146.4 89.6997L146.5 89.7997ZM155.1 76.9997C154.9 76.9997 154.6 77.0997 154.5 77.2997L145.8 86.9997C145.7 87.1997 145.6 87.3997 145.6 87.5997C145.6 87.7997 145.7 87.9997 145.9 88.1997C146.2 88.4997 146.7 88.4997 147 88.0997L155.7 78.3997C155.8 78.1997 155.9 77.9997 155.9 77.7997C155.9 77.5997 155.8 77.3997 155.6 77.1997C155.5 77.0997 155.3 76.9997 155.1 76.9997Z" fill="#231F20"/>
<path d="M156.1 77.3999C155.9 77.3999 155.8 77.2999 155.6 77.1999C155.3 76.8999 155.3 76.4999 155.5 76.1999L163.8 66.7999C164 66.4999 164.5 66.4999 164.8 66.6999C165.1 66.9999 165.1 67.3999 164.9 67.6999L156.6 77.0999C156.5 77.2999 156.3 77.3999 156.1 77.3999Z" fill="#231F20"/>
<path d="M164.8 68.7998H163.2L163 67.2998L166 64.2998L166.7 64.8998L167.4 65.4998L164.8 68.7998Z" fill="#231F20"/>
<path d="M137.5 86.3L143.3 84.3C143.3 84.3 148.2 78 149.9 78C151.6 78 148.3 82.8 148.5 82.9C148.7 83 156.4 79.2 156.8 81.1C157.2 83 155 86.7 153.7 87.6C152.4 88.5 137.4 94.6 137.4 94.6L137.5 86.3Z" fill="white"/>
<path d="M137.5 95.4003C137.4 95.4003 137.2 95.4003 137.1 95.3003C136.9 95.2003 136.8 95.0003 136.8 94.7003V86.3003C136.8 86.0003 137 85.7003 137.3 85.6003L142.9 83.7003C144.2 82.0003 148 77.3003 149.9 77.3003C150.3 77.3003 150.7 77.5003 150.9 77.9003C151.4 78.7003 150.8 80.0003 149.9 81.7003C152.8 80.5003 155.6 79.5003 156.8 80.2003C157.1 80.4003 157.4 80.7003 157.5 81.1003C158 83.4003 155.5 87.3003 154.1 88.3003C152.7 89.3003 139.2 94.8003 137.7 95.4003C137.6 95.4003 137.6 95.4003 137.5 95.4003ZM138.2 86.8003V93.7003C144.1 91.3003 152.5 87.8003 153.3 87.1003C154.5 86.3003 156.5 82.8003 156.1 81.3003C155.7 81.1003 153.7 81.6003 150.2 83.1003C148.8 83.7003 148.6 83.8003 148.2 83.6003C148 83.5003 147.9 83.4003 147.8 83.2003C147.7 82.8003 147.8 82.5003 148.4 81.5003C148.9 80.6003 149.3 79.7003 149.6 78.8003C148.6 79.1003 146.1 81.7003 143.7 84.8003C143.6 84.9003 143.5 85.0003 143.4 85.0003L138.2 86.8003Z" fill="#231F20"/>
<path d="M46.0001 195.2C46.0001 195.5 45.2001 203.7 46.0001 203.7C46.8001 203.7 53.8001 205.1 53.8001 205.1V195.3L46.0001 195.2Z" fill="white"/>
<path d="M53.8 205.7H53.7C50.3 205.1 46.5 204.4 46 204.4C45.8 204.4 45.5 204.3 45.4 204.1C45 203.7 44.7 202.7 45.3 195.8C45.3 195.5 45.3 195.3 45.4 195.2C45.4 194.8 45.7 194.5 46.1 194.5H53.9C54.3 194.5 54.6 194.8 54.6 195.2V205C54.6 205.2 54.5 205.4 54.3 205.5C54.1 205.6 54 205.7 53.8 205.7ZM46.4 203C47.7 203.2 51.3 203.8 53.1 204.2V195.9H46.6C46.3 200.7 46.3 202.4 46.4 203Z" fill="#231F20"/>
<path d="M40.7 100.6C40.6 101.4 43.8001 177.8 45.6001 197.1C45.6001 197.1 53.1 198.9 54 198.9C54.9 198.9 67 116.9 67 116.9L40.7 100.6Z" fill="#231F20"/>
<path d="M54 199.5C53.1 199.5 46.7 198 45.4 197.7C45.1 197.6 44.9 197.4 44.9 197.1C43.2 178.7 39.9 101.6 40 100.5C40.1 100.1 40.4 99.9004 40.8 99.9004C40.9 99.9004 41 99.9004 41.1 100L67.4 116.2C67.6 116.3 67.8 116.6 67.7 116.9C67.7 117.1 64.6 137.7 61.5 157.9C55.1 199.5 54.8 199.5 54 199.5ZM46.2 196.5C49.2 197.2 52.3 197.9 53.5 198.1C54.8 193.1 61.7 147.8 66.2 117.2L41.3 101.9C41.7 111.8 44.6 178.3 46.2 196.5Z" fill="#231F20"/>
<path d="M67 157.6C67 157.6 61.5 164.1 60.8 166.7L68.8 167.7C68.8 167.7 76.1 159.5 76.5 159.4C76.9 159.3 67 157.6 67 157.6Z" fill="white"/>
<path d="M68.8001 168.4L60.7001 167.4C60.5001 167.4 60.3001 167.3 60.2001 167.1C60.1001 166.9 60.1001 166.7 60.1001 166.5C60.8001 163.8 66.2001 157.4 66.4001 157.1C66.6001 156.9 66.8001 156.8 67.1001 156.9C77.1001 158.6 77.1001 158.6 77.1001 159.3C77.1001 159.6 77.0001 159.8 76.8001 160C76.2001 160.5 71.9001 165.3 69.3001 168.2C69.1001 168.3 68.9001 168.4 68.8001 168.4ZM61.8001 166.1L68.6001 167C72.3001 162.9 74.2001 160.8 75.2001 159.8C73.4001 159.4 69.9001 158.8 67.4001 158.4C65.2001 160.7 63.3001 163.3 61.8001 166.1Z" fill="#231F20"/>
<path d="M44 86.7002C44 86.7002 37.4 105.6 41.6 113.1C45.8 120.6 88.5 129 88.5 129L64.4 158.4L72.8 161.4C72.8 161.4 110.3 151.5 113.4 138C116.5 124.5 78.4 100.4 78.4 100.4" fill="#231F20"/>
<path d="M72.7 162.3C72.6 162.3 72.5 162.3 72.5 162.3L64.1001 159.3C63.7001 159.2 63.5 158.8 63.7 158.4C63.7 158.3 63.8001 158.2 63.8001 158.2L87.2 129.6C80.2 128.2 45 120.6 41 113.6C36.7 105.9 43.1 87.4001 43.4 86.6001C43.5 86.2001 43.9001 86 44.3001 86.2C44.7001 86.3 44.9 86.7001 44.7 87.1001C44.6 87.3001 38.2001 105.8 42.3001 113C45.6001 118.9 76.9 126.3 88.7 128.6C88.9 128.6 89.1 128.8 89.2 129C89.3 129.2 89.2001 129.5 89.1001 129.7L65.6001 158.4L72.8001 161C75.8001 160.2 109.8 150.6 112.7 138.1C115.7 125.2 78.3 101.5 78 101.3C77.7 101.1 77.6001 100.6 77.8001 100.3C78.0001 100 78.4001 99.9001 78.8001 100.1C80.4001 101.1 117.4 124.5 114.1 138.4C110.8 152.3 74.5 162 73 162.4L72.7 162.3Z" fill="#231F20"/>
<path d="M87.7 39.4004C84.8 38.7004 82.1 37.1004 80 35.0004C79 34.1004 78.4 32.8004 78.1 31.5004C77.9 30.1004 78.6 28.8004 79.8 28.2004C78.5 27.4004 77.7 26.0004 77.7 24.5004C77.6 23.0004 78 21.5004 78.7 20.2004C79.6 18.5004 81 16.8004 83 16.7004C82.3 15.2004 81.5 13.5004 82.2 12.0004C82.6 11.3004 83.1 10.6004 83.8 10.2004C85 9.20037 86.4 8.30038 87.8 7.50038C88.6 7.10038 89.6 6.70037 90.2 7.20037C91 4.10037 93.5 1.70038 96.6 1.10038C98.1 0.800375 99.7 0.900375 101.1 1.60038C102.5 2.50038 103.8 3.60037 105 4.70037C107.2 4.00037 110.8 4.50037 112.5 6.20037C114 7.70037 114.5 9.90038 113.9 11.9004C115.5 12.8004 116.9 14.0004 118.1 15.5004C119.2 17.0004 119.6 18.9004 119.1 20.7004C118.6 22.5004 116.9 23.8004 115 23.7004C116.5 25.3004 116.7 27.8004 115.3 29.5004C113.9 31.2004 111.6 31.8004 109.5 31.1004C109.2 31.0004 108.9 30.9004 108.6 30.9004C108.2 31.0004 107.9 31.2004 107.7 31.5004C106.8 32.2004 105.6 32.0004 104.6 32.5004C103.2 33.3004 102 34.3004 100.8 35.3004C99.6 36.2004 98.3 37.0004 96.9 37.7004C95.4 38.5004 94.1 39.8004 92.4 40.3004C91 40.8004 90.1 40.1004 88.8 39.7004L87.7 39.4004Z" fill="white"/>
<path d="M91.4001 41.2002C90.7001 41.2002 90.1001 41.0002 89.5001 40.8002C89.2001 40.7002 88.9001 40.6002 88.6001 40.5002L87.6001 40.2002C84.6001 39.4002 81.8001 37.8002 79.6001 35.5002C78.5001 34.5002 77.8001 33.1002 77.5001 31.6002C77.3001 30.3002 77.8001 29.0002 78.7001 28.1002C77.7001 27.1002 77.2001 25.9002 77.1001 24.5002C77.0001 22.9002 77.4001 21.3002 78.2001 19.9002C78.9001 18.2002 80.3001 16.9002 82.1001 16.2002C81.3001 14.8002 81.2001 13.2002 81.7001 11.8002C82.1001 11.0002 82.7001 10.2002 83.5001 9.70015C84.8001 8.60015 86.2001 7.70016 87.6001 6.90016C88.3001 6.50016 89.1001 6.30016 89.9001 6.30016C91.0001 3.30016 93.5001 1.10016 96.7001 0.400156C98.4001 0.000156254 100.1 0.200156 101.7 0.900156C103 1.80016 104.2 2.80016 105.4 3.90016C107.8 3.30016 111.3 3.90015 113.2 5.70015C114.7 7.20015 115.4 9.40015 115 11.6002C116.5 12.5002 117.9 13.7002 118.9 15.1002C120.1 16.8002 120.6 18.9002 120 20.9002C119.5 22.5002 118.2 23.8002 116.6 24.3002C117.6 26.1002 117.4 28.4002 116.1 30.0002C114.5 31.9002 111.9 32.6002 109.5 31.8002C109.3 31.7002 109.1 31.7002 109 31.7002C108.8 31.8002 108.7 31.9002 108.6 32.0002L108.4 32.2002C107.8 32.6002 107.1 32.9002 106.3 33.0002C105.9 33.0002 105.5 33.1002 105.2 33.3002C104.3 33.8002 103.5 34.4002 102.7 35.1002C102.3 35.4002 101.9 35.8002 101.5 36.1002C100.2 37.1002 98.8001 37.9002 97.6001 38.6002C97.1001 38.9002 96.7001 39.2002 96.2001 39.5002C95.2001 40.2002 94.2001 40.8002 93.0001 41.2002C92.2001 41.1002 91.8001 41.2002 91.4001 41.2002ZM87.9001 38.8002L88.9001 39.1002C89.3001 39.2002 89.6001 39.3002 89.9001 39.4002C90.6001 39.8002 91.4001 39.8002 92.2001 39.6002C93.2001 39.2002 94.2001 38.7002 95.0001 38.0002C95.5001 37.7002 96.0001 37.3002 96.5001 37.0002C97.8001 36.3002 99.1001 35.5002 100.3 34.6002C100.7 34.3002 101.1 34.0002 101.5 33.7002C102.3 33.0002 103.3 32.3002 104.3 31.8002C104.8 31.6002 105.3 31.4002 105.8 31.4002C106.3 31.4002 106.8 31.2002 107.2 30.9002L107.3 30.8002C107.6 30.5002 108 30.3002 108.4 30.2002C108.8 30.2002 109.2 30.2002 109.5 30.4002C111.3 31.1002 113.4 30.5002 114.6 29.1002C115.7 27.6002 115.6 25.6002 114.4 24.2002C114.2 24.0002 114.1 23.7002 114.2 23.4002C114.3 23.2002 114.6 23.0002 114.9 23.0002C116.5 23.0002 117.8 22.0002 118.3 20.5002C118.7 18.9002 118.4 17.2002 117.4 15.9002C116.3 14.5002 115 13.4002 113.5 12.6002C113.2 12.4002 113.1 12.1002 113.2 11.8002C113.7 10.0002 113.2 8.10016 111.9 6.80016C110.4 5.30016 107.1 4.90015 105.1 5.50015C104.8 5.60015 104.4 5.40015 104.2 5.10015C103.1 4.10015 102 3.20016 100.8 2.30016C99.5001 1.70016 98.1001 1.60016 96.7001 1.90016C93.9001 2.50016 91.6001 4.70016 90.9001 7.40016C90.8001 7.60016 90.7001 7.80016 90.5001 7.90016C90.3001 8.00016 90.0001 7.90016 89.8001 7.80016C89.4001 7.50016 88.7001 7.80015 88.1001 8.10015C86.7001 8.90015 85.4001 9.70015 84.2001 10.7002C83.6001 11.1002 83.1001 11.7002 82.8001 12.3002C82.3001 13.5002 82.9001 15.1002 83.6001 16.4002C83.7001 16.6002 83.7001 16.9002 83.6001 17.1002C83.5001 17.3002 83.3001 17.4002 83.0001 17.4002C81.0001 17.5002 79.8001 19.6002 79.3001 20.5002C78.6001 21.7002 78.3001 23.0002 78.4001 24.4002C78.5001 25.7002 79.1001 26.8002 80.2001 27.6002C80.4001 27.7002 80.6001 28.0002 80.6001 28.3002C80.6001 28.6002 80.4001 28.8002 80.2001 28.9002C79.3001 29.4002 78.7001 30.4002 78.9001 31.5002C79.1001 32.7002 79.7001 33.8002 80.6001 34.6002C82.6001 36.6002 85.2001 38.1002 87.9001 38.8002Z" fill="#231F20"/>
<path d="M108.5 32C108.5 32 110.7 39.2 109.5 40.2C108.3 41.2 105.8 39.6 105.8 39.6" fill="white"/>
<path d="M108.5 41.3001C107.4 41.2001 106.3 40.8001 105.4 40.2001C105.1 40.0001 105 39.6001 105.2 39.2001C105.4 38.8001 105.8 38.8001 106.2 39.0001C107 39.5001 108.5 40.1001 109.1 39.7001C109.5 39.2001 108.9 35.7001 107.9 32.2001C107.7 31.8001 107.9 31.4001 108.3 31.3001C108.7 31.1001 109.1 31.3001 109.2 31.7001V31.8001C110.1 34.7001 111.4 39.6001 110 40.8001C109.6 41.1001 109.1 41.3001 108.5 41.3001Z" fill="#231F20"/>
<path d="M111.1 18.4003C111.4 18.7003 111.6 19.1003 111.7 19.6003C111.9 21.2003 111.9 22.8003 111.5 24.4003C110.9 27.5003 110.1 30.6003 109.1 33.6003C107.9 37.6003 106.6 41.6003 105.2 45.5003C104.3 48.0003 97.6999 46.1003 96.7999 45.0003L94.8999 55.4003C94.8999 55.4003 91.4999 55.3003 86.8999 51.3003C82.2999 47.3003 82.5999 46.0003 82.5999 46.0003L86.3999 34.5003C86.3999 34.5003 90.7999 35.8003 94.7999 31.4003C95.3999 30.7003 95.9999 29.5003 96.7999 28.9003C97.6999 28.2003 98.8999 28.4003 99.6999 27.4003C100.5 26.5003 100.8 25.2003 100.5 24.0003C100.4 23.8003 100.4 23.4003 100.6 23.3003C100.7 23.2003 100.9 23.2003 101 23.2003C102.8 22.8003 103.9 21.1003 103.6 19.4003C105.3 19.9003 106.9 18.6003 108.1 17.3003C107.7 17.7003 110.7 18.2003 110.7 18.2003C110.8 18.2003 111 18.3003 111.1 18.4003Z" fill="white"/>
<path d="M94.8001 56.1001C94.6001 56.1001 91.1001 56.0001 86.3001 51.8001C81.9001 47.9001 81.7001 46.3001 81.8001 45.8001L85.7001 34.3001C85.8001 33.9001 86.2001 33.7001 86.6001 33.9001C86.8001 33.9001 90.6001 35.0001 94.3001 31.0001C94.6001 30.7001 94.8001 30.4001 95.0001 30.0001C95.4001 29.4001 95.8001 28.8001 96.4001 28.3001C96.8001 28.0001 97.3001 27.8001 97.8001 27.7001C98.3001 27.6001 98.8001 27.3001 99.2001 26.9001C99.8001 26.1001 100.1 25.1001 99.8001 24.2001C99.6001 23.7001 99.7001 23.2001 100.1 22.8001C100.3 22.6001 100.6 22.5001 100.9 22.5001C101.6 22.4001 102.2 22.0001 102.5 21.4001C102.9 20.8001 103 20.2001 102.9 19.5001C102.8 19.3001 102.9 19.0001 103.1 18.8001C103.3 18.6001 103.5 18.6001 103.8 18.6001C105.1 19.0001 106.5 17.8001 107.6 16.7001C107.9 16.4001 108.3 16.4001 108.6 16.7001C108.7 16.8001 108.7 16.8001 108.7 16.9001C109.4 17.1001 110 17.3001 110.7 17.4001C110.8 17.4001 110.9 17.4001 110.9 17.5001C111.2 17.6001 111.4 17.7001 111.6 17.9001C112 18.3001 112.3 18.9001 112.4 19.5001C112.7 21.2001 112.6 22.9001 112.2 24.6001C111.6 27.5001 110.9 30.3001 110 33.1001L109.7 34.0001C108.5 38.0001 107.2 42.0001 105.8 46.0001C105.4 46.9001 104.6 47.5001 103.6 47.6001C101.4 47.8001 99.2001 47.4001 97.2001 46.4001L95.5001 55.7001C95.4001 55.9001 95.1001 56.2001 94.8001 56.1001ZM83.2001 46.1001C83.3001 46.4001 83.7001 47.7001 87.2001 50.8001C89.2001 52.7001 91.6001 54.0001 94.2001 54.6001L96.0001 45.0001C96.1001 44.6001 96.4001 44.4001 96.8001 44.4001C97.0001 44.4001 97.1001 44.5001 97.2001 44.6001C97.7001 45.2001 101.2 46.4001 103.3 46.0001C103.9 45.9001 104.3 45.6001 104.4 45.3001C105.8 41.4001 107.1 37.4001 108.3 33.4001L108.6 32.5001C109.5 29.8001 110.2 27.0001 110.7 24.3001C111.1 22.8001 111.1 21.3001 110.9 19.8001C110.8 19.3001 110.7 19.1001 110.6 19.0001C110.5 18.9001 110.4 18.9001 110.3 18.8001C109.5 18.7001 108.7 18.5001 107.9 18.2001C106.9 19.3001 105.6 20.0001 104.2 20.1001C104.2 20.8001 103.9 21.5001 103.5 22.2001C102.9 23.1001 102 23.7001 101 23.9001C101.3 25.3001 101 26.8001 100.1 27.9001C99.6001 28.5001 98.9001 28.9001 98.1001 29.1001C97.7001 29.2001 97.4001 29.4001 97.1001 29.6001C96.7001 30.0001 96.4001 30.4001 96.1001 30.9001C95.9001 31.3001 95.6001 31.7001 95.3001 32.0001C91.9001 35.7001 88.3001 35.7001 86.8001 35.4001L83.2001 46.1001Z" fill="#231F20"/>
<path d="M105.9 42.5004C103.5 42.3004 101.6 40.3004 101.4 37.9004Z" fill="white"/>
<path d="M105.9 43.2C103.1 43 101 40.8 100.7 38C100.6 37.6 100.9 37.3 101.3 37.2C101.7 37.1 102 37.4001 102.1 37.8001C102.2 39.9001 103.8 41.6001 105.9 41.8001C106.3 41.8001 106.6 42.1 106.6 42.5C106.7 42.9 106.4 43.3 105.9 43.2Z" fill="#231F20"/>
<path d="M100.1 32.3002C100.3 31.3002 100.2 30.2002 99.8001 29.2002C99.6001 28.4002 99.3001 27.7002 98.9001 27.0002C98.5001 26.3002 97.7001 25.8002 96.9001 25.7002C96.2001 25.7002 95.5001 26.0002 95.0001 26.5002C94.5001 27.0002 94.1001 27.7002 93.9001 28.3002C92.9001 31.3002 93.5001 34.7002 95.6001 37.1002L95.5001 36.8002" fill="white"/>
<path d="M95.6 37.8C95.4 37.8 95.2 37.7 95.1 37.6C92.8 35 92.1 31.4 93.2 28.1C93.5 27.3 93.9 26.6 94.4 26C95 25.3 96 25 96.9 25C97.9 25.1 98.9 25.7 99.4 26.6C99.9 27.4 100.2 28.2 100.4 29C100.8 30.1 100.9 31.3 100.7 32.5C100.6 32.9 100.2 33.1 99.8 33C99.4 32.9 99.2 32.5 99.3 32.1C99.4 31.2 99.3 30.3 99 29.4C98.8 28.7 98.5 28 98.2 27.3C97.9 26.8 97.4 26.4 96.8 26.3C96.3 26.3 95.8 26.5 95.4 26.9C95 27.4 94.7 27.9 94.5 28.5C93.6 31.1 94.1 33.9 95.7 36.1C95.9 36.2 96 36.3 96.1 36.4L96.2 36.7C96.4 37 96.3 37.4 96 37.6C95.8 37.8 95.7 37.8 95.6 37.8Z" fill="#231F20"/>
<path d="M96.7 45.1002C96.7 45.1002 93.6 43.0002 92.7 40.2002C92.7 40.2002 91.1 46.4002 95.8 49.7002L96.7 45.1002Z" fill="#231F20"/>
<path d="M95.8999 50.4001C95.7999 50.4001 95.5999 50.4001 95.4999 50.3001C90.3999 46.8001 91.9999 40.3001 92.0999 40.1001C92.1999 39.8001 92.3999 39.6001 92.7999 39.6001C93.0999 39.6001 93.3999 39.8001 93.4999 40.1001C94.2999 42.6001 97.1999 44.6001 97.1999 44.6001C97.3999 44.8001 97.4999 45.0001 97.4999 45.3001L96.5999 49.9001C96.5999 50.1001 96.3999 50.3001 96.1999 50.4001C95.9999 50.4001 95.9999 50.4001 95.8999 50.4001ZM93.0999 42.6001C92.9999 44.8001 93.7999 46.9001 95.2999 48.4001L95.8999 45.4001C94.8999 44.6001 93.8999 43.7001 93.0999 42.6001Z" fill="#231F20"/>
<path d="M107.141 27.9496C107.404 27.1639 107.362 26.4418 107.048 26.3368C106.733 26.2317 106.266 26.7834 106.003 27.5691C105.74 28.3548 105.782 29.0769 106.096 29.182C106.411 29.287 106.878 28.7353 107.141 27.9496Z" fill="#231F20"/>
<path d="M101.1 55.4003C100.4 53.4003 87.6 38.1003 78.3 41.8003C69 45.5003 49.4 73.8003 44 86.7003L79.2 103.5C79.2 103.6 104.7 66.4003 101.1 55.4003Z" fill="#68E1FD"/>
<path d="M85.8 76.2004C85.8 76.2004 89.0001 93.6004 101.1 98.7004C113.2 103.8 139.6 96.6004 139.6 96.6004V83.3004C139.6 83.3004 123.1 89.9004 115 83.3004C106.9 76.7004 101.1 55.4004 101.1 55.4004L85.8 76.2004Z" fill="#68E1FD"/>
<path d="M60.8001 166.7C60.8001 166.7 56.6001 174.4 57.8001 175.1C59.0001 175.8 76.9001 175.2 76.5001 174.2C76.1001 173.2 68.8001 167.7 68.8001 167.7L60.8001 166.7Z" fill="#231F20"/>
<path d="M62.9 176.2C60.1 176.2 57.9 176.1 57.4 175.7C56.9 175.3 55.6 174.6 60.2 166.3C60.3 166 60.6 165.9 60.9 165.9L68.9 166.9C69 166.9 69.1 167 69.2 167C71.4 168.7 76.7 172.7 77.1 173.8C77.2 174.1 77.1 174.5 76.8 174.7C75.9 175.6 68.3 176.2 62.9 176.2ZM58.2 174.5C60 175 72.3 174.6 75.4 173.9C73.2 171.9 70.9 170.1 68.5 168.3L61.2 167.4C59.6 170.3 58.1 173.6 58.2 174.5Z" fill="#231F20"/>
<path d="M45.9999 203.6C45.9999 203.6 44.8 211.7 45.6 212.2C46.4 212.7 65.7999 212.3 64.8999 210.7C63.9999 209.1 53.7999 204.9 53.7999 204.9L45.9999 203.6Z" fill="#231F20"/>
<path d="M50.3 213.1C48.6 213.2 47 213.1 45.3 212.8C44.9 212.6 44.1 212.1 45.3 203.5C45.3 203.1 45.7 202.9 46.1 202.9L53.9 204.3H54C56.4 205.3 64.5 208.7 65.4 210.3C65.6 210.7 65.5 211.1 65.2 211.4C64.2 212.7 55.9 213.1 50.3 213.1ZM46.2 211.6C48.1 211.9 61.1 211.6 64 210.7C62.6 209.6 57.9 207.4 53.7 205.7L46.7 204.5C46.3 206.9 46.1 209.2 46.2 211.6Z" fill="#231F20"/>
<path d="M65.9001 124.3C65.8001 124.3 65.8001 124.3 65.7001 124.3C64.9001 124 46.3001 117.5 41.3001 113.6C41.1001 113.4 41.1001 113.1 41.3001 112.9C41.5001 112.7 41.7001 112.7 41.9001 112.8C46.8001 116.5 65.9001 123.2 66.1001 123.3C66.4001 123.4 66.5001 123.7 66.4001 124C66.3001 124.2 66.2001 124.3 65.9001 124.3Z" fill="white"/>
<path d="M114.6 101.6C112.3 101.6 109.7 101.5 107 101.3C89.6001 99.8001 82.1001 73.0001 81.8001 71.9001C81.7001 71.5001 81.9001 71.1001 82.3001 71.0001C82.7001 70.9001 83.1001 71.1001 83.2001 71.5001C83.3001 71.8001 90.8001 98.5001 107.2 99.9001C123.9 101.3 133.1 97.5001 133.2 97.5001C133.6 97.4001 134 97.5001 134.1 97.9001C134.3 98.3001 134.1 98.7001 133.7 98.8001C133.3 98.9001 126.8 101.6 114.6 101.6Z" fill="#231F20"/>
<path d="M111.4 80.1003C111.2 80.1003 111 80.0003 110.8 79.8003C109 77.6003 101.7 63.0002 100.7 57.8003C99.7999 53.2003 97.1 51.4002 97.1 51.4002C96.8 51.2002 96.6999 50.7002 96.8999 50.4002C97.0999 50.1002 97.5 50.0002 97.8 50.2002C97.9 50.3002 101 52.3003 102 57.6003C103 62.6003 110.3 77.0002 111.9 79.0002C112.1 79.3002 112.1 79.7002 111.8 80.0002C111.7 80.0002 111.5 80.1003 111.4 80.1003Z" fill="#231F20"/>
</svg>
