<svg width="354" height="341" viewBox="0 0 354 341" fill="none" xmlns="http://www.w3.org/2000/svg">
<path d="M70.5002 29C70.5002 29 57.0002 11.2 52.1002 10.2C47.2002 9.20004 5.40018 63 5.50018 69.8C5.60018 76.6 35.5002 90.6001 35.5002 90.6001L70.5002 29Z" fill="#231F20"/>
<path d="M35.6006 91.3C35.5006 91.3 35.4006 91.3 35.3006 91.2C32.2006 89.7 5.00062 76.8 4.90062 69.8C4.80062 63.4 37.8006 20.4 48.6006 11.4C50.9006 9.50001 51.8006 9.4 52.3006 9.5C57.4006 10.5 69.7006 26.7 71.2006 28.5C71.4006 28.7 71.4006 29 71.3006 29.3L36.3006 91C36.0006 91.2 35.8006 91.3 35.6006 91.3ZM51.9006 10.9C51.8006 10.9 51.0006 11 48.5006 13.3C36.2006 24.5 6.10061 64.6 6.20061 69.8C6.30061 75 26.6006 85.6 35.2006 89.7L69.6006 29C65.8006 23.9 55.7006 11.6 51.9006 10.9Z" fill="#231F20"/>
<path d="M313 89.4001C313.7 89.1001 339.6 62.3001 340.2 55.3001C340.8 48.3001 283 -1.19993 276 1.80007C269 4.80007 244.7 42.9001 244.7 42.9001L311.9 87.3001" fill="#231F20"/>
<path d="M313 90.1001C312.7 90.1001 312.5 89.9001 312.4 89.7001C312.3 89.4001 312.4 89.0001 312.7 88.8001C314.1 87.7001 339 61.8 339.6 55.2C340 51.1 314.7 27.3001 293.8 12.0001C280.2 2.10005 277 2.20005 276.4 2.40005C271.1 4.60005 254.3 29.4 245.8 42.6L312.5 86.6001C312.8 86.8001 312.9 87.2001 312.7 87.6001C312.5 87.9001 312.1 88.0001 311.7 87.8001L244.5 43.4001C244.2 43.2001 244.1 42.8001 244.3 42.4001C245.3 40.8001 268.8 4.10005 275.9 1.00005C276.8 0.600051 279.3 -0.499951 294.7 10.7C313.4 24.3 341.6 49.6001 341.1 55.1001C340.4 62.7001 313.7 89.7001 313.5 89.8001C313.2 90.0001 313.1 90.1001 313 90.1001Z" fill="#231F20"/>
<path d="M266.9 311.6C266.9 311.6 288.5 339.8 294.8 340.4C301.1 341 354.2 290.2 352.4 285.3C350.6 280.4 319.6 253.8 319.6 253.8L266.9 311.6Z" fill="#231F20"/>
<path d="M294.9 341H294.8C288.3 340.5 268.6 314.9 266.4 312C266.2 311.7 266.2 311.4 266.4 311.1L319.1 253.2C319.4 252.9 319.8 252.9 320.1 253.1C321.4 254.2 351.2 279.9 353.1 284.9C353.4 285.6 353.2 286.9 350.1 290.9C339.9 304.4 301.2 341 294.9 341ZM267.9 311.6C274.1 319.7 290.1 339.2 294.9 339.6H295C299.5 339.6 331.9 310.4 346.5 293.2C352 286.8 351.8 285.5 351.8 285.3C350.4 281.5 328.7 262.2 319.8 254.5L267.9 311.6Z" fill="#231F20"/>
<path d="M49.7997 245C49.7997 245 4.99971 280.8 1.69971 284.2C-1.60029 287.6 49.8997 343.2 57.1997 340.2C64.4997 337.2 83.1997 313.8 83.1997 313.8L49.7997 245Z" fill="#231F20"/>
<path d="M56.6001 341C47.9001 341 11.7001 302.3 3.10013 289.4C0.900133 286.1 0.400132 284.5 1.20013 283.7C4.50013 280.3 47.5001 245.9 49.4001 244.4C49.6001 244.3 49.8001 244.2 50.0001 244.3C50.2001 244.4 50.4001 244.5 50.5001 244.7L83.8001 313.5C83.9001 313.7 83.9001 314 83.7001 314.2C82.9001 315.2 64.8001 337.8 57.4001 340.8C57.2001 341 56.9001 341 56.6001 341ZM49.5001 246.1C43.8001 250.6 5.20013 281.6 2.10013 284.7C1.40013 287.7 26.1001 316.1 43.7001 331.3C53.7001 339.9 56.3001 339.8 56.8001 339.6C63.3001 337 79.9001 316.6 82.2001 313.7L49.5001 246.1Z" fill="#231F20"/>
<path d="M176.6 335C264.524 335 335.8 263.724 335.8 175.8C335.8 87.8761 264.524 16.5999 176.6 16.5999C88.6767 16.5999 17.4004 87.8761 17.4004 175.8C17.4004 263.724 88.6767 335 176.6 335Z" fill="white"/>
<path d="M176.6 335.7C88.4002 335.7 16.7002 264 16.7002 175.8C16.7002 87.5999 88.4002 15.8999 176.6 15.8999C264.8 15.8999 336.5 87.5999 336.5 175.8C336.5 264 264.8 335.7 176.6 335.7ZM176.6 17.2999C89.2002 17.2999 18.1002 88.3999 18.1002 175.8C18.1002 263.2 89.2002 334.3 176.6 334.3C264 334.3 335.1 263.2 335.1 175.8C335.1 88.3999 264 17.2999 176.6 17.2999Z" fill="#231F20"/>
<path d="M115.876 66.5395L98.7754 94.7644L139.317 119.327L156.417 91.1022L115.876 66.5395Z" fill="white"/>
<path d="M139.2 120.1C139.1 120.1 138.9 120.1 138.8 120L98.3004 95.3998C98.0004 95.1998 97.8004 94.7998 98.0004 94.3998L115.1 66.1998C115.3 65.8998 115.7 65.6998 116.1 65.8998L156.6 90.4998C156.8 90.5998 156.9 90.7998 156.9 90.8998C156.9 91.0998 156.9 91.2998 156.8 91.3998L139.7 119.6C139.6 119.8 139.4 119.9 139.3 119.9L139.2 120.1ZM99.7004 94.5999L139 118.4L155.4 91.3998L116 67.5999L99.7004 94.5999Z" fill="#231F20"/>
<path d="M99.9521 94.2051L82.8262 122.529L123.557 147.157L140.683 118.833L99.9521 94.2051Z" fill="white"/>
<path d="M122.2 148.3C122.1 148.3 121.9 148.3 121.8 148.2L81.3 123.6C81.1 123.5 81 123.3 81 123.2C81 123 81 122.8 81.1 122.7L98.2 94.5C98.3 94.3 98.5 94.2 98.6 94.2C98.8 94.2 99 94.2 99.1 94.3L139.6 118.9C139.8 119 139.9 119.2 139.9 119.3C139.9 119.5 139.9 119.7 139.8 119.8L122.7 148C122.6 148.1 122.4 148.3 122.2 148.3ZM82.6 122.8L121.9 146.6L138.3 119.6L99 95.8L82.6 122.8Z" fill="#231F20"/>
<path d="M136.5 111.2C136.4 111.2 136.3 111.2 136.1 111.1C135.8 110.9 135.7 110.5 135.9 110.2L146.6 92.6C146.8 92.3 147.2 92.1999 147.5 92.3999C147.8 92.5999 147.9 93 147.7 93.3L137 110.9C137 111 136.8 111.1 136.5 111.2Z" fill="#D1D3D4"/>
<path d="M132.3 103C132.2 103 132.1 103 131.9 102.9C131.6 102.7 131.5 102.3 131.7 102L139.9 88.4999C140.1 88.1999 140.5 88.0999 140.8 88.2999C141.1 88.4999 141.2 88.8998 141 89.1998L132.8 102.7C132.7 102.9 132.5 103 132.3 103Z" fill="#D1D3D4"/>
<path d="M123.101 103C123.001 103 122.901 103 122.701 102.9C122.401 102.7 122.301 102.3 122.501 102L131.101 87.6998C131.301 87.3998 131.701 87.2998 132.001 87.4998C132.301 87.6998 132.401 88.0998 132.201 88.3998L123.601 102.7C123.501 102.9 123.301 103 123.101 103Z" fill="#D1D3D4"/>
<path d="M116.3 98.8999C116.2 98.8999 116.1 98.8999 115.9 98.7999C115.6 98.5999 115.5 98.1999 115.7 97.8999L120 90.7999C120.2 90.4999 120.6 90.3999 120.9 90.5999C121.2 90.7999 121.3 91.1999 121.1 91.4999L116.8 98.5999C116.8 98.7999 116.6 98.8999 116.3 98.8999Z" fill="#D1D3D4"/>
<path d="M123.3 87.4999C123.2 87.4999 123.1 87.4999 122.9 87.3999C122.6 87.1999 122.5 86.7999 122.7 86.4999L126.4 80.2999C126.6 79.9999 127 79.8999 127.3 80.0999C127.6 80.2999 127.7 80.6999 127.5 80.9999L123.8 87.1999C123.7 87.2999 123.5 87.4999 123.3 87.4999Z" fill="#D1D3D4"/>
<path d="M111.8 91.2999C111.7 91.2999 111.6 91.2999 111.4 91.1999C111.1 90.9999 111 90.5999 111.2 90.2999L119.7 76.2999C119.9 75.9999 120.3 75.8999 120.6 76.0999C120.9 76.2999 121 76.6999 120.8 76.9999L112.3 90.9999C112.2 91.0999 112 91.2999 111.8 91.2999Z" fill="#D1D3D4"/>
<path d="M119.4 139.4C119.3 139.4 119.2 139.4 119 139.3C118.7 139.1 118.6 138.7 118.8 138.4L129.5 120.8C129.7 120.5 130.1 120.4 130.4 120.6C130.7 120.8 130.8 121.2 130.6 121.5L120 139C119.9 139.2 119.7 139.3 119.4 139.4Z" fill="#D1D3D4"/>
<path d="M115.2 131.2C115.1 131.2 115 131.2 114.8 131.1C114.5 130.9 114.4 130.5 114.6 130.2L122.8 116.7C123 116.4 123.4 116.3 123.7 116.5C124 116.7 124.1 117.1 123.9 117.4L115.7 130.9C115.6 131.1 115.4 131.2 115.2 131.2Z" fill="#D1D3D4"/>
<path d="M106 131.2C105.9 131.2 105.8 131.2 105.6 131.1C105.3 130.9 105.2 130.5 105.4 130.2L114 115.9C114.2 115.6 114.6 115.5 114.9 115.7C115.2 115.9 115.3 116.3 115.1 116.6L106.5 130.9C106.4 131.1 106.2 131.2 106 131.2Z" fill="#D1D3D4"/>
<path d="M257.461 184.797L194.883 235.599L198.349 239.87L260.927 189.067L257.461 184.797Z" fill="white"/>
<path d="M198.301 240.6C198.001 240.6 197.901 240.5 197.801 240.4L194.301 236.1C194.101 235.8 194.101 235.3 194.401 235.1L257.001 184.3C257.301 184.1 257.701 184.1 258.001 184.4L261.501 188.7C261.601 188.8 261.701 189 261.601 189.2C261.601 189.4 261.501 189.6 261.401 189.7L198.801 240.5C198.601 240.6 198.501 240.6 198.301 240.6ZM195.801 235.8L198.401 239L259.901 189L257.301 185.8L195.801 235.8Z" fill="#231F20"/>
<path d="M259.959 189.894L199.244 239.183L224.708 270.55L285.423 221.26L259.959 189.894Z" fill="white"/>
<path d="M224.7 271.3C224.4 271.3 224.3 271.2 224.2 271.1L198.7 239.7C198.5 239.4 198.5 238.9 198.8 238.7L259.5 189.4C259.8 189.2 260.3 189.2 260.5 189.5L286 220.9C286.1 221 286.2 221.2 286.1 221.4C286.1 221.6 286 221.8 285.9 221.9L225.2 271.2C225.1 271.2 224.9 271.3 224.7 271.3ZM200.2 239.3L224.8 269.6L284.4 221.2L259.8 190.9L200.2 239.3Z" fill="#231F20"/>
<path d="M217.6 255.5C217.4 255.5 217.2 255.4 217.1 255.3L204.4 239.6C204.3 239.5 204.2 239.3 204.3 239.1C204.3 238.9 204.4 238.8 204.5 238.6L258.3 194.9C258.4 194.8 258.6 194.7 258.8 194.8C259 194.8 259.1 194.9 259.3 195L272 210.7C272.2 211 272.2 211.4 271.9 211.6L218.1 255.3C217.9 255.4 217.8 255.5 217.6 255.5ZM205.9 239.2L217.8 253.8L270.6 211L258.7 196.4L205.9 239.2Z" fill="#D1D3D4"/>
<path d="M246.001 249C245.801 249 245.601 248.9 245.501 248.8L239.301 241.2C239.201 241.1 239.101 240.9 239.201 240.7C239.201 240.5 239.301 240.4 239.401 240.2L252.801 229.3C253.101 229.1 253.501 229.1 253.701 229.4L259.901 237C260.101 237.3 260.101 237.7 259.801 237.9L246.401 248.8C246.301 248.9 246.101 249 246.001 249ZM240.701 240.8L246.101 247.4L258.401 237.4L253.001 230.8L240.701 240.8Z" fill="#D1D3D4"/>
<path d="M233.6 279.7C233.6 279.7 235.4 269.4 234.6 267.2C233.8 265 232.1 260.3 230.9 261.6C229.7 262.9 230.5 267.1 230.5 267.1C230.5 267.1 228.4 264 226.4 260.8C224.4 257.6 222.6 257.6 222.5 258.7C222.4 259.8 224.2 264.4 224.2 264.4C224.2 264.4 221.5 258 220.5 259.6C219.5 261.2 221.5 266.8 221.5 266.8C221.5 266.8 218.5 259.9 217.4 262.3C216.3 264.7 217.6 269.5 218.5 271.2C219.4 272.9 226.4 285.6 226.4 285.6L234.6 279.2" fill="white"/>
<path d="M226.5 286.3H226.4C226.2 286.3 226 286.1 225.9 285.9C225.6 285.4 218.8 273.2 218 271.5C217.2 269.8 215.6 264.6 216.9 262C217.1 261.5 217.6 261.1 218.1 261.1C218.7 261.2 219.3 261.6 219.7 262.1C219.5 261.1 219.6 260.2 220 259.3C220.2 258.9 220.6 258.7 221.1 258.8C221.4 258.8 221.7 259 221.9 259.2C221.9 259.1 221.9 258.9 221.9 258.8C221.9 258.2 222.3 257.7 222.9 257.5C224.1 257.2 225.7 258.3 227 260.5C227.9 262 228.8 263.4 229.6 264.5C229.5 263.3 229.8 262.1 230.4 261.1C230.7 260.8 231.1 260.6 231.6 260.7C232.1 260.8 233.2 261 235.3 267C235.9 268.9 235 275.6 234.5 278.5C234.9 278.4 235.3 278.7 235.3 279C235.4 279.3 235.3 279.5 235.1 279.7L226.9 286.1C226.7 286.2 226.6 286.3 226.5 286.3ZM218.2 262.6C217.3 264.6 218.3 269.1 219.3 270.9C220 272.3 225.3 281.8 226.8 284.5L233 279.6V279.5C233.7 275.6 234.6 268.8 234.1 267.4C232.7 263.3 231.8 262.3 231.6 262.1C231 262.9 231.1 265.4 231.4 267C231.5 267.3 231.3 267.6 231 267.8C230.7 267.9 230.3 267.8 230.2 267.6C230.2 267.6 228.1 264.5 226.1 261.3C224.7 259 223.6 258.8 223.5 258.9C223.9 260.8 224.5 262.6 225.2 264.3C225.3 264.7 225.2 265.1 224.8 265.2C224.4 265.3 224 265.2 223.9 264.8C223.3 263.2 222.4 261.7 221.4 260.3C221 261.3 221.7 264.3 222.6 266.7C222.7 267.1 222.5 267.5 222.1 267.6C221.8 267.7 221.5 267.5 221.3 267.3C220 264.9 218.8 262.8 218.2 262.6Z" fill="#231F20"/>
<path d="M261.7 228.8C261.7 228.8 251.6 231.6 249.4 231.1C247.2 230.6 242.3 229.3 243.4 228C244.5 226.7 248.9 227 248.9 227C248.9 227 245.6 225.2 242.2 223.6C238.8 222 238.7 220.1 239.7 219.9C240.7 219.7 245.6 221.1 245.6 221.1C245.6 221.1 239 219.1 240.5 217.9C242 216.7 247.7 218.2 247.7 218.2C247.7 218.2 240.6 215.9 242.8 214.5C245 213.1 250 214 251.8 214.7C253.6 215.4 266.9 221.1 266.9 221.1L261.4 229.9" fill="white"/>
<path d="M250.1 231.8C249.8 231.8 249.5 231.8 249.2 231.7C243.1 230.2 242.7 229.2 242.6 228.7C242.5 228.3 242.6 227.8 242.9 227.5C243.8 226.8 245 226.3 246.2 226.3C245 225.7 243.5 224.9 242 224.1C239.7 223 238.4 221.5 238.6 220.3C238.7 219.7 239.2 219.2 239.8 219.1C239.9 219.1 240.1 219.1 240.2 219.1C240 218.9 239.8 218.6 239.8 218.4C239.7 218 239.9 217.5 240.2 217.3C241 216.8 242 216.6 243 216.7C242.4 216.4 242 215.9 241.9 215.2C241.8 214.6 242.1 214.1 242.6 213.9C245.1 212.4 250.4 213.3 252.2 214C254 214.7 266.8 220.2 267.3 220.4C267.6 220.6 267.8 221 267.7 221.3V221.4L262.2 230.2C262 230.5 261.6 230.6 261.2 230.4C261 230.3 260.8 230 260.9 229.7C258.1 230.5 252.6 231.8 250.1 231.8ZM244 228.4C244.2 228.6 245.3 229.4 249.6 230.4C251.1 230.8 257.7 229.2 261.5 228.1H261.6L265.8 221.4C263 220.2 253 215.9 251.5 215.3C249.6 214.6 245 213.9 243.1 215.1L243 215.2C243.2 215.6 245.5 216.7 247.9 217.5C248.3 217.6 248.4 218 248.3 218.4C248.2 218.7 247.8 218.9 247.5 218.8C245 218.2 242 217.8 241 218.2C242.5 219.1 244.1 219.8 245.7 220.3C246.1 220.4 246.3 220.8 246.2 221.2C246.1 221.6 245.7 221.8 245.3 221.7C243.5 221.1 241.6 220.7 239.8 220.6C239.8 220.7 240.1 221.8 242.4 222.9C245.8 224.5 249.1 226.3 249.1 226.4C249.4 226.6 249.5 226.9 249.4 227.2C249.3 227.5 249 227.7 248.7 227.7C247.3 227.6 244.8 227.7 244 228.4Z" fill="#231F20"/>
<path d="M282.001 292.8C279.501 297.6 277.401 302.6 275.701 307.8C275.701 307.8 255.201 302.2 253.901 301.5C252.601 300.8 235.601 275.4 235.601 275.4L224.101 283.6C224.101 283.6 239.401 309.9 243.001 313C246.601 316.1 269.301 326.8 277.501 327.8C285.701 328.8 302.801 318.7 314.001 307.4C325.201 296.1 338.401 272.8 336.301 264.3C334.201 255.8 327.401 251.1 324.801 249.3C322.201 247.5 308.501 234.8 306.201 233.3C303.901 231.8 265.401 217.5 265.401 217.5L261.301 229.8C261.301 229.8 296.101 244.8 298.101 246.1C300.101 247.4 315.601 268.5 315.601 268.5C315.601 268.5 303.501 272.2 297.601 276.4C291.701 280.6 282.001 292.8 282.001 292.8Z" fill="#68E1FD"/>
<path d="M319.5 291.1C318.8 282.2 313.8 274.1 306.1 269.5C302.7 267.5 298.7 266.2 294.7 266.8C290.7 267.4 287.1 270.1 286 273.9C283.9 273.3 281.5 273.7 279.8 275.1C275.1 278.6 275.3 285.5 276.3 290.6C277 294.3 278.2 297.8 280 301C284.5 308.7 294 312.8 302.8 311.6C312.6 310.4 320.2 300.9 319.5 291.1Z" fill="white"/>
<path d="M299.801 312.6C291.601 312.6 283.501 308.3 279.501 301.4C277.601 298.1 276.401 294.5 275.701 290.8C274.601 285.4 274.401 278.3 279.501 274.6C281.301 273.3 283.501 272.7 285.701 273.1C287.201 269.3 290.601 266.6 294.701 266.1C299.401 265.4 303.701 267.2 306.501 268.9C314.401 273.6 319.501 281.9 320.301 291C321.001 301.2 313.101 311 303.101 312.4C301.901 312.5 300.801 312.6 299.801 312.6ZM284.201 274.4C282.801 274.4 281.401 274.9 280.201 275.8C275.701 279.1 276.001 285.7 277.001 290.6C277.601 294.2 278.901 297.6 280.601 300.8C284.901 308 293.901 312.3 302.701 311C312.101 309.7 319.401 300.6 318.701 291.1C318.001 282.4 313.101 274.6 305.601 270.1C303.001 268.6 299.001 266.9 294.701 267.5C290.801 268.1 287.501 270.8 286.601 274.1C286.501 274.3 286.401 274.4 286.201 274.5C286.001 274.6 285.801 274.6 285.601 274.5C285.301 274.5 284.701 274.4 284.201 274.4Z" fill="#231F20"/>
<path d="M305.1 305.4C304.9 306.6 305 307.9 305.6 309.1C306 309.6 306.3 310.2 306.6 310.8C306.7 311.4 306.7 312 306.5 312.5C306.2 314 305.7 315.5 305.2 317C305.1 317.2 305.1 317.4 305.1 317.6C305.2 318 305.8 318 306.3 318C309.2 317.6 312.3 317.1 314.6 315.3C317.6 313.1 319.1 309 319.2 305.4C319.2 302.4 318.5 297.3 314.8 296.9C310.5 296.6 305.8 301.3 305.1 305.4Z" fill="white"/>
<path d="M306 318.8C305.4 318.9 304.8 318.5 304.5 317.9C304.4 317.5 304.4 317.1 304.6 316.8C305.1 315.4 305.5 313.9 305.9 312.4C306 311.9 306.1 311.5 306 311C305.9 310.7 305.7 310.3 305.5 310C305.4 309.8 305.2 309.6 305.1 309.4C304.4 308.1 304.2 306.7 304.5 305.3C305.2 300.8 310.2 295.8 315 296.3C318.8 296.7 320.1 301.3 320 305.5C319.9 309.7 318 313.8 315.1 316C312.5 317.9 309.2 318.4 306.5 318.8C306.3 318.8 306.2 318.8 306 318.8ZM305.9 317.4C306 317.4 306.2 317.4 306.3 317.4C309 317 312 316.5 314.3 314.9C316.9 313 318.6 309.3 318.6 305.5C318.6 304.7 318.6 298.1 314.8 297.7C310.7 297.3 306.3 301.8 305.8 305.6C305.6 306.7 305.7 307.8 306.2 308.8C306.3 309 306.4 309.1 306.5 309.3C306.8 309.7 307.1 310.2 307.3 310.7C307.4 311.4 307.4 312.1 307.2 312.8C306.9 314.3 306.5 315.8 305.9 317.4Z" fill="#231F20"/>
<path d="M286.901 112.8C286.901 112.8 276.001 120.1 273.601 120.7C271.201 121.3 258.601 120.9 258.601 120.9L270.501 104C270.501 104 278.901 102.2 283.201 102.7C287.501 103.2 286.901 112.8 286.901 112.8Z" fill="white"/>
<path d="M266.9 121.7C263 121.7 258.9 121.6 258.6 121.6C258.3 121.6 258.1 121.4 258 121.2C257.9 121 257.9 120.7 258 120.5L269.9 103.6C270 103.5 270.2 103.4 270.3 103.3C270.7 103.2 278.8 101.5 283.2 102C288.2 102.5 287.5 112.4 287.4 112.9C287.4 113.1 287.3 113.3 287.1 113.4C286 114.2 276.1 120.8 273.6 121.4C271.5 121.7 269.2 121.8 266.9 121.7ZM260 120.2C264.1 120.3 271.8 120.4 273.5 120C275.2 119.6 283.1 114.5 286.3 112.4C286.4 109.7 286.2 103.7 283.3 103.4C279.5 103 272.5 104.3 271.1 104.6L260 120.2Z" fill="#231F20"/>
<path d="M240.6 71.0999C241 72.9999 241.1 74.9998 240.9 76.8998C240.6 78.7998 242 85.6998 242 85.6998L228.7 96.7999C228.7 96.7999 225.4 80.0998 226.2 77.1998C227 74.2998 231.8 65.0999 231.8 65.0999L240.6 71.0999Z" fill="white"/>
<path d="M228.8 97.4999C228.7 97.4999 228.6 97.4999 228.6 97.4999C228.4 97.3999 228.2 97.1999 228.1 96.9999C227.8 95.2999 224.8 79.9999 225.7 77.0999C226.6 74.1999 231.2 65.1999 231.3 64.7999C231.4 64.5999 231.6 64.4999 231.8 64.3999C232 64.3999 232.2 64.3999 232.4 64.4999L241.1 70.4999C241.2 70.5999 241.3 70.6999 241.3 70.7999C241.7 72.8999 241.8 74.9999 241.6 76.9999C241.4 78.4999 242.3 83.6999 242.7 85.5999C242.7 85.8999 242.7 86.0999 242.5 86.2999L229.2 97.2999C229.1 97.3999 228.9 97.3999 228.8 97.4999ZM232.2 66.0999C231.1 68.2999 227.7 75.0999 227 77.3999C226.5 79.2999 228 88.7999 229.2 95.4999L241.2 85.4999C240.9 83.8999 239.9 78.5999 240.2 76.7999C240.4 74.9999 240.3 73.1999 240 71.4999L232.2 66.0999Z" fill="#231F20"/>
<path d="M329.8 55.3999C331 62.4999 319.9 102.9 317.7 105.1C315.5 107.3 286.1 117.6 286.1 117.6L281.2 100.7C281.2 100.7 302.1 91.0999 303.3 90.0999C304.5 89.0999 307.5 73.6999 307.5 73.6999C307.5 73.6999 289 70.8999 282 64.9999C275 59.0999 268.8 39.9999 265.4 39.1999C262 38.3999 251.5 44.6999 250 47.2999C248.5 49.8999 244.8 73.7999 244.8 73.7999L227.3 68.3999C227.3 68.3999 232.2 43.7999 235.1 36.6999C238 29.5999 271.3 13.5999 275.1 13.1999C278.9 12.7999 328.6 48.2999 329.8 55.3999Z" fill="#68E1FD"/>
<path d="M264.4 54.3C264.4 54.3 264.9 61.9 270 67.3C270 67.3 269.1 69.7 270.9 70.4C271.9 70.8 272.9 71 273.9 70.9C273.9 70.9 284.5 76.3 289.9 73.7C295.3 71.1 287.9 49.4 278.6 49.6C269.3 49.8 264.4 54.3 264.4 54.3Z" fill="white"/>
<path d="M286.101 75.0999C280.901 75.0999 274.701 72.0999 273.601 71.5999C272.501 71.5999 271.501 71.3999 270.501 70.9999C268.901 70.3999 268.801 68.5999 269.101 67.4999C264.201 61.9999 263.601 54.6999 263.601 54.3999C263.601 54.1999 263.701 53.9999 263.801 53.7999C264.001 53.5999 268.901 49.1999 278.401 48.8999C284.801 48.6999 290.001 57.9999 291.601 64.4999C292.801 69.4999 292.201 73.0999 290.001 74.1999C288.801 74.8999 287.501 75.1999 286.101 75.0999ZM273.801 70.1999C273.901 70.1999 274.001 70.1999 274.101 70.2999C274.201 70.3999 284.401 75.5999 289.501 73.0999C291.001 72.2999 291.401 69.0999 290.301 64.9999C288.601 57.9999 283.601 50.3999 278.601 50.3999H278.501C270.701 50.5999 266.201 53.7999 265.101 54.6999C265.301 56.1999 266.201 62.3999 270.501 66.8999C270.701 67.0999 270.701 67.3999 270.601 67.5999C270.601 67.6999 270.001 69.3999 271.101 69.7999C271.901 70.0999 272.801 70.1999 273.801 70.1999Z" fill="#231F20"/>
<path d="M264.401 54.2999C268.001 58.7999 273.901 60.7999 279.501 59.3999C279.501 59.3999 281.001 69.9999 289.801 73.6999C289.801 73.6999 306.201 67.3999 309.501 55.2999C312.801 43.1999 304.801 33.0999 295.401 28.8999C286.001 24.6999 262.201 30.1999 264.401 54.2999Z" fill="white"/>
<path d="M289.8 74.4C289.7 74.4 289.6 74.4 289.5 74.4C281.6 71.1 279.4 62.9 278.9 60.3C273.2 61.4 267.4 59.3 263.8 54.8C263.7 54.7 263.7 54.6 263.7 54.4C262.6 42 268.2 35.2 273.1 31.7C280.7 26.3 290.4 25.9 295.7 28.2C305.2 32.4 313.8 42.7 310.2 55.5C306.8 67.9 290.7 74.1 290.1 74.4C290 74.4 289.9 74.4 289.8 74.4ZM279.5 58.7C279.9 58.7 280.1 59 280.2 59.3C280.2 59.4 281.7 69.3 289.8 72.9C291.9 72 305.8 65.9 308.8 55C312.1 43.1 304 33.4 295 29.4C290 27.2 280.7 27.8 273.8 32.8C269.2 36.1 264 42.4 265 54C268.4 58.2 274 60 279.3 58.7H279.5Z" fill="#231F20"/>
<path d="M222.5 101.7L238.2 78.8999C239.1 77.5999 240.8 77.2999 242 78.1999L272.7 99.2999C274 100.2 274.3 101.9 273.4 103.1L257.7 125.9C256.8 127.2 255.1 127.5 253.9 126.6L223.2 105.5C222 104.6 221.7 102.9 222.5 101.7Z" fill="white"/>
<path d="M255.2 127.4C254.3 127.4 253.4 127.1 252.6 126.6L223.7 106.7C221.6 105.3 221.1 102.4 222.5 100.4L237 79.3998C238.4 77.2998 241.3 76.7998 243.3 78.1998L272.2 97.9998C274.3 99.3998 274.8 102.2 273.4 104.3L258.9 125.3C258.1 126.6 256.7 127.3 255.2 127.4ZM240.8 78.7998C239.8 78.7998 238.8 79.2998 238.2 80.1998L223.7 101.2C222.7 102.6 223.1 104.6 224.5 105.6L253.4 125.5C254.8 126.5 256.8 126.1 257.8 124.7L272.3 103.7C273.3 102.3 272.9 100.3 271.5 99.2998L242.6 79.3998C242 78.9998 241.4 78.7998 240.8 78.7998Z" fill="#231F20"/>
<path d="M226.4 101.7L239.7 82.3998C240.2 81.6998 241.1 81.5998 241.7 81.9998L269.2 100.9C269.9 101.4 270 102.3 269.6 102.9L256.3 122.2C255.8 122.9 254.9 123 254.3 122.6L226.8 103.7C226.1 103.3 225.9 102.4 226.4 101.7Z" fill="white"/>
<path d="M254.9 123.4C254.3 123.4 253.8 123.2 253.4 122.9L226.9 104.6C226.3 104.2 225.9 103.6 225.8 102.8C225.7 102.1 225.8 101.4 226.2 100.8L238.8 82.3999C239.7 81.1999 241.3 80.7999 242.6 81.6999L269.1 99.9999C269.7 100.4 270.1 101 270.2 101.8C270.3 102.5 270.2 103.2 269.8 103.8L257.2 122.2C256.7 123 255.8 123.4 254.9 123.4ZM241 82.6999C240.6 82.6999 240.2 82.8999 239.9 83.2999L227.3 101.7C227.1 102 227 102.4 227.1 102.7C227.2 103 227.4 103.4 227.6 103.6L254.1 121.9C254.7 122.3 255.5 122.2 255.9 121.6L268.5 103.2C268.7 102.9 268.8 102.5 268.7 102.2C268.6 101.9 268.4 101.5 268.2 101.3L241.8 82.9999C241.5 82.7999 241.3 82.7999 241 82.6999Z" fill="#231F20"/>
<path d="M268.901 113.2C268.901 113.2 259.101 114.8 258.101 113.1C257.101 111.4 259.101 108.8 261.001 108.3C262.901 107.8 272.801 107.1 272.801 107.1" fill="white"/>
<path d="M261.9 114.5C259.8 114.5 258 114.2 257.5 113.4C257 112.6 257 111.6 257.3 110.8C257.9 109.3 259.2 108.1 260.8 107.6C262.7 107.1 272.4 106.4 272.8 106.4C273.2 106.4 273.5 106.7 273.6 107C273.7 107.3 273.3 107.7 273 107.8C270.2 108 262.8 108.6 261.3 109C260.2 109.4 259.2 110.3 258.8 111.4C258.6 111.8 258.6 112.3 258.8 112.8C259.3 113.5 264 113.4 268.9 112.6C269.3 112.5 269.7 112.8 269.7 113.1C269.8 113.5 269.5 113.9 269.2 113.9H269.1C266.7 114.3 264.3 114.5 261.9 114.5Z" fill="#231F20"/>
<path d="M231.1 82C231.1 82.2 230.6 92.6 233 93.5C235.4 94.4 235.3 91.7 235.6 89.3C235.9 86.9 235.1 82.9 236.5 80" fill="white"/>
<path d="M233.8 94.3999C233.5 94.3999 233.1 94.2999 232.8 94.1999C230.5 93.3999 230.2 87.1999 230.4 82.1999C230.4 81.7999 230.7 81.4999 231.1 81.4999C231.5 81.4999 231.8 81.7999 231.8 82.0999V82.1999C231.6 88.7999 232.3 92.5999 233.2 92.8999C233.5 92.9999 233.8 92.9999 234.1 92.8999C234.6 92.5999 234.7 91.3999 234.8 90.2999C234.8 89.9999 234.9 89.5999 234.9 89.2999C235 88.3999 235 87.4999 234.9 86.5999C234.9 84.3999 234.8 81.7999 235.8 79.7999C236 79.3999 236.4 79.2999 236.7 79.4999C237 79.6999 237.2 80.0999 237 80.3999C236.2 82.1999 236.2 84.4999 236.3 86.5999C236.3 87.5999 236.3 88.4999 236.2 89.4999C236.2 89.7999 236.1 90.0999 236.1 90.3999C235.9 91.9999 235.8 93.3999 234.8 94.0999C234.5 94.2999 234.2 94.3999 233.8 94.3999Z" fill="#231F20"/>
<path d="M115.743 208.75L71.583 253.261L108.072 289.462L152.231 244.951L115.743 208.75Z" fill="white"/>
<path d="M108.1 290.2C107.9 290.2 107.7 290.1 107.6 290L71.1004 253.8C71.0004 253.7 70.9004 253.5 70.9004 253.3C70.9004 253.1 71.0004 252.9 71.1004 252.8L115.2 208.3C115.5 208 115.9 208 116.2 208.3L152.7 244.5C152.8 244.6 152.9 244.8 152.9 245C152.9 245.2 152.8 245.4 152.7 245.5L108.6 290C108.4 290.1 108.3 290.2 108.1 290.2ZM72.6004 253.3L108.1 288.5L151.2 245L115.7 209.8L72.6004 253.3Z" fill="#231F20"/>
<path d="M138.6 247.3C138.4 247.3 138.3 247.2 138.1 247.1L113.5 222.7C113.2 222.4 113.2 222 113.5 221.7C113.8 221.4 114.2 221.4 114.4 221.7L139 246.1C139.3 246.4 139.3 246.8 139 247.1C139 247.2 138.8 247.3 138.6 247.3Z" fill="#D1D3D4"/>
<path d="M131.6 254.4C131.4 254.4 131.3 254.3 131.1 254.2L106.5 229.8C106.2 229.5 106.2 229.1 106.5 228.8C106.7 228.5 107.2 228.5 107.4 228.7C107.4 228.7 107.4 228.7 107.5 228.8L132.1 253.2C132.4 253.5 132.4 253.9 132.1 254.2C132 254.4 131.8 254.4 131.6 254.4Z" fill="#D1D3D4"/>
<path d="M124.5 261.5C124.3 261.5 124.2 261.4 124 261.3L99.3998 236.9C99.0998 236.6 99.0998 236.2 99.3998 235.9C99.6998 235.6 100.1 235.6 100.4 235.9L125 260.4C125.3 260.7 125.3 261.1 125 261.4C124.9 261.5 124.7 261.5 124.5 261.5Z" fill="#D1D3D4"/>
<path d="M117.5 268.6C117.3 268.6 117.2 268.5 117 268.4L92.3998 244C92.0998 243.7 92.0998 243.3 92.3998 243C92.6998 242.7 93.0998 242.7 93.3998 243L118 267.4C118.3 267.7 118.3 268.1 118 268.4C117.9 268.6 117.7 268.6 117.5 268.6Z" fill="#D1D3D4"/>
<path d="M100.2 265.6C100 265.6 99.9002 265.5 99.7002 265.4L85.3002 251.1C85.0002 250.8 85.0002 250.4 85.3002 250.1C85.6002 249.8 86.0002 249.8 86.2002 250.1L100.6 264.4C100.9 264.7 100.9 265.1 100.6 265.4C100.6 265.5 100.4 265.6 100.2 265.6Z" fill="#D1D3D4"/>
<path d="M57.6006 262.1C59.5006 260.1 62.6006 259.9 65.4006 259.9C67.2006 259.8 69.1006 260 70.9006 260.5C73.3006 261.4 75.1006 263.3 76.9006 265.2C79.8006 268.4 82.9006 271.9 83.1006 276.2C83.5006 281.8 78.4006 286.8 72.8006 287.7C67.2006 288.6 61.6006 286.2 57.1006 282.7C54.8006 280.8 52.6006 278.5 52.1006 275.6C51.7006 272.6 52.7006 269.6 54.7006 267.4C56.7006 265.2 59.0006 263.3 61.6006 261.8" fill="white"/>
<path d="M70.4001 288.7C64.4001 288.7 59.4001 285.4 56.7001 283.3C53.6001 280.8 51.9001 278.4 51.4001 275.7C51.0001 272.5 52.0001 269.3 54.1001 266.9C56.1001 264.6 58.5001 262.7 61.1001 261.1C61.4001 260.9 61.9001 260.9 62.1001 261.3C62.3001 261.6 62.3001 262 62.0001 262.3C62.0001 262.3 62.0001 262.3 61.9001 262.3C59.4001 263.8 57.1001 265.7 55.2001 267.8C53.3001 269.9 52.4001 272.7 52.8001 275.5C53.2001 277.8 54.8001 280 57.6001 282.2C60.4001 284.4 66.2001 288.1 72.7001 287.1C77.7001 286.3 82.7001 281.8 82.4001 276.3C82.2001 272.4 79.4001 269.1 76.3001 265.8C74.7001 264.1 72.9001 262.1 70.6001 261.3C68.9001 260.8 67.1001 260.6 65.4001 260.7C62.6001 260.7 59.8001 260.8 58.1001 262.7C57.9001 263 57.5001 263.1 57.1001 262.9C56.8001 262.7 56.7001 262.3 56.9001 261.9C56.9001 261.8 57.0001 261.8 57.1001 261.7C59.2001 259.5 62.5001 259.3 65.4001 259.3C67.3001 259.2 69.3001 259.4 71.1001 260C73.7001 261 75.7001 263 77.4001 264.9C80.6001 268.4 83.6001 271.9 83.8001 276.3C84.2001 282.5 78.5001 287.7 72.9001 288.5C72.1001 288.6 71.3001 288.7 70.4001 288.7Z" fill="#231F20"/>
<path d="M81.4004 213.7C82.2004 213.4 83.0004 213.1 83.9004 212.9C84.9004 212.8 89.0004 212.4 92.6004 211.8C96.2004 211.2 98.5004 210.6 97.9004 209.5C97.3004 208.4 91.0004 208.2 91.0004 208.2C91.0004 208.2 96.0004 204.2 97.8004 203.4C99.6004 202.6 100.6 202 100.5 201.1C100.4 200.2 100.3 199.2 95.8004 201.8C95.8004 201.8 100.1 198.4 98.4004 197.7C96.7004 197 93.3004 199.6 93.3004 199.6C93.3004 199.6 97.2004 196.3 96.5004 195.4C95.8004 194.5 91.3004 196.5 91.3004 196.5C91.3004 196.5 95.7004 194.1 94.6004 193.2C93.5004 192.3 89.9004 193.3 85.5004 196.4C81.1004 199.5 73.9004 205.2 73.9004 205.2L81.4004 213.7Z" fill="white"/>
<path d="M81.4 214.4C81.2 214.4 81 214.3 80.9 214.2L73.2 205.7C73.1 205.6 73 205.4 73 205.2C73 205 73.1 204.8 73.3 204.7C73.4 204.6 80.5 198.9 84.9 195.9C89.6 192.7 93.3 191.5 94.9 192.8C95.2 193 95.4 193.4 95.3 193.8C95.3 194.1 95.1 194.4 94.9 194.6C95.6 194.4 96.4 194.5 96.9 195C97.3 195.5 97.2 196.2 96.6 197.1C97.2 196.9 97.9 196.9 98.5 197.1C99 197.2 99.3 197.6 99.4 198.1C99.4 198.6 99.3 199.2 98.9 199.6C99.4 199.4 99.9 199.5 100.3 199.6C100.8 199.9 101.1 200.4 101.1 201C101.3 202.5 99.7 203.3 98 204C96.2 205 94.4 206.2 92.8 207.6C95.4 207.8 97.9 208.2 98.4 209.2C98.6 209.6 98.6 210 98.4 210.4C98 211.3 96.5 211.8 92.5 212.5C89.4 213.1 85.8 213.4 84.3 213.5H83.7C82.9 213.6 82.2 213.9 81.4 214.2C81.3 214.2 81.2 214.3 81.1 214.3L81.4 214.4ZM74.7 205.3L81.5 212.9C82.2 212.6 83 212.4 83.7 212.3H84.3C85.8 212.2 89.3 211.8 92.4 211.3C95.5 210.8 97 210.3 97.3 209.9C95.2 209.3 93.1 209 91 209C90.7 209 90.5 208.8 90.4 208.5C90.3 208.2 90.4 207.9 90.6 207.7C90.8 207.5 95.7 203.6 97.6 202.8C99.2 202.1 99.9 201.6 99.9 201.2C99.9 201.1 99.9 200.9 99.8 200.8C99.8 200.8 99.2 200.7 96.2 202.4C95.9 202.6 95.5 202.5 95.3 202.2C95.1 201.9 95.2 201.5 95.4 201.3C96.8 200.2 98.1 198.7 98.1 198.3C97 198 94.7 199.4 93.7 200.2C93.4 200.4 92.9 200.3 92.7 200C92.5 199.7 92.6 199.4 92.8 199.1C94 198.2 95 197.1 95.8 195.8C94.3 196 92.9 196.5 91.5 197.2C91.2 197.4 90.7 197.2 90.6 196.9C90.4 196.6 90.6 196.2 90.9 196C92 195.4 93 194.7 93.9 193.8C93.1 193.4 90.3 193.9 85.7 197.1C82 199.5 76.5 203.9 74.7 205.3Z" fill="#231F20"/>
<path d="M78.8006 216.2L82.2006 214L74.0006 203.9L68.6006 207.4L78.8006 216.2Z" fill="#231F20"/>
<path d="M78.8006 216.9C78.6006 216.9 78.5006 216.8 78.3006 216.7L68.1006 208C67.9006 207.9 67.8006 207.6 67.9006 207.4C67.9006 207.2 68.0006 207 68.2006 206.9L73.6006 203.4C73.9006 203.2 74.3006 203.3 74.5006 203.5L82.7006 213.6C82.9006 213.9 82.9006 214.3 82.6006 214.6L79.2006 216.8C79.1006 216.9 78.9006 216.9 78.8006 216.9ZM69.7006 207.5L78.8006 215.3L81.1006 213.8L73.8006 204.8L69.7006 207.5Z" fill="#231F20"/>
<path d="M101.2 282.1C101.2 282.1 97.4002 275.6 97.0002 273.2C96.6002 270.8 97.4002 266.8 98.0002 266.7C98.6002 266.6 100.2 269.9 99.9002 271.9C99.9002 271.9 103.3 262 105.1 261.7C106.9 261.4 106.6 263.6 106.1 264.8C106.1 264.8 107.7 261.8 108.5 262.5C109.3 263.2 108.9 266.1 108.9 266.1C108.9 266.1 110.1 262.9 111 263.5C111.9 264.1 111.4 266.9 111.4 266.9C111.4 266.9 112.6 263.6 113.3 265C114 266.4 113.9 280.2 112.2 284.4C110.5 288.6 101.3 282.1 101.2 282.1Z" fill="white"/>
<path d="M109.8 286.5C106.4 286.5 101.4 283.1 100.8 282.7C100.7 282.6 100.7 282.6 100.6 282.5C100.4 282.2 96.7003 275.9 96.3003 273.3C95.9003 271 96.5003 267.4 97.2003 266.4C97.4003 266.2 97.6003 266 97.9003 266C98.3003 266 98.7003 266.1 98.9003 266.4C99.5003 267.2 100 268 100.2 268.9C101.5 265.5 103.4 261.2 105 261C105.7 260.8 106.3 261.1 106.8 261.6C106.9 261.8 107 262 107.1 262.2C107.3 262 107.7 261.8 108 261.7C108.4 261.6 108.7 261.7 109 262C109.4 262.4 109.6 262.8 109.7 263.4C109.9 263.2 110.2 263 110.4 262.9C110.7 262.8 111.1 262.8 111.4 263C111.8 263.3 112.1 263.8 112.2 264.3C112.4 264.1 112.6 264 112.9 264C113.4 264 113.8 264.3 114 264.7C114.9 266.4 114.6 280.6 112.9 284.7C112.6 285.5 111.9 286.2 111 286.4C110.6 286.5 110.2 286.6 109.8 286.5ZM101.8 281.7C103.6 282.9 108.4 285.7 110.6 285.1C111.1 285 111.4 284.7 111.6 284.2C113.2 280.3 113.3 268.2 112.8 265.7C112.5 266.2 112.3 266.7 112.1 267.2C112 267.5 111.6 267.7 111.2 267.6C110.8 267.5 110.6 267.1 110.7 266.8C110.9 265.9 110.9 265.1 110.7 264.2C110.2 264.8 109.8 265.6 109.5 266.3C109.4 266.7 109 266.9 108.6 266.7C108.3 266.6 108.1 266.2 108.1 265.9C108.3 265 108.3 264 108 263.1C107.4 263.7 106.9 264.3 106.6 265.1C106.4 265.4 106 265.6 105.6 265.4C105.3 265.2 105.2 264.9 105.3 264.5C105.6 263.9 105.7 263.1 105.5 262.4C105.4 262.3 105.1 262.3 105 262.3C104.2 262.6 102.1 267 100.4 272C100.3 272.3 99.9003 272.5 99.6003 272.5C99.2003 272.4 99.0003 272.1 99.1003 271.7C99.2003 270.3 98.8003 268.9 98.0003 267.7C97.5003 269.4 97.3003 271.2 97.6003 273C98.1003 275 100.7 279.8 101.8 281.7Z" fill="#231F20"/>
<path d="M100.3 285.6L101.2 282.1L112.2 284.4L111 290.3L100.3 285.6Z" fill="#231F20"/>
<path d="M111 291C110.9 291 110.8 291 110.7 290.9L100 286.2C99.7002 286.1 99.5002 285.7 99.6002 285.4L100.6 282C100.7 281.6 101.1 281.4 101.4 281.5L112.3 283.8C112.7 283.9 112.9 284.2 112.8 284.6L111.6 290.5C111.6 290.7 111.4 290.9 111.2 291C111.2 291 111.1 291 111 291ZM101.1 285.2L110.5 289.3L111.4 284.9L101.8 282.9L101.1 285.2Z" fill="#231F20"/>
<path d="M53.3002 267.6C53.3002 267.6 43.3002 261.7 37.7002 260.8C37.7002 260.8 48.2002 239.8 49.5002 238.4C50.8002 237 80.3002 216.4 80.3002 216.4L70.0002 204.9C70.0002 204.9 39.7002 224.9 33.3002 231.8C26.9002 238.7 14.1002 256.7 17.5002 268.1C20.9002 279.5 24.5002 293.5 39.5002 306.5C50.8002 316.5 65.1002 322.3 80.1002 323.1C90.1002 323.6 101 321 104.2 317.9C107.4 314.8 112.1 288 112.1 288L98.4002 284.3L93.8002 306.2L82.6002 302C82.6002 302 81.1002 292.7 69.9002 283.5C58.7002 274.3 53.3002 267.6 53.3002 267.6Z" fill="#68E1FD"/>
<path d="M57.0007 306.2C60.0007 306.3 63.0007 305.6 65.6007 304C72.1007 300 77.7007 295.8 81.8007 289.2C83.4007 286.7 84.6007 283.5 83.5007 280.7C82.1007 277.2 77.1007 275.6 76.2007 272C75.9007 270.8 76.3007 269.5 75.9007 268.3C75.4007 267.1 74.4007 266.3 73.1007 266C72.5007 265.9 72.0007 265.8 71.4007 265.6C70.4007 265 69.5007 264.2 68.8007 263.3C66.4007 261.1 63.2007 260.1 60.0007 260.5C56.8007 261 53.8007 262.3 51.3007 264.2C44.2007 269.3 37.0007 279.7 38.3007 288.8C39.7007 298 47.7007 305.8 57.0007 306.2Z" fill="white"/>
<path d="M57.7004 306.9H57.0004C47.8004 306.5 39.1004 298.5 37.8004 289.1C36.5004 279.8 43.6004 269.1 51.0004 263.8C53.6004 261.8 56.7004 260.4 60.0004 259.9C63.4004 259.4 66.9004 260.5 69.4004 262.9C69.6004 263.1 69.8004 263.3 70.0004 263.6C70.5004 264.2 71.0004 264.7 71.7004 265.1C72.0004 265.2 72.4004 265.3 72.7004 265.3L73.3004 265.4C74.8004 265.7 76.0004 266.7 76.6004 268.1C76.8004 268.8 76.9004 269.6 76.8004 270.3C76.8004 270.8 76.8004 271.3 76.9004 271.8C77.3004 273.4 78.8004 274.7 80.3004 276C81.8004 277.3 83.4004 278.6 84.1004 280.4C85.1004 282.9 84.5004 285.9 82.3004 289.5C78.0004 296.6 71.9004 301 65.9004 304.6C63.5004 306.1 60.6004 306.9 57.7004 306.9ZM61.6004 261.2C61.1004 261.2 60.7004 261.2 60.2004 261.3C57.1004 261.8 54.3004 263 51.8004 264.9C44.7004 270 37.9004 280.1 39.1004 288.9C40.3004 297.7 48.4004 305.2 57.0004 305.5C59.9004 305.6 62.7004 304.9 65.2004 303.4C71.0004 299.9 77.0004 295.6 81.2004 288.8C83.1004 285.6 83.7004 283 82.9004 281C82.3004 279.5 80.9004 278.4 79.5004 277.1C77.8004 275.7 76.1004 274.3 75.6004 272.2C75.5004 271.6 75.4004 270.9 75.5004 270.3C75.6004 269.7 75.5004 269.1 75.4004 268.6C75.0004 267.7 74.1004 267 73.1004 266.8L72.6004 266.7C72.2004 266.6 71.8004 266.5 71.4004 266.4C70.5004 266 69.8004 265.3 69.2004 264.6C69.0004 264.4 68.8004 264.2 68.6004 264C66.7004 262.1 64.2004 261.1 61.6004 261.2Z" fill="#231F20"/>
<path d="M85.4 114.4C88.5 113.4 91.9 113.2 95.1 113.9C95.1 113.9 96.4 111.1 98.4 110.8C100.4 110.5 100 111.3 100 111.3C100 111.3 101.6 109.3 102.6 110C102.6 110 104.6 110.9 104.8 112.1C104.8 112.1 107.4 111.2 107.8 112.7C108.2 114.2 106 117.3 102.7 120.2C99.4 123.1 95.3 125.2 94 125.3C92.7 125.4 83.5 123.5 83.5 123.5L85.4 114.4Z" fill="white"/>
<path d="M93.9998 126C92.4998 126 84.9998 124.5 83.3998 124.2C82.9998 124.1 82.7998 123.8 82.7998 123.4L84.5998 114.3C84.5998 114.1 84.7998 113.9 84.9998 113.8C88.0998 112.8 91.3998 112.6 94.5998 113.2C95.0998 112.3 96.3998 110.5 98.0998 110.2C98.6998 110 99.2998 110 99.8998 110.2C100.8 109.4 101.9 108.9 102.7 109.5C103.6 109.9 104.4 110.6 105 111.4C105.8 111.2 106.6 111.2 107.4 111.5C107.8 111.7 108.2 112.1 108.3 112.6C108.9 114.7 106 118.2 102.9 120.8C99.7998 123.4 95.5998 125.9 93.9998 126ZM84.3998 123C87.9998 123.7 93.1998 124.7 93.9998 124.6C94.7998 124.5 98.6998 122.6 102.2 119.6C105.6 116.7 107.4 113.9 107.1 112.8C107.1 112.7 107 112.6 106.9 112.6C106.3 112.4 105.6 112.5 105 112.7C104.8 112.8 104.6 112.8 104.4 112.7C104.2 112.6 104.1 112.4 104.1 112.2C104 111.5 102.8 110.8 102.3 110.6C102.2 110.6 102.2 110.5 102.1 110.5C101.9 110.4 101.1 110.9 100.5 111.7C100.3 112 99.8998 112 99.5998 111.8C99.3998 111.7 99.2998 111.5 99.2998 111.3C98.9998 111.3 98.7998 111.3 98.4998 111.4C97.0998 111.7 95.9998 113.5 95.6998 114.2C95.5998 114.5 95.1998 114.7 94.8998 114.6C91.8998 113.9 88.8998 114 85.9998 114.9L84.3998 123Z" fill="#231F20"/>
<path d="M99.5999 123.9C99.4999 123.9 99.3998 123.9 99.1998 123.8C98.8998 123.6 98.6998 123.2 98.8998 122.9C98.8998 122.9 98.8998 122.9 98.8998 122.8L108.5 106.4C108.7 106.1 109.1 106 109.5 106.2C109.9 106.4 109.9 106.8 109.7 107.2L100.1 123.6C100.1 123.7 99.7999 123.9 99.5999 123.9Z" fill="#231F20"/>
<path d="M101.9 112.8C103 112.5 104.1 112.4 105.2 112.4C105.7 112.3 106.2 112.5 106.6 112.8C106.9 113.2 107 113.7 106.8 114.2C106.6 114.6 106.2 115 105.8 115.3C104.4 116 103 116.6 101.5 116.9C101.2 117 100.8 117.1 100.6 117.3C100.2 117.6 99.8998 118 99.6998 118.4C98.5998 119.7 97.2998 120.7 95.7998 121.4" fill="white"/>
<path d="M95.7001 122C95.4001 122 95.2001 121.9 95.1001 121.6C94.9001 121.3 95.0001 120.9 95.3001 120.6H95.4001C96.8001 119.9 98.0001 119 99.1001 117.9L99.3001 117.7C99.5001 117.3 99.8001 117 100.2 116.7C100.6 116.5 100.9 116.3 101.4 116.2L102.3 115.9C103.4 115.6 104.5 115.2 105.5 114.6C105.8 114.4 106.1 114.1 106.3 113.8C106.4 113.6 106.4 113.4 106.3 113.2C106 113 105.7 113 105.4 113C104.3 113 103.3 113.1 102.2 113.4C101.8 113.5 101.4 113.3 101.4 112.9C101.3 112.5 101.5 112.1 101.9 112.1C103 111.8 104.2 111.7 105.4 111.7C106.1 111.6 106.8 111.8 107.3 112.3C107.8 112.9 108 113.8 107.6 114.5C107.3 115.1 106.9 115.6 106.3 115.9C105.2 116.6 104 117.1 102.7 117.4L101.8 117.7C101.5 117.8 101.3 117.9 101 118C100.8 118.2 100.6 118.4 100.4 118.6L100.2 118.8C99.1001 120.1 97.6001 121.2 96.0001 122C95.9001 122 95.8001 122 95.7001 122Z" fill="#231F20"/>
<path d="M118.4 85.8998C118.4 85.8998 116.4 88.0999 115.3 93.0999C114.2 98.0999 113.5 102.4 114.5 102.5C115.5 102.6 117.8 97.8998 117.8 97.8998C117.8 97.8998 118.5 108.9 120.3 108.9C121.2 108.9 122 108.2 122 107.3C122 107.2 122 107.1 122 107.1C122 107.1 123.1 109.4 124 108.6C124.5 107.9 124.7 107.1 124.4 106.3C124.4 106.3 125.6 108.4 126.3 107.6C126.7 107 126.8 106.2 126.6 105.5C126.6 105.5 128.2 107.4 128.6 106C129 104.6 127.8 93.1998 126.4 88.8998C125.7 86.4998 124.7 84.1999 123.4 82.0999L118.4 85.8998Z" fill="white"/>
<path d="M120.5 109.6C119 109.6 118 106.5 117.4 100.4C116.3 102.3 115.3 103.3 114.6 103.2C114.3 103.2 114 103 113.8 102.7C113.3 102 113 100.3 114.7 92.8999C115.9 87.7999 117.9 85.4999 117.9 85.3999L118 85.2999L123.1 81.2999C123.3 81.1999 123.4 81.0999 123.6 81.1999C123.8 81.1999 124 81.2999 124.1 81.4999C125.4 83.6999 126.4 85.9999 127.2 88.4999C128.5 92.5999 129.9 104.3 129.4 106.1C129.3 106.6 128.9 107 128.4 107.1C128.1 107.2 127.7 107.1 127.4 106.9C127.3 107.3 127.2 107.6 126.9 107.9C126.7 108.2 126.3 108.4 125.9 108.3C125.6 108.3 125.4 108.2 125.1 108C125 108.4 124.8 108.7 124.5 108.9C124.2 109.2 123.8 109.3 123.4 109.3C123 109.2 122.6 108.9 122.3 108.6C122.2 108.7 122.2 108.8 122.1 108.8C121.7 109.3 121 109.6 120.5 109.6ZM117.9 97.0999C118.3 97.1999 118.5 97.3999 118.6 97.6999C118.9 102.9 119.8 107.6 120.5 108.1C120.7 108.1 120.9 108 121.1 107.9C121.3 107.7 121.4 107.3 121.4 107C121.4 106.7 121.6 106.4 121.9 106.3C122.2 106.2 122.6 106.4 122.7 106.7C122.9 107.2 123.3 107.6 123.7 108C124.2 107.5 123.9 106.4 123.9 106.4C123.8 106.1 124 105.7 124.3 105.5C124.6 105.4 125 105.5 125.2 105.8C125.4 106.2 125.7 106.5 126 106.9C126.2 106.5 126.2 106 126.1 105.6C126 105.2 126.2 104.8 126.6 104.7C126.9 104.6 127.2 104.7 127.3 104.9C127.5 105.2 127.8 105.4 128.1 105.6C128.4 103.9 127.3 93.3999 126 88.8999C125.4 86.7999 124.5 84.7999 123.5 82.8999L119 86.3999C117.5 88.3999 116.6 90.7999 116.1 93.1999C114.7 99.1999 114.8 101.1 114.9 101.6C115.9 100.3 116.7 98.8999 117.3 97.4999C117.3 97.2999 117.6 97.1999 117.9 97.0999Z" fill="#231F20"/>
<path d="M41.9004 42.2C41.9004 42.2 55.2004 27.3 64.7004 23.2C74.2004 19.1 82.8004 18.9 88.7004 23.8C94.6004 28.7 109.8 42.7 112.7 49C115.6 55.4 126.9 83.2 126.9 83.2L113.4 89.5C113.4 89.5 100.1 58.5 99.1004 55.9C98.1004 53.3 80.5004 42.1 79.9004 41.5C79.3004 40.9 75.7004 56.1 69.6004 62.3C63.5004 68.5 42.8004 83.7 42.8004 83.7C42.8004 83.7 56.9004 101 59.4004 103.4C61.9004 105.8 90.0004 111.3 90.0004 111.3L86.3004 125.5C86.3004 125.5 56.4004 120.9 51.7004 118.9C47.0004 116.9 21.4004 101 20.3004 85.8C19.2004 70.6 41.9004 42.2 41.9004 42.2Z" fill="#68E1FD"/>
<path d="M73.7004 47.8999C75.4004 50.0999 76.9004 52.4999 78.0004 54.9999C79.4004 58.1999 80.5004 61.6999 79.9004 65.1999C79.3004 68.6999 76.7004 71.9999 73.2004 72.2999C74.5004 76.3999 71.9004 81.0999 68.1004 83.0999C64.3004 85.0999 59.6004 84.8999 55.5004 83.5999C45.1004 80.2999 37.3004 71.6999 35.1004 61.0999C33.3004 52.5999 38.1004 42.0999 47.0004 39.5999C56.1004 37.0999 67.6004 40.4999 73.7004 47.8999Z" fill="white"/>
<path d="M61.5003 85.2999C59.3003 85.2999 57.2003 84.8999 55.2003 84.2999C44.6003 80.8999 36.7003 72.0999 34.4003 61.1999C32.7003 52.7999 37.3003 41.4999 46.8003 38.8999C56.3003 36.2999 68.2003 39.8999 74.3003 47.3999C76.1003 49.5999 77.5003 52.0999 78.7003 54.6999C79.9003 57.2999 81.3003 61.2999 80.7003 65.2999C80.1003 68.5999 77.8003 72.0998 74.2003 72.8998C75.2003 77.2998 72.2003 81.7999 68.5003 83.6999C66.3003 84.7999 63.9003 85.2999 61.5003 85.2999ZM53.3003 39.4999C51.2003 39.4999 49.1003 39.7999 47.1003 40.2999C38.4003 42.6999 34.1003 53.1999 35.7003 60.9999C37.9003 71.3999 45.5003 79.6999 55.6003 82.9999C60.2003 84.3999 64.5003 84.1999 67.7003 82.4999C70.9003 80.7999 73.8003 76.4999 72.5003 72.5999C72.4003 72.3999 72.5003 72.1999 72.6003 71.9999C72.7003 71.7999 72.9003 71.6999 73.1003 71.6999C76.4003 71.2999 78.7003 68.0999 79.2003 65.0999C79.7003 62.0999 79.1003 59.1999 77.3003 55.2999C76.2003 52.7999 74.8003 50.3999 73.2003 48.2999C68.7003 42.7999 60.9003 39.3999 53.3003 39.4999Z" fill="#231F20"/>
<path d="M44.8999 38.1998C42.7999 38.0998 40.6999 38.5998 38.7999 39.5998C37.3999 40.0998 36.1999 40.9998 35.2999 42.0998C34.6999 42.9998 34.3999 44.0998 34.2999 45.1998C33.8999 47.4998 34.3999 49.8998 35.4999 51.8998C36.6999 53.8998 38.9999 55.0998 41.2999 54.8998C42.2999 54.6998 43.1999 54.3998 44.0999 53.8998C46.2999 52.7998 48.0999 51.0998 49.2999 48.9998C51.4999 45.0998 49.9999 38.7998 44.8999 38.1998Z" fill="white"/>
<path d="M40.7005 55.6999C38.3005 55.5999 36.2005 54.3 34.9005 52.3C33.7005 50.1 33.2005 47.5999 33.6005 45.0999C33.7005 43.8999 34.1005 42.6999 34.7005 41.6999C35.7005 40.3999 37.0005 39.5 38.5005 38.9C40.5005 37.8 42.7005 37.3 44.9005 37.4C47.1005 37.6 49.0005 38.9999 50.0005 40.9999C51.3005 43.5999 51.3005 46.5999 49.9005 49.1999C48.6005 51.3999 46.7005 53.1999 44.4005 54.3999C43.5005 54.9999 42.5005 55.3 41.4005 55.5C41.3005 55.7 41.0005 55.6999 40.7005 55.6999ZM44.1005 38.9C42.4005 39 40.7005 39.5 39.1005 40.3C37.8005 40.8 36.7005 41.4999 35.9005 42.5999C35.4005 43.3999 35.1005 44.4 35.0005 45.4C34.7005 47.5 35.1005 49.7 36.1005 51.6C37.2005 53.4 39.1005 54.4 41.2005 54.3C42.1005 54.1 43.0005 53.8 43.8005 53.3C45.9005 52.3 47.6005 50.5999 48.8005 48.6999C49.9005 46.4999 49.9005 44 48.8005 41.8C48.0005 40.2 46.5005 39.0999 44.8005 38.9999C44.6005 38.8999 44.4005 38.9 44.1005 38.9Z" fill="#231F20"/>
<path d="M172.3 273.1C180.2 272.3 187.2 278 188 285.9C188.7 293 184.1 299.6 177.1 301.3L177.6 306.5C177.7 307.6 176.9 308.5 175.9 308.6C174.8 308.7 173.9 307.9 173.8 306.9L173.3 301.7C165.4 301.5 159.2 294.8 159.4 286.9C159.6 279.7 165.1 273.8 172.3 273.1Z" fill="white"/>
<path d="M175.7 309.4C174.4 309.4 173.2 308.4 173.1 307L172.6 302.4C164.3 302.5 157.5 295.9 157.4 287.6C157.3 279.3 163.9 272.5 172.2 272.4C180.4 271.1 188.1 276.7 189.3 284.9C190.5 292.7 185.5 300.1 177.8 301.9L178.3 306.5C178.4 307.9 177.4 309.2 175.9 309.4H175.7ZM172.3 273.8C164.8 274.6 159.3 281.3 160.1 288.8C160.8 295.6 166.4 300.8 173.2 301C173.6 301 173.8 301.3 173.9 301.6L174.4 306.8C174.5 307.5 175.1 308 175.7 307.9C176.4 307.8 176.9 307.2 176.8 306.5L176.3 301.3C176.3 300.9 176.5 300.6 176.8 300.5C184.1 298.7 188.6 291.3 186.9 284C185.4 277.5 179.1 273.1 172.3 273.8Z" fill="#231F20"/>
<path d="M173.7 297.5C179.278 297.5 183.8 292.978 183.8 287.4C183.8 281.822 179.278 277.3 173.7 277.3C168.122 277.3 163.6 281.822 163.6 287.4C163.6 292.978 168.122 297.5 173.7 297.5Z" fill="#231F20"/>
<path d="M173.7 298.2C167.7 298.2 162.9 293.4 162.8 287.4C162.8 281.8 167 277.1 172.6 276.6C178.6 276 183.9 280.3 184.5 286.3C185.1 292.3 180.8 297.6 174.8 298.2C174.4 298.2 174.1 298.2 173.7 298.2ZM172.8 278C167.6 278.5 163.8 283.2 164.3 288.3C164.8 293.5 169.5 297.3 174.6 296.8C179.8 296.3 183.6 291.6 183.1 286.5C182.8 284 181.6 281.7 179.7 280.1C177.7 278.5 175.3 277.7 172.8 278Z" fill="#231F20"/>
<path d="M68.2998 165.1C75.8998 167.4 80.1998 175.4 77.8998 183C75.7998 189.8 68.9998 194.1 61.9998 193L60.4998 198C60.2998 199 59.1998 199.7 58.1998 199.4C57.1998 199.1 56.4998 198.1 56.7998 197.1C56.7998 197 56.7998 197 56.8998 196.9L58.3998 191.9C51.1998 188.6 47.9998 180.1 51.2998 172.9C54.0998 166.4 61.3998 163.1 68.2998 165.1Z" fill="white"/>
<path d="M58.4997 200.1C58.1997 200.1 57.9997 200.1 57.6997 200C56.9997 199.8 56.4997 199.3 56.0997 198.7C55.7997 198.1 55.6997 197.4 55.8997 196.7L57.1997 192.3C49.7997 188.6 46.7997 179.5 50.4997 172.1C53.7997 165.5 61.2997 162.3 68.2997 164.5C76.2997 166.9 80.7997 175.3 78.3997 183.2C76.2997 190.2 69.4997 194.7 62.1997 193.8L60.8997 198.2C60.6997 199.4 59.6997 200.2 58.4997 200.1ZM64.0997 165.2C56.5997 165.2 50.4997 171.4 50.4997 178.9C50.4997 184.2 53.5997 189.1 58.4997 191.3C58.7997 191.4 58.9997 191.8 58.8997 192.1L57.3997 197.1C57.2997 197.4 57.2997 197.8 57.4997 198C57.6997 198.3 57.8997 198.5 58.1997 198.6C58.7997 198.8 59.4997 198.4 59.6997 197.8L61.1997 192.8C61.2997 192.5 61.5997 192.3 61.9997 192.3C69.3997 193.5 76.3997 188.4 77.5997 181C78.7997 173.6 73.6997 166.6 66.2997 165.4C65.5997 165.3 64.7997 165.2 64.0997 165.2Z" fill="#231F20"/>
<path d="M64.1 189C69.6781 189 74.2 184.478 74.2 178.9C74.2 173.322 69.6781 168.8 64.1 168.8C58.5219 168.8 54 173.322 54 178.9C54 184.478 58.5219 189 64.1 189Z" fill="#231F20"/>
<path d="M64.1001 189.8C63.0001 189.8 62.0001 189.6 61.0001 189.3C55.3001 187.6 52.1001 181.6 53.9001 175.9C55.6001 170.2 61.6001 167 67.3001 168.8C73.0001 170.5 76.2001 176.5 74.4001 182.2C73.0001 186.7 68.9001 189.8 64.1001 189.8ZM64.1001 169.4C58.8001 169.4 54.6001 173.6 54.6001 178.9C54.6001 184.2 58.8001 188.4 64.1001 188.4C69.4001 188.4 73.6001 184.2 73.6001 178.9C73.6001 174.7 70.9001 171 66.9001 169.8C66.0001 169.6 65.1001 169.5 64.1001 169.4Z" fill="#231F20"/>
<path d="M160.8 58.3999C160.8 66.2999 154.4 72.7999 146.5 72.7999C139.3 72.7999 133.2 67.4999 132.3 60.3999H127C125.9 60.3999 125.1 59.4999 125.1 58.4999C125.1 57.3999 126 56.5999 127 56.5999H132.2C133.3 48.6999 140.5 43.1999 148.3 44.2999C155.5 45.0999 160.8 51.1999 160.8 58.3999Z" fill="white"/>
<path d="M146.399 73.3999C139.099 73.3999 132.899 68.0999 131.599 60.9999H126.999C125.499 60.9999 124.399 59.7999 124.399 58.3999C124.399 56.9999 125.599 55.7999 126.999 55.7999H131.599C133.099 47.5999 140.899 42.1999 148.999 43.5999C157.199 45.0999 162.599 52.8999 161.199 60.9999C159.999 68.1999 153.799 73.3999 146.399 73.3999ZM126.999 57.1999C126.299 57.1999 125.799 57.7999 125.799 58.3999C125.799 59.0999 126.399 59.5999 126.999 59.5999H132.199C132.599 59.5999 132.799 59.8999 132.899 60.1999C133.899 67.6999 140.799 72.8999 148.299 71.8999C155.799 70.8999 160.999 63.9999 159.999 56.5999C158.999 49.0999 152.099 43.8999 144.599 44.8999C138.499 45.6999 133.699 50.4999 132.899 56.5999C132.899 56.8999 132.599 57.1999 132.199 57.1999H126.999Z" fill="#231F20"/>
<path d="M146.4 68.4998C151.978 68.4998 156.5 63.9779 156.5 58.3998C156.5 52.8217 151.978 48.2998 146.4 48.2998C140.822 48.2998 136.3 52.8217 136.3 58.3998C136.3 63.9779 140.822 68.4998 146.4 68.4998Z" fill="#231F20"/>
<path d="M146.4 69.2C140.4 69.2 135.6 64.3 135.6 58.3C135.6 52.3 140.5 47.5 146.5 47.5C152.5 47.5 157.3 52.4 157.3 58.3C157.3 64.4 152.4 69.2 146.4 69.2ZM146.4 49C141.2 49 137 53.2 137 58.5C137 63.7 141.2 67.9 146.4 67.9C151.6 67.9 155.8 63.7 155.8 58.5C155.9 53.2 151.6 49 146.4 49Z" fill="#231F20"/>
<path d="M316.999 145.2C316.999 153.1 310.599 159.6 302.699 159.6C295.499 159.6 289.399 154.3 288.499 147.2H283.299C282.199 147.2 281.399 146.3 281.399 145.3C281.399 144.2 282.299 143.4 283.299 143.4H288.499C289.599 135.5 296.799 130 304.599 131.1C311.699 132 316.999 138 316.999 145.2Z" fill="white"/>
<path d="M302.7 160.3C295.4 160.3 289.2 155.1 287.9 147.9H283.3C281.8 147.9 280.7 146.7 280.7 145.3C280.7 143.9 281.9 142.7 283.3 142.7H287.9C289.4 134.5 297.2 129.1 305.3 130.5C313.4 131.9 318.9 139.8 317.5 147.9C316.2 155 310 160.3 302.7 160.3ZM283.2 144C282.5 144 282 144.6 282 145.2C282 145.9 282.6 146.4 283.2 146.4H288.4C288.8 146.4 289 146.7 289.1 147C290.1 154.5 297 159.7 304.5 158.7C312 157.7 317.2 150.8 316.2 143.3C315.2 135.8 308.3 130.6 300.8 131.6C294.7 132.4 289.9 137.2 289.1 143.3C289.1 143.6 288.8 143.9 288.4 143.9L283.2 144Z" fill="#231F20"/>
<path d="M302.7 155.3C308.278 155.3 312.8 150.778 312.8 145.2C312.8 139.622 308.278 135.1 302.7 135.1C297.122 135.1 292.6 139.622 292.6 145.2C292.6 150.778 297.122 155.3 302.7 155.3Z" fill="#231F20"/>
<path d="M302.7 156.1C296.7 156.1 291.8 151.3 291.8 145.3C291.8 139.3 296.6 134.4 302.6 134.4C308.6 134.4 313.5 139.2 313.5 145.2C313.5 151.2 308.7 156 302.7 156.1ZM302.7 135.8C297.5 135.8 293.2 140 293.2 145.2C293.2 150.4 297.4 154.7 302.6 154.7C307.8 154.7 312.1 150.5 312.1 145.3C312.1 140 307.9 135.8 302.7 135.8Z" fill="#231F20"/>
</svg>
